<svg width="20" height="18" viewBox="0 0 20 18" fill="none" xmlns="http://www.w3.org/2000/svg">
<path fill-rule="evenodd" clip-rule="evenodd" d="M10 0.0257568C6.229 0.0257568 4.343 0.0257567 3.172 1.04149C2.108 1.96276 2.01 3.39362 2 6.09242H1C0.734784 6.09242 0.48043 6.18373 0.292893 6.34626C0.105357 6.5088 0 6.72924 0 6.95909V7.82576C0 7.9603 0.036145 8.093 0.105573 8.21334C0.175 8.33368 0.275804 8.43836 0.4 8.51909L2 9.55909C2.01 12.2579 2.108 13.6888 3.172 14.61C3.414 14.8206 3.686 14.987 4 15.1188V16.4924C4 16.7223 4.10536 16.9427 4.29289 17.1052C4.48043 17.2678 4.73478 17.3591 5 17.3591H6.5C6.76522 17.3591 7.01957 17.2678 7.20711 17.1052C7.39464 16.9427 7.5 16.7223 7.5 16.4924V15.6102C8.227 15.6258 9.054 15.6258 10 15.6258C10.946 15.6258 11.773 15.6258 12.5 15.6102V16.4924C12.5 16.7223 12.6054 16.9427 12.7929 17.1052C12.9804 17.2678 13.2348 17.3591 13.5 17.3591H15C15.2652 17.3591 15.5196 17.2678 15.7071 17.1052C15.8946 16.9427 16 16.7223 16 16.4924V15.1188C16.3071 14.9909 16.5871 14.8189 16.828 14.61C17.892 13.6888 17.991 12.2579 18 9.55909L19.6 8.51909C19.7242 8.43836 19.825 8.33368 19.8944 8.21334C19.9639 8.093 20 7.9603 20 7.82576V6.95909C20 6.72924 19.8946 6.5088 19.7071 6.34626C19.5196 6.18373 19.2652 6.09242 19 6.09242H18C17.99 3.39362 17.892 1.96276 16.828 1.04149C15.657 0.0257567 13.771 0.0257568 10 0.0257568ZM3.5 6.52576C3.5 7.75122 3.5 8.36396 3.94 8.74442C4.379 9.12576 5.086 9.12576 6.5 9.12576H13.5C14.914 9.12576 15.621 9.12576 16.06 8.74442C16.5 8.36396 16.5 7.75122 16.5 6.52576V4.35909C16.5 3.13362 16.5 2.52089 16.06 2.14042C15.622 1.75909 14.915 1.75909 13.5 1.75909H6.5C5.086 1.75909 4.379 1.75909 3.94 2.14042C3.5 2.52002 3.5 3.13276 3.5 4.35909V6.52576ZM4.25 12.1591C4.25 11.9867 4.32902 11.8214 4.46967 11.6995C4.61032 11.5776 4.80109 11.5091 5 11.5091H6.5C6.69891 11.5091 6.88968 11.5776 7.03033 11.6995C7.17098 11.8214 7.25 11.9867 7.25 12.1591C7.25 12.3315 7.17098 12.4968 7.03033 12.6187C6.88968 12.7406 6.69891 12.8091 6.5 12.8091H5C4.80109 12.8091 4.61032 12.7406 4.46967 12.6187C4.32902 12.4968 4.25 12.3315 4.25 12.1591ZM15.75 12.1591C15.75 11.9867 15.671 11.8214 15.5303 11.6995C15.3897 11.5776 15.1989 11.5091 15 11.5091H13.5C13.3011 11.5091 13.1103 11.5776 12.9697 11.6995C12.829 11.8214 12.75 11.9867 12.75 12.1591C12.75 12.3315 12.829 12.4968 12.9697 12.6187C13.1103 12.7406 13.3011 12.8091 13.5 12.8091H15C15.1989 12.8091 15.3897 12.7406 15.5303 12.6187C15.671 12.4968 15.75 12.3315 15.75 12.1591Z" fill="#B7B7B7"/>
</svg>
