<svg width="21" height="19" viewBox="0 0 21 19" fill="none" xmlns="http://www.w3.org/2000/svg">
<path fill-rule="evenodd" clip-rule="evenodd" d="M10.8646 0.92627C7.09356 0.92627 5.20756 0.926269 4.03656 1.942C2.97256 2.86327 2.87456 4.29414 2.86456 6.99294H1.86456C1.59935 6.99294 1.34499 7.08425 1.15746 7.24678C0.96992 7.40931 0.864563 7.62975 0.864563 7.8596V8.72627C0.864563 8.86081 0.900708 8.99351 0.970136 9.11385C1.03956 9.23419 1.14037 9.33887 1.26456 9.4196L2.86456 10.4596C2.87456 13.1584 2.97256 14.5893 4.03656 15.5105C4.27856 15.7211 4.55056 15.8875 4.86456 16.0193V17.3929C4.86456 17.6228 4.96992 17.8432 5.15746 18.0058C5.34499 18.1683 5.59935 18.2596 5.86456 18.2596H7.36456C7.62978 18.2596 7.88413 18.1683 8.07167 18.0058C8.25921 17.8432 8.36456 17.6228 8.36456 17.3929V16.5107C9.09156 16.5263 9.91856 16.5263 10.8646 16.5263C11.8106 16.5263 12.6376 16.5263 13.3646 16.5107V17.3929C13.3646 17.6228 13.4699 17.8432 13.6575 18.0058C13.845 18.1683 14.0993 18.2596 14.3646 18.2596H15.8646C16.1298 18.2596 16.3841 18.1683 16.5717 18.0058C16.7592 17.8432 16.8646 17.6228 16.8646 17.3929V16.0193C17.1717 15.8914 17.4517 15.7194 17.6926 15.5105C18.7566 14.5893 18.8556 13.1584 18.8646 10.4596L20.4646 9.4196C20.5888 9.33887 20.6896 9.23419 20.759 9.11385C20.8284 8.99351 20.8646 8.86081 20.8646 8.72627V7.8596C20.8646 7.62975 20.7592 7.40931 20.5717 7.24678C20.3841 7.08425 20.1298 6.99294 19.8646 6.99294H18.8646C18.8546 4.29414 18.7566 2.86327 17.6926 1.942C16.5216 0.926269 14.6356 0.92627 10.8646 0.92627ZM4.36456 7.42627C4.36456 8.65174 4.36456 9.26447 4.80456 9.64494C5.24356 10.0263 5.95056 10.0263 7.36456 10.0263H14.3646C15.7786 10.0263 16.4856 10.0263 16.9246 9.64494C17.3646 9.26447 17.3646 8.65174 17.3646 7.42627V5.2596C17.3646 4.03414 17.3646 3.4214 16.9246 3.04094C16.4866 2.6596 15.7796 2.6596 14.3646 2.6596H7.36456C5.95056 2.6596 5.24356 2.6596 4.80456 3.04094C4.36456 3.42054 4.36456 4.03327 4.36456 5.2596V7.42627ZM5.11456 13.0596C5.11456 12.8872 5.19358 12.7219 5.33423 12.6C5.47488 12.4781 5.66565 12.4096 5.86456 12.4096H7.36456C7.56348 12.4096 7.75424 12.4781 7.89489 12.6C8.03554 12.7219 8.11456 12.8872 8.11456 13.0596C8.11456 13.232 8.03554 13.3973 7.89489 13.5192C7.75424 13.6411 7.56348 13.7096 7.36456 13.7096H5.86456C5.66565 13.7096 5.47488 13.6411 5.33423 13.5192C5.19358 13.3973 5.11456 13.232 5.11456 13.0596ZM16.6146 13.0596C16.6146 12.8872 16.5355 12.7219 16.3949 12.6C16.2542 12.4781 16.0635 12.4096 15.8646 12.4096H14.3646C14.1657 12.4096 13.9749 12.4781 13.8342 12.6C13.6936 12.7219 13.6146 12.8872 13.6146 13.0596C13.6146 13.232 13.6936 13.3973 13.8342 13.5192C13.9749 13.6411 14.1657 13.7096 14.3646 13.7096H15.8646C16.0635 13.7096 16.2542 13.6411 16.3949 13.5192C16.5355 13.3973 16.6146 13.232 16.6146 13.0596Z" fill="url(#paint0_linear_1191_502)"/>
<defs>
<linearGradient id="paint0_linear_1191_502" x1="0.864563" y1="9.59294" x2="20.8646" y2="9.59294" gradientUnits="userSpaceOnUse">
<stop stop-color="#0087E1"/>
<stop offset="1" stop-color="#174495"/>
</linearGradient>
</defs>
</svg>
