<svg width="19" height="18" viewBox="0 0 19 18" fill="none" xmlns="http://www.w3.org/2000/svg">
<path d="M7.61456 0.92627C7.41565 0.92627 7.22489 0.994751 7.08423 1.11665C6.94358 1.23855 6.86456 1.40388 6.86456 1.57627V2.22627H5.84306C5.11381 2.22613 4.40946 2.4562 3.86173 2.87348C3.314 3.29075 2.96041 3.86665 2.86706 4.49347L2.62406 6.12627H1.61456C1.41565 6.12627 1.22489 6.19475 1.08423 6.31665C0.943581 6.43855 0.864563 6.60388 0.864563 6.77627C0.864563 6.94866 0.943581 7.11399 1.08423 7.23589C1.22489 7.35779 1.41565 7.42627 1.61456 7.42627H2.43056L2.41556 7.52247C1.9645 7.65024 1.5716 7.89833 1.29303 8.23129C1.01446 8.56424 0.864493 8.965 0.864563 9.37627V13.2763C0.864563 13.7934 1.10162 14.2894 1.52357 14.6551C1.94553 15.0208 2.51783 15.2263 3.11456 15.2263H16.6146C17.2113 15.2263 17.7836 15.0208 18.2056 14.6551C18.6275 14.2894 18.8646 13.7934 18.8646 13.2763V9.37627C18.8647 8.96359 18.7137 8.56152 18.4333 8.22793C18.153 7.89434 17.7578 7.64643 17.3046 7.51987L17.2911 7.42627H18.1146C18.3135 7.42627 18.5042 7.35779 18.6449 7.23589C18.7855 7.11399 18.8646 6.94866 18.8646 6.77627C18.8646 6.60388 18.7855 6.43855 18.6449 6.31665C18.5042 6.19475 18.3135 6.12627 18.1146 6.12627H17.0991L16.8591 4.49737C16.7668 3.87006 16.4138 3.29341 15.8663 2.87537C15.3188 2.45733 14.6142 2.22656 13.8846 2.22627H12.8646V1.57627C12.8646 1.40388 12.7855 1.23855 12.6449 1.11665C12.5042 0.994751 12.3135 0.92627 12.1146 0.92627H7.61456ZM13.8846 3.52627C14.2492 3.52655 14.6012 3.64192 14.8747 3.85079C15.1483 4.05966 15.3248 4.34774 15.3711 4.66117L15.7791 7.42627H3.94406L4.35506 4.65987C4.40174 4.34646 4.57853 4.05851 4.8524 3.84987C5.12626 3.64124 5.47843 3.5262 5.84306 3.52627H13.8846ZM4.61756 11.3263C4.61756 11.1984 4.64662 11.0718 4.70308 10.9537C4.75955 10.8355 4.8423 10.7282 4.94663 10.6378C5.05095 10.5473 5.17481 10.4756 5.31112 10.4267C5.44743 10.3778 5.59352 10.3526 5.74106 10.3526C5.8886 10.3526 6.0347 10.3778 6.17101 10.4267C6.30732 10.4756 6.43117 10.5473 6.5355 10.6378C6.63982 10.7282 6.72258 10.8355 6.77904 10.9537C6.8355 11.0718 6.86456 11.1984 6.86456 11.3263C6.86456 11.5845 6.74619 11.8322 6.5355 12.0148C6.3248 12.1974 6.03903 12.3 5.74106 12.3C5.44309 12.3 5.15733 12.1974 4.94663 12.0148C4.73593 11.8322 4.61756 11.5845 4.61756 11.3263ZM12.8646 11.3263C12.8646 11.068 12.9829 10.8204 13.1936 10.6378C13.4043 10.4552 13.6901 10.3526 13.9881 10.3526C14.286 10.3526 14.5718 10.4552 14.7825 10.6378C14.9932 10.8204 15.1116 11.068 15.1116 11.3263C15.1116 11.5845 14.9932 11.8322 14.7825 12.0148C14.5718 12.1974 14.286 12.3 13.9881 12.3C13.6901 12.3 13.4043 12.1974 13.1936 12.0148C12.9829 11.8322 12.8646 11.5845 12.8646 11.3263ZM14.3601 16.5263H16.6101V16.8513C16.6101 17.1099 16.4915 17.3578 16.2806 17.5407C16.0696 17.7235 15.7834 17.8263 15.4851 17.8263C15.1867 17.8263 14.9005 17.7235 14.6896 17.5407C14.4786 17.3578 14.3601 17.1099 14.3601 16.8513V16.5263ZM3.11456 16.5263H5.36456V16.8513C5.36456 17.1099 5.24604 17.3578 5.03506 17.5407C4.82408 17.7235 4.53793 17.8263 4.23956 17.8263C3.94119 17.8263 3.65505 17.7235 3.44407 17.5407C3.23309 17.3578 3.11456 17.1099 3.11456 16.8513V16.5263Z" fill="url(#paint0_linear_1191_503)"/>
<defs>
<linearGradient id="paint0_linear_1191_503" x1="0.864563" y1="9.37627" x2="18.8646" y2="9.37627" gradientUnits="userSpaceOnUse">
<stop stop-color="#0087E1"/>
<stop offset="1" stop-color="#174495"/>
</linearGradient>
</defs>
</svg>
