<svg width="18" height="17" viewBox="0 0 18 17" fill="none" xmlns="http://www.w3.org/2000/svg">
<path d="M6.75 0.0257568C6.55109 0.0257568 6.36032 0.0942388 6.21967 0.216137C6.07902 0.338036 6 0.503366 6 0.675757V1.32576H4.9785C4.24924 1.32561 3.54489 1.55569 2.99717 1.97296C2.44944 2.39024 2.09584 2.96613 2.0025 3.59296L1.7595 5.22576H0.75C0.551088 5.22576 0.360322 5.29424 0.21967 5.41614C0.0790178 5.53804 2.45703e-08 5.70337 2.45703e-08 5.87576C2.45703e-08 6.04815 0.0790178 6.21348 0.21967 6.33538C0.360322 6.45727 0.551088 6.52576 0.75 6.52576H1.566L1.551 6.62196C1.09994 6.74972 0.707035 6.99782 0.428468 7.33077C0.1499 7.66372 -7.00847e-05 8.06449 2.45703e-08 8.47576V12.3758C2.45703e-08 12.8929 0.237053 13.3889 0.65901 13.7546C1.08097 14.1203 1.65326 14.3258 2.25 14.3258H15.75C16.3467 14.3258 16.919 14.1203 17.341 13.7546C17.7629 13.3889 18 12.8929 18 12.3758V8.47576C18.0001 8.06307 17.8491 7.66101 17.5688 7.32741C17.2884 6.99382 16.8932 6.74591 16.44 6.61936L16.4265 6.52576H17.25C17.4489 6.52576 17.6397 6.45727 17.7803 6.33538C17.921 6.21348 18 6.04815 18 5.87576C18 5.70337 17.921 5.53804 17.7803 5.41614C17.6397 5.29424 17.4489 5.22576 17.25 5.22576H16.2345L15.9945 3.59686C15.9022 2.96955 15.5493 2.3929 15.0017 1.97486C14.4542 1.55682 13.7497 1.32605 13.02 1.32576H12V0.675757C12 0.503366 11.921 0.338036 11.7803 0.216137C11.6397 0.0942388 11.4489 0.0257568 11.25 0.0257568H6.75ZM13.02 2.62576C13.3846 2.62604 13.7366 2.74141 14.0102 2.95028C14.2838 3.15915 14.4602 3.44723 14.5065 3.76066L14.9145 6.52576H3.0795L3.4905 3.75936C3.53717 3.44594 3.71397 3.158 3.98783 2.94936C4.2617 2.74072 4.61387 2.62569 4.9785 2.62576H13.02ZM3.753 10.4258C3.753 10.2979 3.78206 10.1713 3.83852 10.0531C3.89498 9.935 3.97774 9.82766 4.08207 9.73725C4.18639 9.64683 4.31025 9.57511 4.44656 9.52617C4.58286 9.47724 4.72896 9.45206 4.8765 9.45206C5.02404 9.45206 5.17014 9.47724 5.30645 9.52617C5.44275 9.57511 5.56661 9.64683 5.67093 9.73725C5.77526 9.82766 5.85802 9.935 5.91448 10.0531C5.97094 10.1713 6 10.2979 6 10.4258C6 10.684 5.88163 10.9317 5.67093 11.1143C5.46024 11.2969 5.17447 11.3995 4.8765 11.3995C4.57853 11.3995 4.29276 11.2969 4.08207 11.1143C3.87137 10.9317 3.753 10.684 3.753 10.4258ZM12 10.4258C12 10.1675 12.1184 9.91985 12.3291 9.73725C12.5398 9.55464 12.8255 9.45206 13.1235 9.45206C13.4215 9.45206 13.7072 9.55464 13.9179 9.73725C14.1286 9.91985 14.247 10.1675 14.247 10.4258C14.247 10.684 14.1286 10.9317 13.9179 11.1143C13.7072 11.2969 13.4215 11.3995 13.1235 11.3995C12.8255 11.3995 12.5398 11.2969 12.3291 11.1143C12.1184 10.9317 12 10.684 12 10.4258ZM13.4955 15.6258H15.7455V15.9508C15.7455 16.2093 15.627 16.4573 15.416 16.6402C15.205 16.823 14.9189 16.9258 14.6205 16.9258C14.3221 16.9258 14.036 16.823 13.825 16.6402C13.614 16.4573 13.4955 16.2093 13.4955 15.9508V15.6258ZM2.25 15.6258H4.5V15.9508C4.5 16.2093 4.38147 16.4573 4.1705 16.6402C3.95952 16.823 3.67337 16.9258 3.375 16.9258C3.07663 16.9258 2.79048 16.823 2.5795 16.6402C2.36853 16.4573 2.25 16.2093 2.25 15.9508V15.6258Z" fill="#B7B7B7"/>
</svg>
