<svg width="19" height="21" viewBox="0 0 19 21" fill="none" xmlns="http://www.w3.org/2000/svg">
<path d="M15.0104 2.77104V1.51562C15.0104 1.325 14.9347 1.14218 14.7999 1.00739C14.6651 0.8726 14.4823 0.796875 14.2917 0.796875C14.101 0.796875 13.9182 0.8726 13.7834 1.00739C13.6486 1.14218 13.5729 1.325 13.5729 1.51562V2.71354H5.42708V1.51562C5.42708 1.325 5.35136 1.14218 5.21657 1.00739C5.08177 0.8726 4.89896 0.796875 4.70833 0.796875C4.51771 0.796875 4.33489 0.8726 4.2001 1.00739C4.06531 1.14218 3.98958 1.325 3.98958 1.51562V2.77104C2.92135 2.94381 1.94933 3.49071 1.24713 4.31404C0.544929 5.13737 0.158282 6.18352 0.15625 7.26562V15.651C0.15625 16.2488 0.273993 16.8408 0.502757 17.393C0.73152 17.9453 1.06682 18.4471 1.48952 18.8699C2.34321 19.7235 3.50105 20.2031 4.70833 20.2031H14.2917C14.8895 20.2031 15.4814 20.0854 16.0337 19.8566C16.586 19.6279 17.0878 19.2926 17.5105 18.8699C17.9332 18.4471 18.2685 17.9453 18.4972 17.393C18.726 16.8408 18.8438 16.2488 18.8438 15.651V7.26562C18.8417 6.18352 18.4551 5.13737 17.7529 4.31404C17.0507 3.49071 16.0786 2.94381 15.0104 2.77104ZM6.05 16.1877H5.09167C4.90104 16.1877 4.71823 16.112 4.58343 15.9772C4.44864 15.8424 4.37292 15.6596 4.37292 15.469C4.37292 15.2783 4.44864 15.0955 4.58343 14.9607C4.71823 14.8259 4.90104 14.7502 5.09167 14.7502H6.05C6.24062 14.7502 6.42344 14.8259 6.55823 14.9607C6.69302 15.0955 6.76875 15.2783 6.76875 15.469C6.76875 15.6596 6.69302 15.8424 6.55823 15.9772C6.42344 16.112 6.24062 16.1877 6.05 16.1877ZM6.05 13.236H5.09167C4.90104 13.236 4.71823 13.1603 4.58343 13.0255C4.44864 12.8907 4.37292 12.7079 4.37292 12.5173C4.37292 12.3267 4.44864 12.1439 4.58343 12.0091C4.71823 11.8743 4.90104 11.7985 5.09167 11.7985H6.05C6.24062 11.7985 6.42344 11.8743 6.55823 12.0091C6.69302 12.1439 6.76875 12.3267 6.76875 12.5173C6.76875 12.7079 6.69302 12.8907 6.55823 13.0255C6.42344 13.1603 6.24062 13.236 6.05 13.236ZM9.98875 16.1877H9.03042C8.83979 16.1877 8.65697 16.112 8.52218 15.9772C8.38739 15.8424 8.31167 15.6596 8.31167 15.469C8.31167 15.2783 8.38739 15.0955 8.52218 14.9607C8.65697 14.8259 8.83979 14.7502 9.03042 14.7502H9.98875C10.1794 14.7502 10.3622 14.8259 10.497 14.9607C10.6318 15.0955 10.7075 15.2783 10.7075 15.469C10.7075 15.6596 10.6318 15.8424 10.497 15.9772C10.3622 16.112 10.1794 16.1877 9.98875 16.1877ZM9.98875 13.236H9.03042C8.83979 13.236 8.65697 13.1603 8.52218 13.0255C8.38739 12.8907 8.31167 12.7079 8.31167 12.5173C8.31167 12.3267 8.38739 12.1439 8.52218 12.0091C8.65697 11.8743 8.83979 11.7985 9.03042 11.7985H9.98875C10.1794 11.7985 10.3622 11.8743 10.497 12.0091C10.6318 12.1439 10.7075 12.3267 10.7075 12.5173C10.7075 12.7079 10.6318 12.8907 10.497 13.0255C10.3622 13.1603 10.1794 13.236 9.98875 13.236ZM13.9275 16.1877H12.9692C12.7785 16.1877 12.5957 16.112 12.4609 15.9772C12.3261 15.8424 12.2504 15.6596 12.2504 15.469C12.2504 15.2783 12.3261 15.0955 12.4609 14.9607C12.5957 14.8259 12.7785 14.7502 12.9692 14.7502H13.9275C14.1181 14.7502 14.3009 14.8259 14.4357 14.9607C14.5705 15.0955 14.6463 15.2783 14.6463 15.469C14.6463 15.6596 14.5705 15.8424 14.4357 15.9772C14.3009 16.112 14.1181 16.1877 13.9275 16.1877ZM13.9275 13.236H12.9692C12.7785 13.236 12.5957 13.1603 12.4609 13.0255C12.3261 12.8907 12.2504 12.7079 12.2504 12.5173C12.2504 12.3267 12.3261 12.1439 12.4609 12.0091C12.5957 11.8743 12.7785 11.7985 12.9692 11.7985H13.9275C14.1181 11.7985 14.3009 11.8743 14.4357 12.0091C14.5705 12.1439 14.6463 12.3267 14.6463 12.5173C14.6463 12.7079 14.5705 12.8907 14.4357 13.0255C14.3009 13.1603 14.1181 13.236 13.9275 13.236ZM17.4062 8.44437H1.59375V7.24646C1.59469 6.54697 1.83179 5.86829 2.26663 5.32039C2.70148 4.77249 3.30858 4.38747 3.98958 4.22771V5.32979C3.98958 5.52042 4.06531 5.70323 4.2001 5.83802C4.33489 5.97282 4.51771 6.04854 4.70833 6.04854C4.89896 6.04854 5.08177 5.97282 5.21657 5.83802C5.35136 5.70323 5.42708 5.52042 5.42708 5.32979V4.13188H13.5729V5.32979C13.5729 5.52042 13.6486 5.70323 13.7834 5.83802C13.9182 5.97282 14.101 6.04854 14.2917 6.04854C14.4823 6.04854 14.6651 5.97282 14.7999 5.83802C14.9347 5.70323 15.0104 5.52042 15.0104 5.32979V4.22771C15.6914 4.38747 16.2985 4.77249 16.7334 5.32039C17.1682 5.86829 17.4053 6.54697 17.4062 7.24646V8.44437Z" fill="#0770E3"/>
</svg>
