<svg width="71" height="71" viewBox="0 0 71 71" fill="none" xmlns="http://www.w3.org/2000/svg">
<g filter="url(#filter0_d_260_4423)">
<path fill-rule="evenodd" clip-rule="evenodd" d="M35.2739 58.5654C49.081 58.5654 60.2739 47.3725 60.2739 33.5654C60.2739 19.7583 49.081 8.56543 35.2739 8.56543C21.4668 8.56543 10.2739 19.7583 10.2739 33.5654C10.2739 47.3725 21.4668 58.5654 35.2739 58.5654Z" fill="white"/>
</g>
<path fill-rule="evenodd" clip-rule="evenodd" d="M39.7821 26.9763C39.2903 26.8225 38.7247 26.7199 38.2084 26.7199C37.569 26.7199 36.192 27.1559 36.192 28.0022V30.0282H39.4625V33.4391H36.192V42.8511H32.8969V33.4391H31.2739V30.0282H32.8969V28.3099C32.8969 25.7197 34.028 23.5654 36.7575 23.5654C37.692 23.5654 39.3641 23.6167 40.2739 23.9501L39.7821 26.9763Z" fill="#0770E3"/>
<defs>
<filter id="filter0_d_260_4423" x="0.273926" y="0.56543" width="70" height="70" filterUnits="userSpaceOnUse" color-interpolation-filters="sRGB">
<feFlood flood-opacity="0" result="BackgroundImageFix"/>
<feColorMatrix in="SourceAlpha" type="matrix" values="0 0 0 0 0 0 0 0 0 0 0 0 0 0 0 0 0 0 127 0" result="hardAlpha"/>
<feOffset dy="2"/>
<feGaussianBlur stdDeviation="5"/>
<feColorMatrix type="matrix" values="0 0 0 0 0 0 0 0 0 0 0 0 0 0 0 0 0 0 0.1 0"/>
<feBlend mode="normal" in2="BackgroundImageFix" result="effect1_dropShadow_260_4423"/>
<feBlend mode="normal" in="SourceGraphic" in2="effect1_dropShadow_260_4423" result="shape"/>
</filter>
</defs>
</svg>
