<svg width="901" height="1469" viewBox="0 0 901 1469" fill="none" xmlns="http://www.w3.org/2000/svg">
<path d="M158.599 1362.63L351.599 1216.64V1378.76L158.599 1437.64V1362.63Z" fill="#D9D9D9"/>
<path d="M741.599 1362.63L548.599 1216.64V1378.76L741.599 1437.64V1362.63Z" fill="#D9D9D9"/>
<path d="M303.414 1141.06L303.414 189.722C303.414 189.722 303.137 149.653 330.297 103.754C362.77 48.8816 401.38 24.1346 425.888 8.98253C433.068 4.54825 438.813 2.07637 444.777 0.831002C461.061 -2.5749 476.494 8.57684 476.494 8.57684C476.494 8.57684 538.98 43.6548 569.281 99.2721C599.581 154.889 598.796 189.722 598.796 189.722V523.642L598.796 1129.29C598.796 1277.73 562.676 1468.69 453.089 1468.69C341.796 1468.69 309.328 1283.55 303.414 1141.06Z" fill="white"/>
<path d="M395 110.72L389.261 123.387L365.227 118.265C371.391 103.881 379.295 95.528 395 85.9077C395.352 93.0539 394.969 101.57 395 110.72Z" fill="#2D2D2D"/>
<path d="M536.584 119.155L512.54 124.276L506.801 111.599C506.842 102.449 506.459 93.9333 506.801 86.7974C522.506 96.4074 530.42 104.77 536.584 119.155Z" fill="#282828"/>
<path d="M384.892 132.353C375.299 145.838 364.898 156.041 359.325 157.216C357.926 157.513 356.497 156.797 355.875 155.519C353.42 150.489 355.844 140.859 362.495 127.231L384.892 132.353Z" fill="#2D2D2D"/>
<path d="M546.33 156.684C545.709 157.962 544.279 158.678 542.87 158.381C537.307 157.206 526.906 147.003 517.303 133.518L539.711 128.396C546.361 142.024 548.775 151.654 546.33 156.684Z" fill="#2D2D2D"/>
<path d="M444.728 53.561V80.7861L404.845 104.648L403.747 80.7861L444.728 53.561Z" fill="#2D2D2D"/>
<path d="M498.338 80.7861L497.25 104.648L457.356 80.7861V53.561L498.338 80.7861Z" fill="#2D2D2D"/>
<path d="M0.598633 646.539L302.599 418.637V671.721L0.598633 763.637V646.539Z" fill="#D9D9D9"/>
<path d="M900.599 646.539L598.599 418.637V671.721L900.599 763.637V646.539Z" fill="#D9D9D9"/>
</svg>
