<svg width="1021" height="1529" viewBox="0 0 1021 1529" fill="none" xmlns="http://www.w3.org/2000/svg">
<path d="M191.842 1382.58L382.018 1236.73V1398.7L191.842 1457.52V1382.58Z" fill="#D9D9D9"/>
<path d="M766.822 1382.58L576.646 1236.73V1398.7L766.822 1457.52V1382.58Z" fill="#D9D9D9"/>
<path d="M334.317 1161.42L334.317 210.084C334.317 210.084 334.043 170.015 360.846 124.116C392.893 69.2439 430.997 44.4969 455.183 29.3448C462.269 24.9106 467.938 22.4387 473.824 21.1933C489.895 17.7874 505.125 28.9391 505.125 28.9391C505.125 28.9391 566.791 64.0172 596.694 119.634C626.596 175.252 625.822 210.084 625.822 210.084V544.005L625.822 1149.65C625.822 1298.09 590.176 1489.05 482.027 1489.05C372.195 1489.05 340.153 1303.91 334.317 1161.42Z" fill="white"/>
<path d="M35.6758 667.094L333.174 438.929V692.306L35.6758 784.328V667.094Z" fill="#D9D9D9"/>
<path d="M923.322 667.094L625.824 438.929V692.306L923.322 784.328V667.094Z" fill="#D9D9D9"/>
<path d="M424.701 131.083L419.037 143.75L395.318 138.628C401.401 124.243 409.202 115.891 424.701 106.271C425.048 113.417 424.67 121.933 424.701 131.083Z" fill="#2D2D2D"/>
<path d="M564.426 139.517L540.698 144.639L535.034 131.962C535.075 122.812 534.696 114.296 535.034 107.16C550.533 116.77 558.343 125.133 564.426 139.517Z" fill="#282828"/>
<path d="M414.725 152.716C405.258 166.2 394.994 176.403 389.493 177.579C388.113 177.876 386.702 177.16 386.089 175.882C383.666 170.852 386.058 161.222 392.622 147.594L414.725 152.716Z" fill="#2D2D2D"/>
<path d="M574.045 177.047C573.431 178.325 572.02 179.041 570.63 178.744C565.14 177.568 554.876 167.365 545.398 153.881L567.512 148.759C574.075 162.387 576.457 172.017 574.045 177.047Z" fill="#2D2D2D"/>
<path d="M473.776 73.9238V101.149L434.416 125.01L433.332 101.149L473.776 73.9238Z" fill="#2D2D2D"/>
<path d="M526.682 101.149L525.609 125.01L486.238 101.149V73.9238L526.682 101.149Z" fill="#2D2D2D"/>
</svg>
