<svg width="21" height="23" viewBox="0 0 21 23" fill="none" xmlns="http://www.w3.org/2000/svg">
<path d="M9.68385 2.95703C9.67982 2.95703 9.67599 2.95716 9.67181 2.95716C9.66793 2.95716 9.6639 2.95703 9.65987 2.95703C4.80931 2.95703 0.867624 5.69667 0.864563 9.0642C0.864563 9.14401 0.936553 9.20985 1.02849 9.2141C1.079 9.21666 1.13354 9.20008 1.16829 9.169C1.81191 8.59417 2.67446 8.27752 3.59717 8.27752C4.51717 8.2781 5.37518 8.59143 6.01706 9.1598C6.08089 9.21627 6.18446 9.22016 6.25359 9.16856C7.20666 8.45793 8.41778 8.06095 9.67181 8.04507C10.9259 8.06095 12.1372 8.45793 13.0901 9.16856C13.1591 9.22016 13.2628 9.21627 13.3267 9.1598C13.9685 8.59138 14.8266 8.2781 15.7467 8.27752C16.669 8.27752 17.5318 8.59417 18.1756 9.169C18.2104 9.20004 18.2647 9.21662 18.3152 9.2141C18.407 9.20985 18.4791 9.14401 18.4791 9.0642C18.4759 5.69667 14.5344 2.95703 9.68385 2.95703Z" fill="url(#paint0_linear_1191_505)"/>
<path d="M9.67186 0.92627C9.67186 0.92627 9.67186 0.92627 9.67176 0.92627H9.67155C9.28997 0.92627 8.97961 1.19533 8.97961 1.52604V2.37285C8.97961 2.39355 8.98946 2.41305 9.00645 2.42724C9.02278 2.44055 9.044 2.44784 9.06625 2.44784C9.06768 2.44784 9.06926 2.44784 9.07063 2.4478C9.30528 2.43723 9.49206 2.43232 9.67171 2.43232C9.85145 2.43232 10.0382 2.43719 10.273 2.4478C10.2744 2.44784 10.2758 2.44784 10.2774 2.44784C10.2995 2.44784 10.3209 2.44055 10.3371 2.42724C10.3541 2.41305 10.3639 2.3935 10.3639 2.37285V1.52604C10.364 1.19533 10.0536 0.92627 9.67186 0.92627Z" fill="url(#paint1_linear_1191_505)"/>
<path d="M20.7332 13.816C20.6913 13.7575 20.6176 13.7222 20.5381 13.7222H19.3124C19.2246 13.7222 19.1447 13.7651 19.1062 13.8333L17.4992 16.6637H13.0647C12.9736 16.6637 12.891 16.7102 12.8543 16.7825L11.8555 18.5427H3.48402C3.35682 18.5427 3.25397 18.6318 3.25397 18.7419V19.698C3.25397 19.8081 3.35682 19.8971 3.48402 19.8971H5.33861L4.00647 22.3045C3.97065 22.3663 3.97417 22.4399 4.01626 22.4984C4.058 22.5572 4.13182 22.593 4.21182 22.593H5.43774C5.52448 22.593 5.60402 22.5505 5.64315 22.4832L7.07861 19.8972H15.8324L17.2683 22.4832C17.3073 22.5505 17.3866 22.593 17.4738 22.593H18.6994C18.7791 22.593 18.8533 22.5572 18.895 22.4984C18.937 22.4399 18.9408 22.3663 18.9049 22.3045L17.4579 19.8939L20.7444 14.0094C20.7793 13.9475 20.7751 13.8744 20.7332 13.816ZM16.9155 17.6988L16.4373 18.5427H13.1965L13.6701 17.6984L16.9155 17.6988Z" fill="url(#paint2_linear_1191_505)"/>
<path d="M9.67198 22.593C10.0537 22.593 10.364 22.324 10.364 21.9932V20.6473C10.364 20.6266 10.3542 20.607 10.3372 20.593C10.32 20.5788 10.2978 20.5724 10.2731 20.5724C9.67198 20.5724 9.79361 20.5721 9.07086 20.5721C9.06948 20.5721 9.0681 20.572 9.06647 20.572C9.04423 20.572 9.0231 20.5793 9.00688 20.5925C8.98984 20.6068 8.98004 20.6264 8.98004 20.647V21.9932C8.98009 22.324 9.2904 22.593 9.67198 22.593Z" fill="url(#paint3_linear_1191_505)"/>
<path d="M10.2767 8.76513C9.97943 8.70018 9.36295 8.69974 9.0655 8.76757C9.02402 8.77703 8.98004 8.79954 8.98004 8.84336V17.793C8.98004 17.8344 9.01882 17.8679 9.06647 17.8679H10.2775C10.3253 17.8679 10.3639 17.8344 10.3639 17.793V8.84336C10.364 8.79803 10.3179 8.77411 10.2767 8.76513Z" fill="url(#paint4_linear_1191_505)"/>
<defs>
<linearGradient id="paint0_linear_1191_505" x1="0.864563" y1="6.0857" x2="18.4791" y2="6.0857" gradientUnits="userSpaceOnUse">
<stop stop-color="#0087E1"/>
<stop offset="1" stop-color="#174495"/>
</linearGradient>
<linearGradient id="paint1_linear_1191_505" x1="8.97961" y1="1.68706" x2="10.3639" y2="1.68706" gradientUnits="userSpaceOnUse">
<stop stop-color="#0087E1"/>
<stop offset="1" stop-color="#174495"/>
</linearGradient>
<linearGradient id="paint2_linear_1191_505" x1="3.25397" y1="18.1576" x2="20.7679" y2="18.1576" gradientUnits="userSpaceOnUse">
<stop stop-color="#0087E1"/>
<stop offset="1" stop-color="#174495"/>
</linearGradient>
<linearGradient id="paint3_linear_1191_505" x1="8.98004" y1="21.5825" x2="10.364" y2="21.5825" gradientUnits="userSpaceOnUse">
<stop stop-color="#0087E1"/>
<stop offset="1" stop-color="#174495"/>
</linearGradient>
<linearGradient id="paint4_linear_1191_505" x1="8.98004" y1="13.2922" x2="10.3639" y2="13.2922" gradientUnits="userSpaceOnUse">
<stop stop-color="#0087E1"/>
<stop offset="1" stop-color="#174495"/>
</linearGradient>
</defs>
</svg>
