<svg width="21" height="22" viewBox="0 0 21 22" fill="none" xmlns="http://www.w3.org/2000/svg">
<path d="M9.36787 2.05664C9.36384 2.05664 9.36001 2.05677 9.35583 2.05677C9.35195 2.05677 9.34792 2.05664 9.34389 2.05664C4.49333 2.05664 0.551645 4.79628 0.548584 8.16381C0.548584 8.24362 0.620574 8.30946 0.712512 8.31371C0.763023 8.31627 0.817564 8.29969 0.852308 8.26861C1.49593 7.69378 2.35848 7.37713 3.28119 7.37713C4.20119 7.37771 5.0592 7.69104 5.70108 8.25941C5.76491 8.31588 5.86848 8.31977 5.93762 8.26816C6.89068 7.55754 8.1018 7.16056 9.35583 7.14468C10.61 7.16056 11.8212 7.55754 12.7741 8.26816C12.8431 8.31977 12.9468 8.31588 13.0107 8.25941C13.6525 7.69099 14.5106 7.37771 15.4307 7.37713C16.353 7.37713 17.2158 7.69378 17.8596 8.26861C17.8944 8.29965 17.9487 8.31623 17.9992 8.31371C18.091 8.30946 18.1631 8.24362 18.1631 8.16381C18.1599 4.79628 14.2184 2.05664 9.36787 2.05664Z" fill="#B7B7B7"/>
<path d="M9.35588 0.0257568C9.35588 0.0257568 9.35588 0.0257568 9.35578 0.0257568H9.35557C8.97399 0.0257568 8.66364 0.294821 8.66364 0.625526V1.47234C8.66364 1.49303 8.67348 1.51253 8.69047 1.52673C8.7068 1.54004 8.72802 1.54733 8.75027 1.54733C8.7517 1.54733 8.75328 1.54733 8.75466 1.54729C8.9893 1.53672 9.17608 1.53181 9.35573 1.53181C9.53547 1.53181 9.72226 1.53668 9.95705 1.54729C9.95843 1.54733 9.95986 1.54733 9.96144 1.54733C9.98353 1.54733 10.005 1.54004 10.0211 1.52673C10.0381 1.51253 10.0479 1.49299 10.0479 1.47234V0.625526C10.048 0.294821 9.73767 0.0257568 9.35588 0.0257568Z" fill="#B7B7B7"/>
<path d="M20.4172 12.9155C20.3753 12.857 20.3016 12.8216 20.2221 12.8216H18.9965C18.9087 12.8216 18.8288 12.8646 18.7902 12.9328L17.1832 15.7631H12.7488C12.6576 15.7631 12.575 15.8096 12.5383 15.8819L11.5396 17.6422H3.16804C3.04085 17.6422 2.93799 17.7312 2.93799 17.8414V18.7974C2.93799 18.9075 3.04085 18.9966 3.16804 18.9966H5.02263L3.69049 21.4039C3.65467 21.4657 3.65819 21.5393 3.70028 21.5978C3.74202 21.6566 3.81585 21.6925 3.89585 21.6925H5.12176C5.2085 21.6925 5.28804 21.65 5.32717 21.5827L6.76263 18.9966H15.5165L16.9523 21.5827C16.9913 21.65 17.0706 21.6925 17.1578 21.6925H18.3834C18.4631 21.6925 18.5373 21.6566 18.5791 21.5978C18.621 21.5393 18.6248 21.4658 18.5889 21.4039L17.1419 18.9933L20.4284 13.1088C20.4633 13.0469 20.4592 12.9738 20.4172 12.9155ZM16.5996 16.7983L16.1214 17.6421H12.8805L13.3542 16.7978L16.5996 16.7983Z" fill="#B7B7B7"/>
<path d="M9.356 21.6924C9.73768 21.6924 10.048 21.4234 10.048 21.0926V19.7467C10.048 19.7261 10.0382 19.7065 10.0212 19.6924C10.004 19.6782 9.98187 19.6718 9.95712 19.6718C9.356 19.6718 9.47763 19.6715 8.75488 19.6715C8.7535 19.6715 8.75212 19.6714 8.75049 19.6714C8.72825 19.6714 8.70712 19.6787 8.6909 19.692C8.67386 19.7062 8.66406 19.7258 8.66406 19.7464V21.0926C8.66411 21.4234 8.97442 21.6924 9.356 21.6924Z" fill="#B7B7B7"/>
<path d="M9.9607 7.86468C9.66345 7.79973 9.04697 7.79928 8.74952 7.86711C8.70804 7.87658 8.66406 7.89908 8.66406 7.9429V16.8925C8.66406 16.934 8.70284 16.9674 8.75049 16.9674H9.96151C10.0094 16.9674 10.0479 16.9339 10.0479 16.8925V7.9429C10.048 7.89758 10.002 7.87366 9.9607 7.86468Z" fill="#B7B7B7"/>
</svg>
