<svg width="20" height="18" viewBox="0 0 20 18" fill="none" xmlns="http://www.w3.org/2000/svg">
<path d="M0.864563 1.95544C0.864563 1.38618 1.39523 0.92627 2.05206 0.92627H18.6771C19.3339 0.92627 19.8646 1.38618 19.8646 1.95544C19.8646 2.52469 19.3339 2.9846 18.6771 2.9846V15.3346C19.3339 15.3346 19.8646 15.7945 19.8646 16.3638C19.8646 16.933 19.3339 17.3929 18.6771 17.3929H12.1458V15.8492C12.1458 14.9969 11.348 14.3054 10.3646 14.3054C9.38116 14.3054 8.58331 14.9969 8.58331 15.8492V17.3929H2.05206C1.39523 17.3929 0.864563 16.933 0.864563 16.3638C0.864563 15.7945 1.39523 15.3346 2.05206 15.3346V2.9846C1.39523 2.9846 0.864563 2.52469 0.864563 1.95544ZM4.42706 4.52835V5.55752C4.42706 5.84054 4.69425 6.0721 5.02081 6.0721H6.20831C6.53488 6.0721 6.80206 5.84054 6.80206 5.55752V4.52835C6.80206 4.24533 6.53488 4.01377 6.20831 4.01377H5.02081C4.69425 4.01377 4.42706 4.24533 4.42706 4.52835ZM9.77081 4.01377C9.44425 4.01377 9.17706 4.24533 9.17706 4.52835V5.55752C9.17706 5.84054 9.44425 6.0721 9.77081 6.0721H10.9583C11.2849 6.0721 11.5521 5.84054 11.5521 5.55752V4.52835C11.5521 4.24533 11.2849 4.01377 10.9583 4.01377H9.77081ZM13.9271 4.52835V5.55752C13.9271 5.84054 14.1943 6.0721 14.5208 6.0721H15.7083C16.0349 6.0721 16.3021 5.84054 16.3021 5.55752V4.52835C16.3021 4.24533 16.0349 4.01377 15.7083 4.01377H14.5208C14.1943 4.01377 13.9271 4.24533 13.9271 4.52835ZM5.02081 7.10127C4.69425 7.10127 4.42706 7.33283 4.42706 7.61585V8.64502C4.42706 8.92804 4.69425 9.1596 5.02081 9.1596H6.20831C6.53488 9.1596 6.80206 8.92804 6.80206 8.64502V7.61585C6.80206 7.33283 6.53488 7.10127 6.20831 7.10127H5.02081ZM9.17706 7.61585V8.64502C9.17706 8.92804 9.44425 9.1596 9.77081 9.1596H10.9583C11.2849 9.1596 11.5521 8.92804 11.5521 8.64502V7.61585C11.5521 7.33283 11.2849 7.10127 10.9583 7.10127H9.77081C9.44425 7.10127 9.17706 7.33283 9.17706 7.61585ZM14.5208 7.10127C14.1943 7.10127 13.9271 7.33283 13.9271 7.61585V8.64502C13.9271 8.92804 14.1943 9.1596 14.5208 9.1596H15.7083C16.0349 9.1596 16.3021 8.92804 16.3021 8.64502V7.61585C16.3021 7.33283 16.0349 7.10127 15.7083 7.10127H14.5208ZM13.0364 13.2763C13.53 13.2763 13.9382 12.9257 13.8157 12.5108C13.4224 11.1761 12.0271 10.1888 10.3646 10.1888C8.70206 10.1888 7.30304 11.1761 6.91339 12.5108C6.79093 12.9225 7.20284 13.2763 7.69269 13.2763H13.0364Z" fill="url(#paint0_linear_1191_501)"/>
<defs>
<linearGradient id="paint0_linear_1191_501" x1="0.864563" y1="9.1596" x2="19.8646" y2="9.1596" gradientUnits="userSpaceOnUse">
<stop stop-color="#0087E1"/>
<stop offset="1" stop-color="#174495"/>
</linearGradient>
</defs>
</svg>
