<svg width="19" height="17" viewBox="0 0 19 17" fill="none" xmlns="http://www.w3.org/2000/svg">
<path d="M0 1.05492C0 0.485666 0.530664 0.0257568 1.1875 0.0257568H17.8125C18.4693 0.0257568 19 0.485666 19 1.05492C19 1.62418 18.4693 2.08409 17.8125 2.08409V14.4341C18.4693 14.4341 19 14.894 19 15.4633C19 16.0325 18.4693 16.4924 17.8125 16.4924H11.2812V14.9487C11.2812 14.0964 10.4834 13.4049 9.5 13.4049C8.5166 13.4049 7.71875 14.0964 7.71875 14.9487V16.4924H1.1875C0.530664 16.4924 0 16.0325 0 15.4633C0 14.894 0.530664 14.4341 1.1875 14.4341V2.08409C0.530664 2.08409 0 1.62418 0 1.05492ZM3.5625 3.62784V4.65701C3.5625 4.94003 3.82969 5.17159 4.15625 5.17159H5.34375C5.67031 5.17159 5.9375 4.94003 5.9375 4.65701V3.62784C5.9375 3.34482 5.67031 3.11326 5.34375 3.11326H4.15625C3.82969 3.11326 3.5625 3.34482 3.5625 3.62784ZM8.90625 3.11326C8.57969 3.11326 8.3125 3.34482 8.3125 3.62784V4.65701C8.3125 4.94003 8.57969 5.17159 8.90625 5.17159H10.0938C10.4203 5.17159 10.6875 4.94003 10.6875 4.65701V3.62784C10.6875 3.34482 10.4203 3.11326 10.0938 3.11326H8.90625ZM13.0625 3.62784V4.65701C13.0625 4.94003 13.3297 5.17159 13.6562 5.17159H14.8438C15.1703 5.17159 15.4375 4.94003 15.4375 4.65701V3.62784C15.4375 3.34482 15.1703 3.11326 14.8438 3.11326H13.6562C13.3297 3.11326 13.0625 3.34482 13.0625 3.62784ZM4.15625 6.20076C3.82969 6.20076 3.5625 6.43232 3.5625 6.71534V7.74451C3.5625 8.02753 3.82969 8.25909 4.15625 8.25909H5.34375C5.67031 8.25909 5.9375 8.02753 5.9375 7.74451V6.71534C5.9375 6.43232 5.67031 6.20076 5.34375 6.20076H4.15625ZM8.3125 6.71534V7.74451C8.3125 8.02753 8.57969 8.25909 8.90625 8.25909H10.0938C10.4203 8.25909 10.6875 8.02753 10.6875 7.74451V6.71534C10.6875 6.43232 10.4203 6.20076 10.0938 6.20076H8.90625C8.57969 6.20076 8.3125 6.43232 8.3125 6.71534ZM13.6562 6.20076C13.3297 6.20076 13.0625 6.43232 13.0625 6.71534V7.74451C13.0625 8.02753 13.3297 8.25909 13.6562 8.25909H14.8438C15.1703 8.25909 15.4375 8.02753 15.4375 7.74451V6.71534C15.4375 6.43232 15.1703 6.20076 14.8438 6.20076H13.6562ZM12.1719 12.3758C12.6654 12.3758 13.0736 12.0252 12.9512 11.6103C12.5578 10.2756 11.1625 9.28826 9.5 9.28826C7.8375 9.28826 6.43848 10.2756 6.04883 11.6103C5.92637 12.022 6.33828 12.3758 6.82812 12.3758H12.1719Z" fill="#B7B7B7"/>
</svg>

