<svg width="12" height="12" viewBox="0 0 12 12" fill="none" xmlns="http://www.w3.org/2000/svg">
<path d="M5.70856 11.8599C2.67689 11.8577 0.208712 9.38809 0.209961 6.35814C0.211211 3.32725 2.68158 0.8583 5.71137 0.859864C8.74365 0.861428 11.2112 3.33038 11.21 6.36127C11.2087 9.39247 8.73772 11.8621 5.70856 11.8599ZM4.96017 7.61374C4.96017 8.10528 4.95892 8.59713 4.96048 9.08867C4.96142 9.38309 5.15913 9.5946 5.45087 9.60836C5.62204 9.6165 5.79445 9.61618 5.96593 9.60868C6.25423 9.59585 6.45819 9.38778 6.45882 9.10337C6.461 8.10841 6.461 7.11313 6.45882 6.11816C6.45819 5.8228 6.24298 5.61411 5.94532 5.61067C5.79695 5.60879 5.64858 5.60973 5.50053 5.61035C5.16632 5.61161 4.9611 5.81654 4.96048 6.1507C4.95954 6.63817 4.96017 7.12596 4.96017 7.61374ZM6.58188 3.98743C6.58282 3.50122 6.18895 3.10636 5.70606 3.1098C5.22566 3.11324 4.83898 3.50215 4.83804 3.98337C4.8371 4.46583 5.22223 4.85631 5.702 4.85975C6.18864 4.8635 6.58095 4.47428 6.58188 3.98743Z" fill="#7d7d7d"/>
</svg>
