<svg width="38" height="26" viewBox="0 0 38 26" fill="none" xmlns="http://www.w3.org/2000/svg">
<g clip-path="url(#clip0_16_1579)">
<path d="M-0.340576 22C-0.340576 23.0609 0.0808513 24.0783 0.830997 24.8284C1.58114 25.5786 2.59856 26 3.65942 26H31.6594C32.7203 26 33.7377 25.5786 34.4879 24.8284C35.238 24.0783 35.6594 23.0609 35.6594 22V17H-0.340576V22Z" fill="#019901"/>
<path d="M35.6594 9V4C35.6594 2.93913 35.238 1.92172 34.4879 1.17157C33.7377 0.421427 32.7203 0 31.6594 0H3.65942C2.59856 0 1.58114 0.421427 0.830997 1.17157C0.0808513 1.92172 -0.340576 2.93913 -0.340576 4L-0.340576 9H35.6594Z" fill="#F88D02"/>
<path d="M-0.340576 9H35.6594V17H-0.340576V9Z" fill="white"/>
<path d="M17.6594 17C19.8686 17 21.6594 15.2091 21.6594 13C21.6594 10.7909 19.8686 9 17.6594 9C15.4503 9 13.6594 10.7909 13.6594 13C13.6594 15.2091 15.4503 17 17.6594 17Z" fill="#000080"/>
<path d="M17.6594 16C19.3163 16 20.6594 14.6569 20.6594 13C20.6594 11.3431 19.3163 10 17.6594 10C16.0026 10 14.6594 11.3431 14.6594 13C14.6594 14.6569 16.0026 16 17.6594 16Z" fill="#F7F7F7"/>
<path d="M17.7532 11.8281L17.6594 12.4375L17.5657 11.8281L17.6594 10L17.7532 11.8281ZM16.8832 10.1022L17.2657 11.8919L17.5141 12.4562L17.4466 11.8441L16.8832 10.1022ZM16.1594 10.4022L16.9919 12.0316L17.3782 12.5125L17.155 11.9378L16.1594 10.4022ZM15.5379 10.8784L16.7641 12.2378L17.2619 12.6025L16.8972 12.1047L15.5379 10.8784ZM15.0616 11.5L16.5972 12.4956L17.1719 12.7188L16.691 12.3325L15.0616 11.5ZM14.7616 12.2238L16.5035 12.7872L17.1157 12.8547L16.5513 12.6062L14.7616 12.2238ZM14.6594 13L16.4875 13.0938L17.0969 13L16.4875 12.9062L14.6594 13ZM14.7616 13.7762L16.5513 13.3937L17.1157 13.1453L16.5035 13.2128L14.7616 13.7762ZM15.0616 14.5L16.691 13.6675L17.1719 13.2812L16.5972 13.5044L15.0616 14.5ZM15.5379 15.1216L16.8972 13.8953L17.2619 13.3975L16.7641 13.7622L15.5379 15.1216ZM16.1594 15.5978L17.155 14.0622L17.3782 13.4875L16.9919 13.9684L16.1594 15.5978ZM16.8832 15.8978L17.4466 14.1559L17.5141 13.5437L17.2657 14.1081L16.8832 15.8978ZM17.6594 16L17.7532 14.1719L17.6594 13.5625L17.5657 14.1719L17.6594 16ZM18.4357 15.8978L18.0532 14.1081L17.8047 13.5437L17.8722 14.1559L18.4357 15.8978ZM19.1594 15.5978L18.3269 13.9684L17.9407 13.4875L18.1638 14.0622L19.1594 15.5978ZM19.781 15.1216L18.5547 13.7622L18.0569 13.3975L18.4216 13.8953L19.781 15.1216ZM20.2572 14.5L18.7216 13.5044L18.1469 13.2812L18.6279 13.6675L20.2572 14.5ZM20.5572 13.7762L18.8154 13.2128L18.2032 13.1453L18.7675 13.3937L20.5572 13.7762ZM20.6594 13L18.8313 12.9062L18.2219 13L18.8313 13.0938L20.6594 13ZM20.5572 12.2238L18.7675 12.6062L18.2032 12.8547L18.8154 12.7872L20.5572 12.2238ZM20.2572 11.5L18.6279 12.3325L18.1469 12.7188L18.7216 12.4956L20.2572 11.5ZM19.781 10.8784L18.4216 12.1047L18.0569 12.6025L18.5547 12.2378L19.781 10.8784ZM19.1594 10.4022L18.1638 11.9378L17.9407 12.5125L18.3269 12.0316L19.1594 10.4022ZM18.4357 10.1022L17.8722 11.8441L17.8047 12.4562L18.0532 11.8919L18.4357 10.1022Z" fill="#6666B3"/>
<path d="M17.2194 9.97007C17.3299 9.97007 17.4194 9.88053 17.4194 9.77007C17.4194 9.65961 17.3299 9.57007 17.2194 9.57007C17.109 9.57007 17.0194 9.65961 17.0194 9.77007C17.0194 9.88053 17.109 9.97007 17.2194 9.97007Z" fill="#000080"/>
<path d="M16.3694 10.1981C16.4799 10.1981 16.5694 10.1086 16.5694 9.9981C16.5694 9.88764 16.4799 9.7981 16.3694 9.7981C16.259 9.7981 16.1694 9.88764 16.1694 9.9981C16.1694 10.1086 16.259 10.1981 16.3694 10.1981Z" fill="#000080"/>
<path d="M15.6073 10.6371C15.7178 10.6371 15.8073 10.5475 15.8073 10.4371C15.8073 10.3266 15.7178 10.2371 15.6073 10.2371C15.4969 10.2371 15.4073 10.3266 15.4073 10.4371C15.4073 10.5475 15.4969 10.6371 15.6073 10.6371Z" fill="#000080"/>
<path d="M14.9854 11.259C15.0959 11.259 15.1854 11.1695 15.1854 11.059C15.1854 10.9486 15.0959 10.859 14.9854 10.859C14.8749 10.859 14.7854 10.9486 14.7854 11.059C14.7854 11.1695 14.8749 11.259 14.9854 11.259Z" fill="#000080"/>
<path d="M14.5463 12.0211C14.6568 12.0211 14.7463 11.9315 14.7463 11.8211C14.7463 11.7106 14.6568 11.6211 14.5463 11.6211C14.4359 11.6211 14.3463 11.7106 14.3463 11.8211C14.3463 11.9315 14.4359 12.0211 14.5463 12.0211Z" fill="#000080"/>
<path d="M14.3184 12.8711C14.4289 12.8711 14.5184 12.7815 14.5184 12.6711C14.5184 12.5606 14.4289 12.4711 14.3184 12.4711C14.208 12.4711 14.1184 12.5606 14.1184 12.6711C14.1184 12.7815 14.208 12.8711 14.3184 12.8711Z" fill="#000080"/>
<path d="M14.3184 13.7511C14.4289 13.7511 14.5184 13.6615 14.5184 13.5511C14.5184 13.4406 14.4289 13.3511 14.3184 13.3511C14.208 13.3511 14.1184 13.4406 14.1184 13.5511C14.1184 13.6615 14.208 13.7511 14.3184 13.7511Z" fill="#000080"/>
<path d="M14.5463 14.601C14.6568 14.601 14.7463 14.5115 14.7463 14.4011C14.7463 14.2906 14.6568 14.201 14.5463 14.201C14.4359 14.201 14.3463 14.2906 14.3463 14.4011C14.3463 14.5115 14.4359 14.601 14.5463 14.601Z" fill="#000080"/>
<path d="M14.9854 15.363C15.0959 15.363 15.1854 15.2735 15.1854 15.163C15.1854 15.0526 15.0959 14.963 14.9854 14.963C14.8749 14.963 14.7854 15.0526 14.7854 15.163C14.7854 15.2735 14.8749 15.363 14.9854 15.363Z" fill="#000080"/>
<path d="M15.6073 15.9851C15.7178 15.9851 15.8073 15.8955 15.8073 15.7851C15.8073 15.6746 15.7178 15.5851 15.6073 15.5851C15.4969 15.5851 15.4073 15.6746 15.4073 15.7851C15.4073 15.8955 15.4969 15.9851 15.6073 15.9851Z" fill="#000080"/>
<path d="M16.3694 16.424C16.4799 16.424 16.5694 16.3345 16.5694 16.224C16.5694 16.1136 16.4799 16.024 16.3694 16.024C16.259 16.024 16.1694 16.1136 16.1694 16.224C16.1694 16.3345 16.259 16.424 16.3694 16.424Z" fill="#000080"/>
<path d="M17.2194 16.6521C17.3299 16.6521 17.4194 16.5625 17.4194 16.4521C17.4194 16.3416 17.3299 16.2521 17.2194 16.2521C17.109 16.2521 17.0194 16.3416 17.0194 16.4521C17.0194 16.5625 17.109 16.6521 17.2194 16.6521Z" fill="#000080"/>
<path d="M18.0995 16.6521C18.21 16.6521 18.2995 16.5625 18.2995 16.4521C18.2995 16.3416 18.21 16.2521 18.0995 16.2521C17.9891 16.2521 17.8995 16.3416 17.8995 16.4521C17.8995 16.5625 17.9891 16.6521 18.0995 16.6521Z" fill="#000080"/>
<path d="M18.9494 16.424C19.0598 16.424 19.1494 16.3345 19.1494 16.224C19.1494 16.1136 19.0598 16.024 18.9494 16.024C18.8389 16.024 18.7494 16.1136 18.7494 16.224C18.7494 16.3345 18.8389 16.424 18.9494 16.424Z" fill="#000080"/>
<path d="M19.7115 15.9851C19.8219 15.9851 19.9115 15.8955 19.9115 15.7851C19.9115 15.6746 19.8219 15.5851 19.7115 15.5851C19.601 15.5851 19.5115 15.6746 19.5115 15.7851C19.5115 15.8955 19.601 15.9851 19.7115 15.9851Z" fill="#000080"/>
<path d="M20.3333 15.363C20.4438 15.363 20.5333 15.2735 20.5333 15.163C20.5333 15.0526 20.4438 14.963 20.3333 14.963C20.2228 14.963 20.1333 15.0526 20.1333 15.163C20.1333 15.2735 20.2228 15.363 20.3333 15.363Z" fill="#000080"/>
<path d="M20.7724 14.601C20.8828 14.601 20.9724 14.5115 20.9724 14.4011C20.9724 14.2906 20.8828 14.201 20.7724 14.201C20.6619 14.201 20.5724 14.2906 20.5724 14.4011C20.5724 14.5115 20.6619 14.601 20.7724 14.601Z" fill="#000080"/>
<path d="M21.0005 13.7511C21.111 13.7511 21.2005 13.6615 21.2005 13.5511C21.2005 13.4406 21.111 13.3511 21.0005 13.3511C20.8901 13.3511 20.8005 13.4406 20.8005 13.5511C20.8005 13.6615 20.8901 13.7511 21.0005 13.7511Z" fill="#000080"/>
<path d="M21.0005 12.8711C21.111 12.8711 21.2005 12.7815 21.2005 12.6711C21.2005 12.5606 21.111 12.4711 21.0005 12.4711C20.8901 12.4711 20.8005 12.5606 20.8005 12.6711C20.8005 12.7815 20.8901 12.8711 21.0005 12.8711Z" fill="#000080"/>
<path d="M20.7724 12.0211C20.8828 12.0211 20.9724 11.9315 20.9724 11.8211C20.9724 11.7106 20.8828 11.6211 20.7724 11.6211C20.6619 11.6211 20.5724 11.7106 20.5724 11.8211C20.5724 11.9315 20.6619 12.0211 20.7724 12.0211Z" fill="#000080"/>
<path d="M20.3333 11.259C20.4438 11.259 20.5333 11.1695 20.5333 11.059C20.5333 10.9486 20.4438 10.859 20.3333 10.859C20.2228 10.859 20.1333 10.9486 20.1333 11.059C20.1333 11.1695 20.2228 11.259 20.3333 11.259Z" fill="#000080"/>
<path d="M19.7115 10.6371C19.8219 10.6371 19.9115 10.5475 19.9115 10.4371C19.9115 10.3266 19.8219 10.2371 19.7115 10.2371C19.601 10.2371 19.5115 10.3266 19.5115 10.4371C19.5115 10.5475 19.601 10.6371 19.7115 10.6371Z" fill="#000080"/>
<path d="M18.9494 10.1981C19.0598 10.1981 19.1494 10.1086 19.1494 9.9981C19.1494 9.88764 19.0598 9.7981 18.9494 9.7981C18.8389 9.7981 18.7494 9.88764 18.7494 9.9981C18.7494 10.1086 18.8389 10.1981 18.9494 10.1981Z" fill="#000080"/>
<path d="M18.0995 9.97007C18.21 9.97007 18.2995 9.88053 18.2995 9.77007C18.2995 9.65961 18.21 9.57007 18.0995 9.57007C17.9891 9.57007 17.8995 9.65961 17.8995 9.77007C17.8995 9.88053 17.9891 9.97007 18.0995 9.97007Z" fill="#000080"/>
<path d="M17.6593 14.0111C18.1563 14.0111 18.5593 13.6081 18.5593 13.1111C18.5593 12.614 18.1563 12.2111 17.6593 12.2111C17.1622 12.2111 16.7593 12.614 16.7593 13.1111C16.7593 13.6081 17.1622 14.0111 17.6593 14.0111Z" fill="#000080"/>
</g>
<defs>
<clipPath id="clip0_16_1579">
<rect width="36.8801" height="26" fill="white" transform="translate(0.22168)"/>
</clipPath>
</defs>
</svg>
