<svg width="70" height="70" viewBox="0 0 70 70" fill="none" xmlns="http://www.w3.org/2000/svg">
<g filter="url(#filter0_d_260_4414)">
<path fill-rule="evenodd" clip-rule="evenodd" d="M34.7739 57.5654C48.3049 57.5654 59.2739 46.5964 59.2739 33.0654C59.2739 19.5345 48.3049 8.56543 34.7739 8.56543C21.2429 8.56543 10.2739 19.5345 10.2739 33.0654C10.2739 46.5964 21.2429 57.5654 34.7739 57.5654Z" fill="white"/>
</g>
<path d="M40.2598 21.2642H29.2882C25.7174 21.2642 22.8124 24.1691 22.8124 27.7398V38.7114C22.8124 42.2819 25.7174 45.1868 29.2882 45.1868H40.26C43.8306 45.1868 46.7356 42.2819 46.7356 38.7114V27.7398C46.7356 24.1691 43.8306 21.2642 40.2598 21.2642V21.2642ZM45.3331 38.7114C45.3331 41.5086 43.0573 43.7844 40.2598 43.7844H29.2882C26.4907 43.7844 24.2149 41.5086 24.2149 38.7114V27.7398C24.2149 24.9424 26.4907 22.6666 29.2882 22.6666H40.26C43.0573 22.6666 45.3331 24.9424 45.3331 27.7398V38.7114Z" fill="#0770E3"/>
<path d="M34.774 26.6841C31.1671 26.6841 28.2328 29.6184 28.2328 33.2252C28.2328 36.8321 31.1671 39.7664 34.774 39.7664C38.381 39.7664 41.3153 36.8321 41.3153 33.2252C41.3153 29.6184 38.381 26.6841 34.774 26.6841ZM34.774 38.364C31.9406 38.364 29.6353 36.0588 29.6353 33.2252C29.6353 30.3919 31.9406 28.0865 34.774 28.0865C37.6076 28.0865 39.9128 30.3919 39.9128 33.2252C39.9128 36.0588 37.6076 38.364 34.774 38.364Z" fill="#0770E3"/>
<path d="M41.4719 24.3608C40.406 24.3608 39.5391 25.228 39.5391 26.2937C39.5391 27.3596 40.406 28.2267 41.4719 28.2267C42.5378 28.2267 43.4049 27.3596 43.4049 26.2937C43.4049 25.2278 42.5378 24.3608 41.4719 24.3608ZM41.4719 26.8241C41.1795 26.8241 40.9415 26.5861 40.9415 26.2937C40.9415 26.0011 41.1795 25.7633 41.4719 25.7633C41.7645 25.7633 42.0025 26.0011 42.0025 26.2937C42.0025 26.5861 41.7645 26.8241 41.4719 26.8241Z" fill="#0770E3"/>
<defs>
<filter id="filter0_d_260_4414" x="0.273926" y="0.56543" width="69" height="69" filterUnits="userSpaceOnUse" color-interpolation-filters="sRGB">
<feFlood flood-opacity="0" result="BackgroundImageFix"/>
<feColorMatrix in="SourceAlpha" type="matrix" values="0 0 0 0 0 0 0 0 0 0 0 0 0 0 0 0 0 0 127 0" result="hardAlpha"/>
<feOffset dy="2"/>
<feGaussianBlur stdDeviation="5"/>
<feColorMatrix type="matrix" values="0 0 0 0 0 0 0 0 0 0 0 0 0 0 0 0 0 0 0.1 0"/>
<feBlend mode="normal" in2="BackgroundImageFix" result="effect1_dropShadow_260_4414"/>
<feBlend mode="normal" in="SourceGraphic" in2="effect1_dropShadow_260_4414" result="shape"/>
</filter>
</defs>
</svg>
