<svg width="47" height="47" viewBox="0 0 47 47" fill="none" xmlns="http://www.w3.org/2000/svg">
<circle cx="23.0556" cy="23.0556" r="23.0556" transform="matrix(-1 0 0 1 46.8889 0.732422)" fill="#FEFCFB"/>
<circle cx="23.0556" cy="23.0556" r="22.4792" transform="matrix(-1 0 0 1 46.8889 0.732422)" stroke="#999999" stroke-opacity="0.5" stroke-width="1.15278"/>
<path d="M13.796 22.9728C13.3458 23.423 13.3458 24.1529 13.796 24.6031L21.1323 31.9393C21.5824 32.3895 22.3123 32.3895 22.7625 31.9393C23.2127 31.4891 23.2127 30.7592 22.7625 30.3091L16.2414 23.788L22.7625 17.2669C23.2127 16.8167 23.2127 16.0868 22.7625 15.6366C22.3123 15.1864 21.5824 15.1864 21.1323 15.6366L13.796 22.9728ZM33.0556 22.6352L14.6112 22.6352L14.6112 24.9407L33.0556 24.9407L33.0556 22.6352Z" fill="#999999" fill-opacity="0.5"/>
</svg>
