<svg width="155" height="64" viewBox="0 0 155 64" fill="none" xmlns="http://www.w3.org/2000/svg">
<path d="M62.1099 12.2876C61.8735 12.4894 61.6486 12.6847 61.4179 12.8802C61.2564 13.0189 61.0881 13.1399 60.8816 13.2089C60.7104 13.2644 60.5939 13.2039 60.5911 13.0069C60.5861 12.7622 60.6656 12.5316 60.7454 12.3069C60.8308 12.0761 60.9345 11.8504 61.0322 11.625C61.0537 11.5702 61.0404 11.541 60.9913 11.5133C60.7645 11.398 60.5435 11.2765 60.3224 11.1549C60.2364 11.105 60.1446 11.0613 60.0528 11.0177C60.1238 10.8651 60.2011 10.7183 60.2601 10.5663C60.3137 10.4264 60.4148 10.41 60.5409 10.4163C60.7688 10.424 60.9902 10.42 61.2178 10.4218C61.3317 10.4226 61.4458 10.4295 61.5596 10.4303C61.5895 10.429 61.6427 10.4147 61.6536 10.3903C61.8707 10.0221 62.0755 9.64848 62.2985 9.28003C62.5665 8.84384 62.8406 8.41335 63.1148 7.98285C63.2992 7.68782 63.4898 7.39848 63.6799 7.09722C62.1577 6.53813 60.6295 5.97932 59.089 5.41507C59.2296 5.21162 59.3645 5.01439 59.4997 4.82313C59.5108 4.80471 59.5464 4.79714 59.5644 4.79633C59.8577 4.79513 60.1514 4.79989 60.4445 4.79273C60.7917 4.78912 61.1327 4.77981 61.4799 4.7762C61.7852 4.77447 62.0851 4.78492 62.3902 4.77722C62.6836 4.77602 62.9765 4.7629 63.2758 4.76143C63.4913 4.75775 63.7072 4.76599 63.9167 4.76258C64.1202 4.75944 64.3236 4.75629 64.5271 4.75315C64.7306 4.75 64.9341 4.74686 65.1381 4.75564C65.222 4.75785 65.2807 4.73132 65.3256 4.66359C65.523 4.39187 65.7142 4.11446 65.9304 3.85982C66.1066 3.64879 66.3327 3.48333 66.5846 3.35852C66.7428 3.27974 66.8942 3.18334 67.0594 3.12814C67.2779 3.05861 67.5145 2.99423 67.7304 3.13392C67.8167 3.18979 67.9044 3.27547 67.9505 3.369C68.0693 3.6146 68.0754 3.88317 68.0214 4.14846C67.9783 4.38937 67.9175 4.63704 67.8443 4.87332C67.7718 5.12749 67.6258 5.34314 67.4675 5.55336C67.3547 5.70778 67.2358 5.86247 67.1355 6.02827C67.1075 6.07135 67.1476 6.16514 67.1685 6.22992C67.2175 6.38903 67.2783 6.54164 67.3333 6.70048C67.3883 6.85932 67.4431 7.0122 67.4981 7.17105C67.5466 7.31823 67.5954 7.47138 67.6499 7.61829C67.7049 7.77713 67.7597 7.93001 67.8147 8.08886C67.8632 8.23604 67.912 8.38919 67.9605 8.53637C68.057 8.81882 68.1595 9.10099 68.256 9.38344C68.3043 9.52466 68.3525 9.66588 68.401 9.81307C68.4769 10.0367 68.5588 10.26 68.6347 10.4837C68.683 10.6249 68.7315 10.7721 68.7797 10.9133C68.8348 11.0721 68.8958 11.2307 68.9448 11.3898C68.9586 11.431 68.9496 11.4971 68.9273 11.534C68.8039 11.7188 68.6682 11.8981 68.527 12.0896C67.4889 10.8397 66.4567 9.58954 65.4182 8.33367C65.3048 8.47616 65.1914 8.61866 65.078 8.76115C64.8284 9.07105 64.5851 9.38665 64.3354 9.69656C64.0858 10.0065 63.8362 10.3164 63.5806 10.6265C63.393 10.85 63.1991 11.0678 63.0113 11.2853C62.9542 11.3476 62.9443 11.3959 62.9839 11.4777C63.0433 11.6005 63.0851 11.7301 63.1268 11.8597C63.2027 12.0833 63.2849 12.3126 63.3548 12.5365C63.3618 12.5601 63.352 12.6083 63.3349 12.627C63.1976 12.7706 63.0481 12.9087 62.9276 13.0276C62.6711 12.7822 62.3904 12.5319 62.1099 12.2876Z" fill="#F8991C"/>
<path d="M65.6486 41.7842V27.6058H61.2557V24.468H73.5746V27.6058H69.2514V41.7842H65.6486ZM74.8938 41.7842V24.468H81.5182C82.7113 24.468 83.765 24.6772 84.6792 25.0955C85.609 25.5139 86.3373 26.1337 86.8641 26.955C87.3909 27.7763 87.6544 28.7912 87.6544 29.9999C87.6544 31.1775 87.3832 32.1847 86.8409 33.0215C86.2985 33.8427 85.5702 34.4626 84.656 34.8809L88.6073 41.7842H84.563L80.2863 34.1372L82.6106 35.5085H78.4965V41.7842H74.8938ZM78.4965 32.3707H81.5414C82.0528 32.3707 82.4944 32.2699 82.8663 32.0685C83.2382 31.8671 83.5248 31.5881 83.7263 31.2317C83.9432 30.8753 84.0517 30.4647 84.0517 29.9999C84.0517 29.5195 83.9432 29.1011 83.7263 28.7447C83.5248 28.3883 83.2382 28.1094 82.8663 27.908C82.4944 27.7065 82.0528 27.6058 81.5414 27.6058H78.4965V32.3707ZM88.6536 41.7842L94.5109 24.468H99.2991L105.156 41.7842H101.228L100.066 38.2512H93.7207L92.5585 41.7842H88.6536ZM94.7201 35.1134H99.0666L96.4169 26.9317H97.3931L94.7201 35.1134ZM110.209 41.7842L104.282 24.468H108.233L112.696 38.3674H111.906L116.368 24.468H120.32L114.393 41.7842H110.209ZM121.643 41.7842V24.468H133.288V27.6058H125.245V31.5339H132.823V34.6717H125.245V38.6463H133.288V41.7842H121.643ZM134.865 41.7842V24.468H138.468V38.6463H145.789V41.7842H134.865Z" fill="#0770E3"/>
<path d="M65.12 62L61.22 47.1H64.58L67.52 59.58H66.62L69.72 47.1H72.92L76.02 59.58H75.12L78.06 47.1H81.42L77.52 62H73.92L70.8 50H71.84L68.72 62H65.12ZM82.5645 62V47.1H92.5845V49.8H85.6645V53.18H92.1845V55.88H85.6645V59.3H92.5845V62H82.5645ZM93.9419 62V47.1H100.242C101.269 47.1 102.149 47.2733 102.882 47.62C103.615 47.9667 104.175 48.4667 104.562 49.12C104.949 49.76 105.142 50.54 105.142 51.46C105.142 52.1133 104.962 52.74 104.602 53.34C104.242 53.9267 103.649 54.42 102.822 54.82V53.3C103.609 53.6067 104.215 53.9733 104.642 54.4C105.069 54.8267 105.362 55.2933 105.522 55.8C105.682 56.2933 105.762 56.8133 105.762 57.36C105.762 58.8267 105.275 59.9667 104.302 60.78C103.329 61.5933 101.975 62 100.242 62H93.9419ZM97.0419 59.3H100.602C101.229 59.3 101.729 59.12 102.102 58.76C102.475 58.4 102.662 57.9333 102.662 57.36C102.662 56.7733 102.475 56.3 102.102 55.94C101.729 55.58 101.229 55.4 100.602 55.4H97.0419V59.3ZM97.0419 52.7H100.462C100.942 52.7 101.322 52.5667 101.602 52.3C101.895 52.02 102.042 51.6533 102.042 51.2C102.042 50.7467 101.895 50.3867 101.602 50.12C101.322 49.84 100.942 49.7 100.462 49.7H97.0419V52.7ZM112.77 62.24C111.837 62.24 110.957 62.0733 110.13 61.74C109.317 61.3933 108.61 60.9067 108.01 60.28C107.424 59.6533 106.984 58.9133 106.69 58.06L109.23 56.92C109.604 57.7333 110.117 58.3733 110.77 58.84C111.437 59.3067 112.17 59.54 112.97 59.54C113.397 59.54 113.764 59.4733 114.07 59.34C114.377 59.2067 114.617 59.0267 114.79 58.8C114.964 58.56 115.05 58.28 115.05 57.96C115.05 57.6133 114.944 57.32 114.73 57.08C114.517 56.8267 114.184 56.6267 113.73 56.48L110.81 55.52C109.624 55.1333 108.73 54.5867 108.13 53.88C107.53 53.16 107.23 52.3 107.23 51.3C107.23 50.42 107.444 49.6467 107.87 48.98C108.31 48.3133 108.917 47.7933 109.69 47.42C110.477 47.0467 111.377 46.86 112.39 46.86C113.284 46.86 114.11 47.0133 114.87 47.32C115.63 47.6267 116.284 48.06 116.83 48.62C117.39 49.18 117.81 49.8533 118.09 50.64L115.57 51.78C115.29 51.0867 114.87 50.5467 114.31 50.16C113.75 49.76 113.11 49.56 112.39 49.56C111.977 49.56 111.61 49.6267 111.29 49.76C110.97 49.8933 110.724 50.0867 110.55 50.34C110.377 50.58 110.29 50.86 110.29 51.18C110.29 51.5267 110.404 51.8333 110.63 52.1C110.857 52.3533 111.197 52.5533 111.65 52.7L114.51 53.62C115.71 54.0067 116.604 54.5467 117.19 55.24C117.79 55.9333 118.09 56.78 118.09 57.78C118.09 58.6467 117.864 59.42 117.41 60.1C116.957 60.7667 116.33 61.2933 115.53 61.68C114.744 62.0533 113.824 62.24 112.77 62.24ZM119.9 62V47.1H123V62H119.9ZM127.922 62V49.8H124.142V47.1H134.742V49.8H131.022V62H127.922ZM135.877 62V47.1H145.897V49.8H138.977V53.18H145.497V55.88H138.977V59.3H145.897V62H135.877Z" fill="#222222"/>
<g clip-path="url(#clip0_1606_18356)">
<path d="M32.3748 41.8675C31.1009 42.4103 29.8494 42.9863 28.5643 43.4848C24.1281 45.2018 19.5466 46.3096 14.8086 46.8413C13.9259 46.941 13.4901 46.6308 13.0319 46.0437C10.3277 42.6208 8.70741 38.7658 8.17104 34.4456C6.72954 23.0468 14.5516 12.0357 25.9048 9.55432C36.0624 7.33881 46.2311 11.8806 51.2931 20.8977C51.7512 21.7175 51.7848 21.7507 52.4999 21.0971C53.6844 20.0226 54.8689 18.9481 55.9528 17.7849C57.0479 16.6218 58.0201 15.3589 58.9811 14.229C57.0144 20.3992 44.9013 34.9773 39.2806 37.7799C40.7444 35.509 41.4484 33.1606 41.0797 30.5463C40.7109 27.9652 39.5935 25.794 37.5821 24.1102C34.2074 21.2854 29.1119 21.1082 25.5808 23.3459C21.9826 25.6278 20.1835 30.0256 21.1892 34.1132C21.8038 36.5946 23.1559 38.5775 25.2791 40.0619C27.4022 41.5463 29.8159 41.8232 32.3748 41.8675Z" fill="#0770E3"/>
<path d="M53.4017 26.1816C55.089 34.0024 53.6698 41.0477 48.2167 47.0628C46.1942 49.2894 43.9704 51.3277 41.8361 53.4545C38.3385 56.9329 34.8521 60.4002 31.3545 63.8785C31.2875 63.945 31.2204 63.9893 31.2204 64.0004C28.114 60.9208 25.0298 57.8634 21.9233 54.7839C35.422 48.5694 45.8701 38.9762 53.4017 26.1816Z" fill="#2E4793"/>
<path d="M21.9233 54.7837L13.252 46.2983C34.0252 45.3124 48.619 33.8472 59 14.2178C52.016 32.4182 40.1152 46.3316 21.9233 54.7837Z" fill="#F8991C"/>
<circle cx="31" cy="32" r="11" fill="white"/>
</g>
<defs>
<clipPath id="clip0_1606_18356">
<rect width="51" height="55" fill="white" transform="translate(8 9)"/>
</clipPath>
</defs>
</svg>
