<svg width="16" height="20" viewBox="0 0 16 20" fill="none" xmlns="http://www.w3.org/2000/svg">
<g clip-path="url(#clip0_806_12657)">
<path d="M2.41763 13.7683C2.52937 12.7192 2.66958 11.6947 2.7378 10.666C2.78722 9.92506 2.75123 9.17787 2.73243 8.43382C2.72276 8.04505 2.73082 7.66361 2.86082 7.29211C3.20086 6.31887 3.95776 5.8872 4.95157 5.76319C5.03752 5.7522 5.12454 5.74959 5.23628 5.74174C5.23628 8.87858 5.23628 12.007 5.23628 15.1533C7.30339 15.1533 9.34633 15.1533 11.4134 15.1533C11.4134 12.0201 11.4134 8.88486 11.4134 5.72656C11.9834 5.74488 12.4959 5.86365 12.9541 6.15928C13.5848 6.56689 13.8587 7.17647 13.9291 7.88232C13.9533 8.12668 13.8958 8.37731 13.9023 8.62428C13.928 9.61687 13.9393 10.6105 14.0049 11.601C14.0521 12.3163 14.1768 13.0263 14.2665 13.7369C13.2882 13.9242 12.5303 14.4265 12.0076 15.2569C11.9576 15.3359 11.9248 15.4359 11.9173 15.5285C11.8367 16.5451 11.7632 17.5628 11.6869 18.5795C11.6568 18.9824 11.6251 19.3853 11.5929 19.8013C9.42906 19.8013 7.26364 19.8013 5.07781 19.8013C5.05148 19.4753 5.02194 19.1457 4.99938 18.8155C4.92524 17.7329 4.85272 16.6498 4.78074 15.5672C4.77053 15.4134 4.73239 15.2825 4.60615 15.1695C4.48421 15.0602 4.39342 14.9173 4.28706 14.7912C3.7966 14.2089 3.21321 13.7866 2.41763 13.7683Z" fill="black"/>
<path d="M5.82182 5.71811C6.13984 5.71811 6.43959 5.71811 6.74901 5.71811C6.74901 5.42457 6.74901 5.14673 6.74901 4.8422C6.57442 4.8422 6.40897 4.84377 6.24351 4.84168C5.5645 4.83331 5.12186 4.33361 5.20351 3.68008C5.28463 3.03178 5.36037 2.38244 5.43235 1.73309C5.49306 1.1816 5.89649 0.815325 6.46698 0.814802C7.71542 0.812709 8.96385 0.812709 10.2117 0.814802C10.771 0.815849 11.1755 1.18055 11.2367 1.72106C11.3103 2.3704 11.3866 3.01922 11.4666 3.66805C11.5483 4.3289 11.1244 4.81656 10.4379 4.84063C10.2714 4.84639 10.1048 4.84168 9.91199 4.84168C9.91199 5.00389 9.91199 5.14568 9.91199 5.28748C9.91199 5.42353 9.91199 5.56009 9.91199 5.71864C10.2311 5.71864 10.5357 5.71864 10.8532 5.71864C10.8532 7.06546 10.8532 8.38979 10.8532 9.73296C9.18303 9.73296 7.51075 9.73296 5.82236 9.73296C5.82182 8.40444 5.82182 7.07593 5.82182 5.71811ZM7.3324 4.84901C7.3324 5.13993 7.3324 5.42614 7.3324 5.7134C8.0098 5.7134 8.67162 5.7134 9.33774 5.7134C9.33774 5.42039 9.33774 5.13784 9.33774 4.84901C8.6641 4.84901 8.00711 4.84901 7.3324 4.84901Z" fill="black"/>
<path d="M10.8569 14.6153C9.17281 14.6153 7.5043 14.6153 5.81859 14.6153C5.81859 13.1853 5.81859 11.7569 5.81859 10.3096C7.49087 10.3096 9.16959 10.3096 10.8569 10.3096C10.8569 11.7422 10.8569 13.1665 10.8569 14.6153Z" fill="black"/>
<path d="M4.46433 19.7903C3.17185 19.8944 1.80039 19.3644 1.17564 17.9464C0.872665 17.2588 0.707747 16.5336 0.886632 15.7864C1.06874 15.0256 1.54953 14.5066 2.35263 14.3454C2.55139 14.3056 2.79527 14.3674 2.99027 14.4474C3.52693 14.6667 3.84065 15.1303 4.18123 15.5583C4.21024 15.5949 4.20916 15.6582 4.21346 15.7095C4.2978 16.8235 4.38375 17.938 4.46164 19.0525C4.47883 19.2979 4.46433 19.5454 4.46433 19.7903Z" fill="black"/>
<path d="M12.1596 19.8095C12.1929 19.2941 12.2224 18.7996 12.2574 18.3062C12.3175 17.4528 12.3772 16.5988 12.4481 15.746C12.4583 15.6235 12.5034 15.489 12.5743 15.3886C12.931 14.8816 13.4177 14.5352 14.0226 14.3583C14.1365 14.3248 14.2788 14.3227 14.3916 14.3573C15.2178 14.6095 15.711 15.1699 15.791 15.9992C15.9081 17.2142 15.5595 18.2942 14.5834 19.1125C13.9017 19.6839 13.0744 19.8403 12.1596 19.8095Z" fill="black"/>
</g>
<defs>
<clipPath id="clip0_806_12657">
<rect width="15" height="19" fill="white" transform="translate(0.8125 0.813232)"/>
</clipPath>
</defs>
</svg>
