<svg width="21" height="20" viewBox="0 0 21 20" fill="none" xmlns="http://www.w3.org/2000/svg">
<path d="M9.44509 1.26186C9.74232 0.437604 10.908 0.437605 11.2052 1.26186L13.0407 6.35183C13.1708 6.7125 13.5077 6.95731 13.8909 6.96955L19.299 7.14229C20.1747 7.17026 20.5349 8.2789 19.8429 8.81629L15.5692 12.1348C15.2664 12.3699 15.1377 12.7661 15.2445 13.1343L16.7514 18.331C16.9954 19.1726 16.0523 19.8577 15.3274 19.3656L10.8506 16.3266C10.5334 16.1113 10.1169 16.1113 9.79971 16.3266L5.32297 19.3656C4.59803 19.8577 3.65496 19.1726 3.89898 18.331L5.40588 13.1343C5.51265 12.7661 5.38395 12.37 5.08113 12.1348L0.807457 8.81629C0.115394 8.2789 0.475615 7.17026 1.35137 7.14229L6.75942 6.96955C7.14262 6.95731 7.47957 6.7125 7.60963 6.35184L9.44509 1.26186Z" fill="#FFC107"/>
</svg>
