<svg width="17" height="17" viewBox="0 0 17 17" fill="none" xmlns="http://www.w3.org/2000/svg">
<g clip-path="url(#clip0_172_4260)">
<path d="M9.01354 17C8.68195 17 8.35081 17 8.01922 17C7.97672 16.9907 7.93466 16.9761 7.89172 16.9725C6.76458 16.88 5.71315 16.5471 4.73831 15.9765C4.4594 15.8131 4.1951 15.6258 3.91266 15.4421C3.52971 15.8277 3.1419 16.2115 2.76206 16.6029C2.59516 16.7751 2.41852 16.9261 2.18654 17C2.07586 17 1.96563 17 1.85495 17C1.83768 16.9889 1.8213 16.9743 1.80227 16.9672C1.19 16.7375 1.04214 16.0761 1.50078 15.6099C1.65971 15.4483 1.82042 15.2889 1.98112 15.1291C2.2463 14.8653 2.51237 14.6023 2.77711 14.3402C0.113776 11.1832 0.596771 6.59103 3.43542 3.97684C6.12266 1.50254 10.254 1.32635 13.1622 3.61603C14.5908 4.74096 15.5063 6.20765 15.8578 7.99088C16.3218 10.3452 15.7591 12.4631 14.2605 14.3344C14.2973 14.373 14.3269 14.4053 14.3579 14.4367C14.7599 14.8391 15.1676 15.2362 15.563 15.6453C15.9747 16.0707 15.8246 16.7308 15.2765 16.9504C15.2424 16.9641 15.2106 16.9836 15.1778 17C15.0671 17 14.9569 17 14.8462 17C14.6134 16.9269 14.4372 16.776 14.2703 16.6033C13.9635 16.2863 13.6478 15.9787 13.337 15.6657C13.2604 15.5891 13.1883 15.5081 13.1143 15.4297C13.0603 15.4682 13.0289 15.4899 12.9984 15.5129C12.1001 16.1797 11.1045 16.6299 10.0074 16.8486C9.67893 16.9141 9.34469 16.9504 9.01354 17ZM9.14591 6.9058C9.14591 6.20455 9.14945 5.5033 9.14237 4.80205C9.14104 4.68473 9.11625 4.55767 9.06622 4.45231C8.94404 4.19465 8.65141 4.07247 8.36807 4.13754C8.08031 4.20351 7.88729 4.45142 7.88685 4.76973C7.88508 6.32142 7.88818 7.87312 7.88419 9.42481C7.88331 9.7046 7.99089 9.90825 8.22242 10.0636C8.74482 10.4143 9.26146 10.7729 9.78031 11.1279C10.2491 11.4489 10.7149 11.7747 11.1886 12.089C11.6109 12.3697 12.1506 12.1045 12.1771 11.6082C12.1913 11.3386 12.0532 11.1523 11.8367 11.0057C10.9876 10.4293 10.1429 9.84671 9.29289 9.27163C9.18664 9.19947 9.1406 9.12642 9.14237 8.99361C9.1499 8.29767 9.14591 7.60174 9.14591 6.9058Z" fill="#EC1C24"/>
<path d="M17 3.27736C16.9571 3.46994 16.9327 3.66916 16.8672 3.85421C16.7853 4.08663 16.6866 4.31684 16.5653 4.53067C16.3762 4.86447 16.0097 4.93442 15.702 4.71041C14.937 4.15348 14.2202 3.53856 13.5836 2.83864C13.1537 2.36583 12.7531 1.86512 12.3529 1.36619C12.0766 1.02176 12.1563 0.662284 12.5384 0.433847C14.1224 -0.513992 16.6547 0.193899 16.9708 2.55575C16.9748 2.58718 16.9903 2.61684 17 2.64739C17 2.85767 17 3.06752 17 3.27736Z" fill="#EC1C24"/>
<path d="M9.01355 17C9.3447 16.9504 9.67894 16.9141 10.007 16.8486C11.104 16.6303 12.0997 16.1801 12.9979 15.5129C13.0289 15.4899 13.0603 15.4682 13.1139 15.4297C13.1878 15.508 13.26 15.5886 13.3366 15.6657C13.6474 15.9782 13.9635 16.2863 14.2698 16.6033C14.4367 16.7755 14.6129 16.9269 14.8458 17C12.9019 17 10.9575 17 9.01355 17Z" fill="white"/>
<path d="M2.18698 17C2.4194 16.9261 2.5956 16.7751 2.7625 16.6029C3.14235 16.2116 3.52972 15.8277 3.9131 15.4421C4.19555 15.6259 4.45985 15.8131 4.73875 15.9765C5.7136 16.5471 6.76547 16.8805 7.89216 16.9726C7.93511 16.9761 7.97716 16.9907 8.01966 17C6.07529 17 4.13091 17 2.18698 17Z" fill="white"/>
<path d="M2.85503 0.027832C3.52883 0.0304883 4.05211 0.16153 4.52935 0.456816C4.86271 0.663118 4.93487 1.02171 4.70333 1.33648C3.76169 2.61812 2.65669 3.73729 1.37328 4.67848C1.01424 4.94189 0.655651 4.87814 0.440052 4.4921C-0.121302 3.48583 -0.121745 2.4583 0.430755 1.45999C0.974844 0.477181 1.87531 0.0645768 2.85503 0.027832Z" fill="#EC1C24"/>
</g>
<defs>
<clipPath id="clip0_172_4260">
<rect width="17" height="17" fill="white"/>
</clipPath>
</defs>
</svg>
