<svg width="16" height="17" viewBox="0 0 16 17" fill="none" xmlns="http://www.w3.org/2000/svg">
<path d="M8 0.0257568C4 0.0257568 0 0.45909 0 3.49242V11.7258C0 13.3984 1.57 14.7591 3.5 14.7591L2 16.0591V16.4924H4.23L6.23 14.7591H10L12 16.4924H14V16.0591L12.5 14.7591C14.43 14.7591 16 13.3984 16 11.7258V3.49242C16 0.45909 12.42 0.0257568 8 0.0257568ZM3.5 13.0258C2.67 13.0258 2 12.4451 2 11.7258C2 11.0064 2.67 10.4258 3.5 10.4258C4.33 10.4258 5 11.0064 5 11.7258C5 12.4451 4.33 13.0258 3.5 13.0258ZM7 6.95909H2V3.49242H7V6.95909ZM9 6.95909V3.49242H14V6.95909H9ZM12.5 13.0258C11.67 13.0258 11 12.4451 11 11.7258C11 11.0064 11.67 10.4258 12.5 10.4258C13.33 10.4258 14 11.0064 14 11.7258C14 12.4451 13.33 13.0258 12.5 13.0258Z" fill="#B7B7B7"/>
</svg>
