<svg width="17" height="18" viewBox="0 0 17 18" fill="none" xmlns="http://www.w3.org/2000/svg">
<path d="M8.86456 0.92627C4.86456 0.92627 0.864563 1.3596 0.864563 4.39294V12.6263C0.864563 14.2989 2.43456 15.6596 4.36456 15.6596L2.86456 16.9596V17.3929H5.09456L7.09456 15.6596H10.8646L12.8646 17.3929H14.8646V16.9596L13.3646 15.6596C15.2946 15.6596 16.8646 14.2989 16.8646 12.6263V4.39294C16.8646 1.3596 13.2846 0.92627 8.86456 0.92627ZM4.36456 13.9263C3.53456 13.9263 2.86456 13.3456 2.86456 12.6263C2.86456 11.9069 3.53456 11.3263 4.36456 11.3263C5.19456 11.3263 5.86456 11.9069 5.86456 12.6263C5.86456 13.3456 5.19456 13.9263 4.36456 13.9263ZM7.86456 7.8596H2.86456V4.39294H7.86456V7.8596ZM9.86456 7.8596V4.39294H14.8646V7.8596H9.86456ZM13.3646 13.9263C12.5346 13.9263 11.8646 13.3456 11.8646 12.6263C11.8646 11.9069 12.5346 11.3263 13.3646 11.3263C14.1946 11.3263 14.8646 11.9069 14.8646 12.6263C14.8646 13.3456 14.1946 13.9263 13.3646 13.9263Z" fill="url(#paint0_linear_1191_500)"/>
<defs>
<linearGradient id="paint0_linear_1191_500" x1="0.864563" y1="9.1596" x2="16.8646" y2="9.1596" gradientUnits="userSpaceOnUse">
<stop stop-color="#0087E1"/>
<stop offset="1" stop-color="#174495"/>
</linearGradient>
</defs>
</svg>
