<svg width="70" height="70" viewBox="0 0 70 70" fill="none" xmlns="http://www.w3.org/2000/svg">
<g filter="url(#filter0_d_260_4420)">
<path fill-rule="evenodd" clip-rule="evenodd" d="M34.7739 57.5654C48.3049 57.5654 59.2739 46.5964 59.2739 33.0654C59.2739 19.5345 48.3049 8.56543 34.7739 8.56543C21.2429 8.56543 10.2739 19.5345 10.2739 33.0654C10.2739 46.5964 21.2429 57.5654 34.7739 57.5654Z" fill="white"/>
</g>
<path d="M44.2739 27.3412C43.5302 27.6424 42.7377 27.842 41.9114 27.9389C42.7614 27.4704 43.4102 26.7343 43.7152 25.847C42.9227 26.2831 42.0477 26.5912 41.1152 26.7631C40.3627 26.0235 39.2902 25.5654 38.1202 25.5654C35.8502 25.5654 34.0227 27.2662 34.0227 29.3512C34.0227 29.6512 34.0502 29.9397 34.1177 30.2143C30.7089 30.0608 27.6927 28.5527 25.6664 26.2554C25.3127 26.822 25.1052 27.4704 25.1052 28.1685C25.1052 29.4793 25.8364 30.6412 26.9264 31.3139C26.2677 31.3024 25.6214 31.1258 25.0739 30.8477C25.0739 30.8593 25.0739 30.8743 25.0739 30.8893C25.0739 32.7285 26.4952 34.2562 28.3589 34.6081C28.0252 34.6924 27.6614 34.7327 27.2839 34.7327C27.0214 34.7327 26.7564 34.7189 26.5077 34.6681C27.0389 36.167 28.5464 37.2689 30.3389 37.3047C28.9439 38.312 27.1727 38.9189 25.2552 38.9189C24.9189 38.9189 24.5964 38.905 24.2739 38.867C26.0902 39.9481 28.2427 40.5654 30.5639 40.5654C38.1089 40.5654 42.2339 34.7962 42.2339 29.7954C42.2339 29.6281 42.2277 29.4666 42.2189 29.3062C43.0327 28.7731 43.7164 28.1074 44.2739 27.3412Z" fill="#0770E3"/>
<defs>
<filter id="filter0_d_260_4420" x="0.273926" y="0.56543" width="69" height="69" filterUnits="userSpaceOnUse" color-interpolation-filters="sRGB">
<feFlood flood-opacity="0" result="BackgroundImageFix"/>
<feColorMatrix in="SourceAlpha" type="matrix" values="0 0 0 0 0 0 0 0 0 0 0 0 0 0 0 0 0 0 127 0" result="hardAlpha"/>
<feOffset dy="2"/>
<feGaussianBlur stdDeviation="5"/>
<feColorMatrix type="matrix" values="0 0 0 0 0 0 0 0 0 0 0 0 0 0 0 0 0 0 0.1 0"/>
<feBlend mode="normal" in2="BackgroundImageFix" result="effect1_dropShadow_260_4420"/>
<feBlend mode="normal" in="SourceGraphic" in2="effect1_dropShadow_260_4420" result="shape"/>
</filter>
</defs>
</svg>
