<svg width="22" height="16" viewBox="0 0 22 16" fill="none" xmlns="http://www.w3.org/2000/svg">
<g clip-path="url(#clip0_148_804)">
<path d="M13.8205 7.49695C13.7115 7.41526 13.5629 7.36892 13.4076 7.36811C13.2522 7.36731 13.1028 7.4121 12.9922 7.49264C12.8816 7.57318 12.8188 7.68287 12.8177 7.79759C12.8166 7.9123 12.8773 8.02263 12.9864 8.10431L15.1564 9.72395H4.72054C4.56583 9.72395 4.41746 9.76934 4.30806 9.85012C4.19867 9.9309 4.13721 10.0405 4.13721 10.1547C4.13721 10.269 4.19867 10.3785 4.30806 10.4593C4.41746 10.5401 4.56583 10.5855 4.72054 10.5855H15.1564L12.9864 12.1793C12.9324 12.2194 12.8896 12.267 12.8605 12.3194C12.8314 12.3718 12.8166 12.4279 12.8169 12.4845C12.8172 12.5411 12.8325 12.5971 12.8621 12.6493C12.8917 12.7015 12.9349 12.7489 12.9893 12.7888C13.0437 12.8287 13.1082 12.8602 13.1791 12.8817C13.25 12.9032 13.326 12.9141 13.4026 12.9139C13.4792 12.9137 13.5551 12.9024 13.6258 12.8805C13.6965 12.8587 13.7607 12.8268 13.8147 12.7866L17.3789 10.1547L13.8205 7.49695Z" fill="#0770E3"/>
<path d="M7.87637 8.19475C7.99224 8.19525 8.10568 8.17025 8.20223 8.12296C8.29879 8.07566 8.37408 8.0082 8.41851 7.92918C8.46294 7.85016 8.47449 7.76316 8.4517 7.67927C8.42891 7.59538 8.37281 7.51841 8.29054 7.45816L6.12637 5.84713H16.5564C16.7111 5.84713 16.8595 5.80175 16.9689 5.72097C17.0782 5.64019 17.1397 5.53062 17.1397 5.41638C17.1397 5.30213 17.0782 5.19257 16.9689 5.11179C16.8595 5.03101 16.7111 4.98562 16.5564 4.98562H6.12637L8.29054 3.37891C8.34455 3.33874 8.38731 3.29112 8.41639 3.23875C8.44547 3.18638 8.4603 3.1303 8.46003 3.0737C8.45976 3.0171 8.4444 2.9611 8.41481 2.90888C8.38523 2.85667 8.34201 2.80927 8.28762 2.76939C8.23323 2.72951 8.16874 2.69793 8.09783 2.67645C8.02691 2.65498 7.95096 2.64403 7.87431 2.64423C7.71952 2.64463 7.57128 2.69043 7.46221 2.77154L3.89804 5.41638L7.46221 8.06121C7.51574 8.1027 7.57995 8.13587 7.65107 8.1588C7.72218 8.18173 7.79878 8.19395 7.87637 8.19475Z" fill="#0770E3"/>
</g>
<defs>
<clipPath id="clip0_148_804">
<rect width="21" height="15.5072" fill="white" transform="translate(0.153046 0.247314)"/>
</clipPath>
</defs>
</svg>
