<svg width="27" height="27" viewBox="0 0 27 27" fill="none" xmlns="http://www.w3.org/2000/svg">
<rect x="0.758026" y="0.262451" width="26" height="26" rx="13" fill="white"/>
<rect x="1.25803" y="0.762451" width="25" height="25" rx="12.5" stroke="black" stroke-opacity="0.2"/>
<g clip-path="url(#clip0_1081_500)">
<path d="M16.9255 12.7585C16.8165 12.6768 16.6679 12.6305 16.5126 12.6296C16.3572 12.6288 16.2078 12.6736 16.0972 12.7542C15.9866 12.8347 15.9238 12.9444 15.9227 13.0591C15.9216 13.1738 15.9823 13.2842 16.0914 13.3658L18.2614 14.9855H7.82552C7.67081 14.9855 7.52244 15.0309 7.41304 15.1117C7.30365 15.1924 7.24219 15.302 7.24219 15.4162C7.24219 15.5305 7.30365 15.6401 7.41304 15.7208C7.52244 15.8016 7.67081 15.847 7.82552 15.847H18.2614L16.0914 17.4408C16.0373 17.481 15.9946 17.5286 15.9655 17.5809C15.9364 17.6333 15.9216 17.6894 15.9219 17.746C15.9221 17.8026 15.9375 17.8586 15.9671 17.9108C15.9967 17.963 16.0399 18.0104 16.0943 18.0503C16.1487 18.0902 16.2132 18.1218 16.2841 18.1432C16.355 18.1647 16.4309 18.1757 16.5076 18.1755C16.5842 18.1753 16.6601 18.1639 16.7308 18.1421C16.8015 18.1202 16.8657 18.0883 16.9197 18.0482L20.4839 15.4162L16.9255 12.7585Z" fill="#0770E3"/>
<path d="M10.9814 13.4563C11.0972 13.4568 11.2107 13.4318 11.3072 13.3845C11.4038 13.3372 11.4791 13.2697 11.5235 13.1907C11.5679 13.1117 11.5795 13.0247 11.5567 12.9408C11.5339 12.8569 11.4778 12.7799 11.3955 12.7197L9.23135 11.1087H19.6614C19.8161 11.1087 19.9644 11.0633 20.0738 10.9825C20.1832 10.9017 20.2447 10.7922 20.2447 10.6779C20.2447 10.5637 20.1832 10.4541 20.0738 10.3733C19.9644 10.2925 19.8161 10.2472 19.6614 10.2472H9.23135L11.3955 8.64044C11.4495 8.60028 11.4923 8.55265 11.5214 8.50029C11.5505 8.44792 11.5653 8.39184 11.565 8.33524C11.5647 8.27864 11.5494 8.22263 11.5198 8.17042C11.4902 8.1182 11.447 8.0708 11.3926 8.03092C11.3382 7.99104 11.2737 7.95946 11.2028 7.93799C11.1319 7.91651 11.0559 7.90556 10.9793 7.90576C10.8245 7.90617 10.6763 7.95196 10.5672 8.03308L7.00302 10.6779L10.5672 13.3228C10.6207 13.3642 10.6849 13.3974 10.756 13.4203C10.8272 13.4433 10.9038 13.4555 10.9814 13.4563Z" fill="#0770E3"/>
</g>
<defs>
<clipPath id="clip0_1081_500">
<rect width="21" height="15.5072" fill="white" transform="translate(3.25803 5.50885)"/>
</clipPath>
</defs>
</svg>
