<svg width="30" height="28" viewBox="0 0 30 28" fill="none" xmlns="http://www.w3.org/2000/svg">
<path d="M14.9433 13.902C17.5496 13.902 19.6623 11.8705 19.6623 9.36444C19.6623 6.85843 17.5496 4.8269 14.9433 4.8269C12.3371 4.8269 10.2243 6.85843 10.2243 9.36444C10.2243 11.8705 12.3371 13.902 14.9433 13.902Z" fill="#0770E3"/>
<path d="M7.08375 19.9369C7.86357 16.7697 11.135 15.0364 14.5221 15.0364H15.3645C18.7516 15.0364 22.023 16.7686 22.8029 19.9369C22.9539 20.5506 23.0742 21.1927 23.1415 21.845C23.2063 22.4689 22.6731 22.9771 22.0219 22.9771H7.86475C7.21352 22.9771 6.68027 22.4677 6.74516 21.845C6.8124 21.1927 6.93274 20.5506 7.08375 19.9369Z" fill="#0770E3"/>
</svg>
