<svg width="32" height="30" viewBox="0 0 32 30" fill="none" xmlns="http://www.w3.org/2000/svg">
    <path
        d="M0 15.4642C0 14.9426 0 14.421 0 13.9002C0.0425 13.5329 0.0883333 13.1664 0.1275 12.7991C0.303333 11.1411 1.38667 10.1621 3.1 10.1051C3.31583 10.0978 3.53667 10.0641 3.745 10.0078C5.48 9.54088 6.255 7.73255 5.40167 6.1581C4.65333 4.77895 4.96833 3.42873 6.25333 2.48116C7.3825 1.64772 8.60333 0.970199 9.91667 0.443774C11.385 -0.144536 12.7742 0.276604 13.6242 1.57378C14.78 3.33871 17.2158 3.33791 18.3775 1.57298C19.2317 0.2758 20.6167 -0.146947 22.085 0.441363C23.4075 0.971003 24.6367 1.65576 25.7717 2.49884C27.0208 3.42712 27.34 4.7902 26.6125 6.13158C25.5833 8.02912 26.825 10.0512 29.055 10.1107C30.4767 10.1485 31.615 11.1169 31.8183 12.472C31.89 12.9462 31.9392 13.4236 31.9992 13.8994C31.9992 14.421 31.9992 14.9426 31.9992 15.4634C31.9567 15.8202 31.91 16.1771 31.8733 16.5347C31.7025 18.2257 30.6342 19.1917 28.8675 19.2593C28.6617 19.2673 28.4525 19.3019 28.2542 19.3557C26.5333 19.8186 25.7433 21.6294 26.5808 23.1797C27.35 24.6023 27.0442 25.9187 25.7208 26.9001C24.585 27.7423 23.3517 28.4207 22.025 28.9423C20.6075 29.5 19.2042 29.0652 18.3908 27.8163C17.2175 26.0152 14.7825 26.0144 13.6075 27.8155C12.7867 29.0725 11.3675 29.5032 9.94417 28.9326C8.61167 28.3982 7.3725 27.711 6.2275 26.8647C4.97833 25.942 4.65833 24.5766 5.38583 23.2328C6.41417 21.3328 5.17417 19.3131 2.94333 19.2528C1.5225 19.215 0.385 18.2474 0.18 16.8915C0.108333 16.4182 0.0591667 15.94 0 15.4642ZM17 15.645C17.1508 15.645 17.2642 15.645 17.3767 15.645C18.5433 15.645 19.7092 15.6458 20.8758 15.645C21.5625 15.6442 22.0125 15.256 22.0075 14.6709C22.0025 14.1019 21.5542 13.7209 20.8842 13.7201C19.7075 13.7185 18.5308 13.7201 17.3533 13.7201C17.2425 13.7201 17.1325 13.7201 17 13.7201C17 13.5747 17 13.4662 17 13.3577C17 12.2244 17.0017 11.092 16.9992 9.95881C16.9983 9.32308 16.5858 8.89471 15.9875 8.89953C15.4025 8.90435 15.0017 9.3279 15 9.94997C14.9975 11.0928 14.9992 12.2357 14.9992 13.3786C14.9992 13.4855 14.9992 13.5915 14.9992 13.7193C14.8483 13.7193 14.7358 13.7193 14.6233 13.7193C13.4567 13.7193 12.2908 13.7185 11.1242 13.7201C11 13.7201 10.8717 13.7209 10.7525 13.7491C10.2475 13.8672 9.93917 14.3084 9.9975 14.8116C10.0508 15.2721 10.4742 15.6386 10.9892 15.6418C12.2075 15.649 13.4258 15.6442 14.645 15.6442C14.7558 15.6442 14.8667 15.6442 14.9992 15.6442C14.9992 15.7889 14.9992 15.8974 14.9992 16.0059C14.9992 17.1592 14.9958 18.3117 15.0008 19.465C15.0033 20.0734 15.4642 20.4953 16.0725 20.4632C16.6067 20.4343 16.9967 20.0115 16.9983 19.4441C17.0025 18.1919 17 16.9398 17 15.645Z"
        fill="#0770E3" />
</svg>