<svg width="56" height="55" viewBox="0 0 56 55" fill="none" xmlns="http://www.w3.org/2000/svg">
<g clip-path="url(#clip0_302_621)">
<path d="M55.8975 37.371C54.2713 37.371 52.6859 37.3726 51.0989 37.3662C50.988 37.3662 50.8331 37.3325 50.7727 37.257C50.0665 36.3898 49.3749 35.5113 48.5855 34.5172C49.8757 34.5172 51.0076 34.5188 52.1395 34.5172C53.1638 34.5156 53.309 34.3759 53.309 33.3754C53.3106 31.4322 53.3123 29.4874 53.3074 27.5442C53.3057 26.738 53.1068 26.5389 52.3075 26.5389C47.0964 26.5373 41.8852 26.5373 36.6741 26.5389C35.9205 26.5389 35.6971 26.7621 35.6954 27.5105C35.6922 29.534 35.6905 31.5575 35.6954 33.5826C35.6971 34.2892 35.9222 34.5124 36.6512 34.5156C38.5237 34.5236 40.3961 34.5188 42.2701 34.5188C42.492 34.5188 42.7122 34.5188 43.0155 34.5188C42.8377 35.4936 42.6714 36.4058 42.5001 37.3421C28.346 37.3421 14.2245 37.3421 0.0556641 37.3421C0.0556641 27.3547 0.0556641 17.3705 0.0556641 7.34619C18.6527 7.34619 37.2498 7.34619 55.8991 7.34619C55.8975 17.3207 55.8975 27.3049 55.8975 37.371ZM19.0295 25.0791C19.3003 27.8525 19.5612 30.5024 19.814 33.1522C19.9201 34.2667 20.7861 34.7051 21.7517 34.1125C22.4416 33.6886 23.1153 33.2405 23.8052 32.8165C24.3744 32.4664 24.699 31.9798 24.836 31.331C25.5585 27.9039 26.3039 24.4817 27.0281 21.0546C27.1162 20.6402 27.2826 20.3608 27.6838 20.1376C29.8449 18.9411 31.9799 17.6981 34.1362 16.4905C35.3464 15.8127 36.0494 14.7817 36.3772 13.4841C36.736 12.0645 36.2728 11.1154 34.9713 10.632C33.5441 10.1004 32.1545 10.1678 30.8105 10.9435C28.7064 12.1576 26.5812 13.338 24.4804 14.5585C24.0776 14.793 23.7432 14.8347 23.2979 14.6886C19.9445 13.5901 16.5797 12.5254 13.2247 11.4349C12.5445 11.2133 11.9215 11.2342 11.2886 11.5811C10.6313 11.9408 9.95279 12.2604 9.28407 12.5976C8.11788 13.1886 8.0559 14.0944 9.13564 14.854C11.1549 16.2737 13.1774 17.6885 15.1982 19.1065C15.3678 19.2254 15.526 19.3571 15.7316 19.5145C15.2488 19.7923 14.8492 20.03 14.443 20.2548C13.6128 20.7157 12.8153 21.4352 11.9345 21.5524C11.0554 21.6696 10.0735 21.236 9.1699 20.9454C8.14723 20.6161 7.21265 20.6627 6.2324 21.1188C5.17386 21.6102 4.96019 22.3971 5.77571 23.2322C6.80489 24.2857 7.86343 25.3135 8.86815 26.3895C9.16826 26.7107 9.40966 27.1347 9.54177 27.5522C9.98704 28.9655 10.3654 30.398 10.7846 31.8192C10.9967 32.5419 11.6132 32.9948 12.1775 32.7282C13.0501 32.3155 13.9162 31.8273 14.2098 30.7962C14.5001 29.7765 14.7807 28.7519 15.0808 27.7353C15.1411 27.533 15.2161 27.2664 15.3727 27.1732C16.5487 26.4698 17.7491 25.805 19.0295 25.0791Z" fill="#D34E62"/>
<path d="M55.9347 5.83659C37.2723 5.83659 18.6753 5.83659 0.0423068 5.83659C0.0423068 4.59519 -0.037614 3.37467 0.0651413 2.1686C0.163003 1.04605 1.25906 0.161168 2.41383 0.0760531C2.65686 0.0583877 2.90151 0.0583877 3.14617 0.0583877C19.6963 0.0583877 36.2448 0.0583877 52.7949 0.0551758C53.5191 0.0551758 54.2155 0.100142 54.8272 0.54499C55.491 1.02838 55.8874 1.67558 55.9232 2.47213C55.9705 3.56899 55.9347 4.67067 55.9347 5.83659Z" fill="#D34E62"/>
<path d="M42.2145 38.855C42.0107 39.9679 41.7986 41.0455 41.6192 42.1279C41.5377 42.6177 41.2392 43.191 41.8476 43.546C42.4103 43.8752 42.7968 43.4078 43.1964 43.1236C44.3349 42.3142 45.4538 41.4807 46.602 40.6858C46.8075 40.5428 47.1256 40.4561 47.3719 40.4882C48.9034 40.6874 50.4301 40.9202 51.9567 41.1595C52.3645 41.2238 52.7478 41.2446 52.9875 40.856C53.2273 40.4674 53.0462 40.1317 52.7836 39.8169C52.5423 39.5263 52.3155 39.226 52.0236 38.8566C53.3676 38.8566 54.612 38.8566 56.0017 38.8566C55.943 40.1686 56.0066 41.4984 55.7848 42.7799C55.6053 43.8158 54.7605 44.4276 53.6677 44.5914C53.3676 44.6364 53.0593 44.6428 52.7543 44.6428C36.2286 44.6444 19.7013 44.646 3.17568 44.6444C1.4582 44.6444 0.326265 43.9394 0.0816092 42.6049C-0.0472426 41.9047 0.0212609 41.1675 0.00821259 40.4481C5.74131e-05 39.931 0.00658156 39.4122 0.00658156 38.855C14.0857 38.855 28.1175 38.855 42.2145 38.855Z" fill="#D34E62"/>
<path d="M41.8932 54.0551C32.5539 54.0551 23.3728 54.0551 14.0498 54.0551C14.7805 53.3854 15.4982 52.8522 16.0543 52.1906C17.0901 50.9604 18.3411 50.6457 19.9427 50.6713C25.8389 50.7661 31.7384 50.7131 37.6378 50.7003C38.0554 50.6986 38.362 50.8079 38.6621 51.0921C39.6897 52.0605 40.7417 53.0032 41.8932 54.0551Z" fill="#D34E62"/>
<path d="M37.194 28.0034C42.0855 28.0034 46.9231 28.0034 51.8016 28.0034C51.8016 29.6784 51.8016 31.3293 51.8016 33.0734C50.8278 33.0734 49.8525 32.9947 48.8951 33.0943C47.817 33.2067 47.0928 32.871 46.5399 31.9557C46.1582 31.3229 45.6591 30.7512 45.1535 30.2052C44.9659 30.0044 44.5712 29.8181 44.338 29.8776C44.1015 29.9386 43.8486 30.2855 43.7769 30.5521C43.5926 31.2266 43.5241 31.93 43.3675 32.6125C43.3283 32.7827 43.1375 33.0493 43.0136 33.0509C41.0857 33.0782 39.1562 33.0702 37.1924 33.0702C37.194 31.3631 37.194 29.7089 37.194 28.0034Z" fill="#D34E62"/>
<path d="M21.1709 46.1187C25.7378 46.1187 30.2476 46.1187 34.7949 46.1187C34.7949 47.1609 34.7949 48.1727 34.7949 49.2246C30.2672 49.2246 25.7427 49.2246 21.1709 49.2246C21.1709 48.1951 21.1709 47.1577 21.1709 46.1187Z" fill="#D34E62"/>
<path d="M44.9316 32.248C46.866 34.6923 48.7058 37.0177 50.6484 39.4732C49.7219 39.3447 48.9162 39.3078 48.1529 39.1119C47.0797 38.8373 46.1956 38.9978 45.3622 39.7542C44.7554 40.3035 44.0329 40.7275 43.2598 41.2799C43.8241 38.2382 44.364 35.3218 44.9316 32.248Z" fill="#D34E62"/>
<path d="M21.2507 32.7152C21.0909 31.09 20.9441 29.5772 20.794 28.066C20.6799 26.9097 20.5771 25.7534 20.4417 24.6003C20.3292 23.6368 19.4762 23.1839 18.6182 23.6512C17.1797 24.4381 15.7541 25.2508 14.3449 26.0875C14.1149 26.224 13.9241 26.5227 13.8409 26.7844C13.4919 27.8925 13.2146 29.0215 12.859 30.1264C12.7481 30.4685 12.4758 30.7608 12.2768 31.0771C12.2115 31.0546 12.1447 31.0322 12.0794 31.0097C11.7336 29.8261 11.3454 28.6505 11.0584 27.4525C10.8349 26.5227 10.4125 25.7695 9.6981 25.1142C8.77819 24.2711 7.93495 23.3461 7.05908 22.4564C7.06561 22.389 7.07213 22.3215 7.07865 22.2541C7.48478 22.2444 7.90885 22.1593 8.29378 22.2412C9.40451 22.4789 10.494 22.8129 11.6048 23.0474C11.9277 23.1164 12.3453 23.0779 12.6307 22.9269C14.0057 22.193 15.3562 21.4109 16.7034 20.6288C17.6755 20.0651 17.7179 19.1144 16.7931 18.4576C14.7804 17.0283 12.7547 15.6183 10.7354 14.2002C10.5723 14.0862 10.4158 13.9641 10.1613 13.7746C10.8904 13.4085 11.5379 13.0568 12.2148 12.7629C12.3844 12.689 12.6503 12.7757 12.8542 12.8416C16.2549 13.9256 19.6605 14.9968 23.0449 16.1274C23.7951 16.3779 24.3742 16.3056 25.0413 15.9106C27.2024 14.6338 29.4043 13.4262 31.5785 12.1703C32.5359 11.6179 33.5031 11.6275 34.5078 11.992C34.9156 12.1398 35.0672 12.4064 34.9987 12.832C34.834 13.8549 34.3822 14.6836 33.4427 15.2152C31.1348 16.5224 28.8367 17.8457 26.5173 19.1353C26.046 19.3971 25.8111 19.7343 25.7035 20.2434C24.9776 23.6898 24.2143 27.1297 23.5097 30.5809C23.3858 31.1895 23.1346 31.5959 22.5849 31.8785C22.1576 32.1017 21.7645 32.3892 21.2507 32.7152Z" fill="#D34E62"/>
</g>
<defs>
<clipPath id="clip0_302_621">
<rect width="56" height="54" fill="white" transform="translate(0 0.0551758)"/>
</clipPath>
</defs>
</svg>
