<svg width="170" height="13" viewBox="0 0 170 13" fill="none" xmlns="http://www.w3.org/2000/svg">
    <path opacity="0.5"
        d="M169.102 6.69434L159.102 12.4678V0.920833L169.102 6.69434ZM161.657 7.69434H156.694V5.69434H161.657V7.69434ZM151.731 7.69434H146.769V5.69434H151.731V7.69434ZM141.806 7.69434H136.843V5.69434H141.806V7.69434ZM131.88 7.69434H126.917V5.69434H131.88V7.69434ZM121.954 7.69434H116.991V5.69434H121.954V7.69434ZM112.028 7.69434H107.066V5.69434H112.028V7.69434ZM102.103 7.69434H97.1399V5.69434H102.103V7.69434ZM92.177 7.69434H87.2141V5.69434H92.177V7.69434ZM82.2512 7.69434H77.2884V5.69434H82.2512V7.69434ZM72.3255 7.69434H67.3626V5.69434H72.3255V7.69434ZM62.3997 7.69434H57.4369V5.69434H62.3997V7.69434ZM52.474 7.69434H47.5111V5.69434H52.474V7.69434ZM42.5482 7.69434H37.5854V5.69434H42.5482V7.69434ZM32.6225 7.69434H27.6596V5.69434H32.6225V7.69434ZM22.6967 7.69434H17.7339V5.69434H22.6967V7.69434ZM12.771 7.69434H7.80811V5.69434H12.771V7.69434ZM2.84523 7.69434H0.36377V5.69434H2.84523V7.69434Z"
        fill="black" />
</svg>