<svg width="20" height="19" viewBox="0 0 20 19" fill="none" xmlns="http://www.w3.org/2000/svg">
<g clip-path="url(#clip0_353_191)">
<path d="M0.733499 12.8883C0.733499 11.4862 0.727999 10.0831 0.735332 8.68104C0.741748 7.46363 1.41822 6.80025 2.64101 6.79473C3.20383 6.79198 3.76664 6.7883 4.32854 6.79841C5.34967 6.81587 6.08298 7.49303 6.08939 8.50463C6.10864 11.431 6.10773 14.3574 6.08756 17.2838C6.08114 18.2899 5.33225 18.9809 4.32121 18.9928C3.71348 19.0002 3.10483 18.9992 2.49619 18.9901C1.45856 18.9735 0.745415 18.2697 0.737165 17.2324C0.726165 15.7843 0.734415 14.3363 0.734415 12.8883C0.734415 12.8883 0.734415 12.8883 0.733499 12.8883ZM2.19553 12.8598C2.19645 12.8598 2.19736 12.8598 2.19828 12.8598C2.19828 14.0037 2.1992 15.1476 2.19828 16.2915C2.19736 17.5337 2.19645 17.5337 3.46049 17.5273C4.6292 17.5218 4.63469 17.5218 4.63653 16.3356C4.64019 13.819 4.63286 11.3024 4.64019 8.78671C4.64111 8.44215 4.5797 8.23267 4.16813 8.25472C3.68231 8.28136 3.19375 8.2832 2.70793 8.25564C2.29911 8.23267 2.18453 8.39897 2.18911 8.78946C2.20653 10.1447 2.19553 11.5027 2.19553 12.8598Z" fill="#666666"/>
<path d="M19.7264 12.9002C19.7273 14.3179 19.731 15.7356 19.7255 17.1524C19.7209 18.2743 19.0187 18.9799 17.9059 18.99C17.3129 18.9955 16.7198 18.9992 16.1268 18.991C15.1212 18.9781 14.3778 18.2826 14.3714 17.271C14.3531 14.3446 14.3522 11.4182 14.3723 8.49175C14.3787 7.50404 15.1148 6.81677 16.1002 6.79839C16.7391 6.78737 17.378 6.78461 18.0159 6.79839C19.0013 6.81861 19.7108 7.51966 19.7218 8.51013C19.7374 9.97379 19.7255 11.4374 19.7264 12.9002ZM18.2634 12.8864C18.2643 12.8864 18.2653 12.8864 18.2653 12.8864C18.2653 11.499 18.2598 10.1107 18.2698 8.72329C18.2726 8.39987 18.1736 8.2446 17.8262 8.25654C17.3092 8.27492 16.7913 8.274 16.2743 8.2547C15.9343 8.24276 15.8206 8.38242 15.8215 8.71319C15.8279 11.5036 15.827 14.2949 15.8197 17.0854C15.8188 17.4253 15.9608 17.5429 16.289 17.5319C16.7904 17.5144 17.2936 17.5089 17.795 17.531C18.158 17.5466 18.2726 17.4042 18.2689 17.0495C18.2552 15.6621 18.2634 14.2747 18.2634 12.8864Z" fill="#666666"/>
<path d="M18.2672 2.3973C17.0637 3.30232 15.9481 4.14028 14.8326 4.97823C13.6529 5.86487 12.4768 6.75612 11.2907 7.6345C10.6032 8.14443 9.86076 8.14903 9.18062 7.64093C6.81754 5.87406 4.45904 4.09985 2.10237 2.32379C1.68713 2.01048 1.60005 1.56118 1.86588 1.21571C2.12345 0.882186 2.55152 0.853704 2.96126 1.14129C2.99884 1.16794 3.03367 1.19642 3.07034 1.22398C5.31242 2.92561 7.56001 4.62081 9.79293 6.33438C10.1101 6.57787 10.3237 6.60451 10.6573 6.34909C12.6382 4.83214 14.6383 3.33999 16.631 1.83866C16.7465 1.7523 16.8574 1.6595 16.9473 1.4693C16.6824 1.4693 16.4165 1.47849 16.1516 1.46747C15.6557 1.44633 15.3404 1.14772 15.3468 0.722314C15.3532 0.313445 15.6621 0.0148332 16.1333 0.00932033C17.0609 -0.00262416 17.9886 -0.00354296 18.9153 0.0111579C19.4607 0.020346 19.7183 0.291394 19.7238 0.841759C19.7338 1.74127 19.7329 2.63986 19.7247 3.53938C19.7201 4.03002 19.4112 4.35344 18.9849 4.34517C18.5706 4.33782 18.2837 4.03186 18.2691 3.56143C18.2581 3.21228 18.2672 2.86221 18.2672 2.3973Z" fill="#666666"/>
<path d="M7.55956 14.7921C7.55956 14.0148 7.55406 13.2365 7.5614 12.4592C7.57148 11.4265 8.27729 10.7107 9.31125 10.6905C9.93456 10.6776 10.5588 10.6749 11.1821 10.6914C12.1904 10.719 12.8935 11.4347 12.899 12.4454C12.909 14.0313 12.909 15.6171 12.9017 17.2021C12.8962 18.2716 12.1977 18.9717 11.1271 18.991C10.5038 19.002 9.87957 19.0048 9.25625 18.9883C8.27271 18.9616 7.57698 18.2532 7.5614 17.2627C7.54856 16.4386 7.55956 15.6153 7.55956 14.7921ZM11.4406 14.8279C11.4415 14.8279 11.4415 14.8279 11.4424 14.8279C11.4424 14.0827 11.4351 13.3376 11.4461 12.5924C11.4507 12.2874 11.3443 12.1422 11.0254 12.1487C10.4946 12.1606 9.96298 12.1578 9.43225 12.1496C9.15084 12.145 9.01518 12.2497 9.0161 12.5493C9.02343 14.0699 9.02526 15.5905 9.01701 17.1111C9.01518 17.4364 9.15817 17.5375 9.45883 17.5301C9.95931 17.5182 10.4607 17.5117 10.9603 17.5319C11.3104 17.5457 11.4543 17.4263 11.4452 17.0624C11.4268 16.3191 11.4406 15.573 11.4406 14.8279Z" fill="#666666"/>
<rect x="1.73193" y="8" width="3" height="10" fill="#666666"/>
<rect x="15.7319" y="8" width="3" height="10" fill="#666666"/>
<rect x="8.73193" y="12" width="3" height="6" fill="#666666"/>
</g>
<defs>
<clipPath id="clip0_353_191">
<rect width="19" height="19" fill="white" transform="translate(0.731934)"/>
</clipPath>
</defs>
</svg>
