<svg width="57" height="53" viewBox="0 0 57 53" fill="none" xmlns="http://www.w3.org/2000/svg">
    <path
        d="M57 5.72953C57 19.5744 57 33.4192 57 47.264C56.9703 47.3093 56.9257 47.3515 56.9153 47.4028C56.1121 51.017 53.676 52.9923 50.0174 52.9923C38.5731 52.9923 27.1288 52.9923 15.6845 52.9923C12.6609 52.9923 9.63735 53.0104 6.61378 52.9877C2.85107 52.9591 0.00448524 50.046 0.002998 46.2417C-0.00146372 33.0784 2.35183e-05 19.9151 0.00745972 6.75033C0.00745972 6.22862 0.052077 5.69334 0.169569 5.18671C0.89683 2.04893 3.48314 0.00733877 6.72533 0.0028153C12.2712 -0.00472382 17.8172 0.00130748 23.3631 0.00130748C32.3222 0.00130748 41.2814 -0.00321599 50.239 0.00432312C52.8447 0.00583095 54.8643 1.12313 56.1553 3.4301C56.5494 4.13274 56.7249 4.95903 57 5.72953ZM3.56345 12.0729C3.56345 12.3036 3.56345 12.4876 3.56345 12.6731C3.56345 23.8053 3.56345 34.9391 3.56345 46.0713C3.56345 48.131 4.78448 49.3795 6.81456 49.3795C21.2646 49.3825 35.7131 49.3825 50.1632 49.3795C52.2275 49.3795 53.4366 48.1386 53.4366 46.0367C53.4381 34.9225 53.4366 23.8083 53.4366 12.6942C53.4366 12.4936 53.4366 12.2931 53.4366 12.0714C36.7959 12.0729 20.2191 12.0729 3.56345 12.0729Z"
        fill="#0770E3" />
    <path
        d="M16.6167 32.4331C16.6167 28.7088 16.6077 24.9845 16.6196 21.2616C16.6271 19.0828 17.9224 17.4061 19.9258 16.9658C20.2842 16.8874 20.6619 16.8784 21.0308 16.8784C26.0026 16.8724 30.9745 16.8709 35.9463 16.8769C38.6353 16.8799 40.3798 18.6335 40.3813 21.3506C40.3872 28.7796 40.3857 36.2087 40.3828 43.6377C40.3813 45.3898 39.1558 46.1814 37.5719 45.4667C36.2854 44.8877 34.9945 44.3193 33.7155 43.7222C33.4135 43.5819 33.183 43.5895 32.8915 43.7448C31.8073 44.3178 30.6993 44.8425 29.6181 45.423C28.8656 45.8271 28.1591 45.8422 27.4006 45.429C26.3566 44.8591 25.2798 44.3555 24.2284 43.7991C23.8744 43.6121 23.5829 43.5759 23.1992 43.7599C21.9782 44.3479 20.7095 44.838 19.5049 45.4562C17.8704 46.2945 16.5601 45.1757 16.5914 43.5488C16.6642 39.8441 16.6152 36.1378 16.6167 32.4331ZM36.7703 41.1242C36.7866 40.8528 36.8059 40.6703 36.8059 40.4894C36.8074 34.152 36.8074 27.8146 36.8059 21.4773C36.8059 20.6329 36.6751 20.5017 35.8378 20.5017C30.9596 20.5002 26.0815 20.5017 21.2033 20.5017C20.2976 20.5017 20.195 20.6087 20.1935 21.5481C20.1935 27.8478 20.1935 34.1475 20.195 40.4472C20.195 40.6447 20.2113 40.8437 20.2247 41.1378C21.1483 40.7231 21.996 40.3627 22.8274 39.9647C23.4832 39.651 24.1004 39.6691 24.7429 40.0069C25.8613 40.5934 26.9872 41.1679 28.1279 41.7077C28.3391 41.8072 28.6752 41.8072 28.8879 41.7077C29.9468 41.2101 31.0027 40.702 32.02 40.1245C32.8454 39.6556 33.6114 39.6465 34.4442 40.0763C35.1759 40.4547 35.9478 40.7578 36.7703 41.1242Z"
        fill="#0770E3" />
    <path
        d="M28.4702 27.7247C27.3027 27.7247 26.1352 27.7412 24.9692 27.7186C24.1111 27.702 23.4567 27.1879 23.2217 26.4053C22.9987 25.6695 23.253 24.8342 23.9103 24.4286C24.2256 24.234 24.6316 24.1029 24.999 24.0983C27.3325 24.0697 29.6674 24.0742 32.0009 24.0878C33.0628 24.0938 33.8332 24.8538 33.8525 25.8534C33.8719 26.8803 33.1045 27.69 32.0277 27.7156C30.8424 27.7458 29.6555 27.7247 28.4702 27.7247Z"
        fill="#0770E3" />
    <path
        d="M28.5278 31.3067C29.6581 31.3067 30.7884 31.2991 31.9173 31.3082C33.0565 31.3187 33.8462 32.0606 33.8522 33.1055C33.8581 34.1504 33.0654 34.936 31.944 34.9435C29.6477 34.9571 27.3499 34.9571 25.0536 34.9435C23.9382 34.936 23.1411 34.1444 23.147 33.1025C23.1544 32.0515 23.9352 31.3187 25.0819 31.3082C26.2301 31.2991 27.3782 31.3067 28.5278 31.3067Z"
        fill="#0770E3" />
</svg>