<svg width="61" height="64" viewBox="0 0 61 64" fill="none" xmlns="http://www.w3.org/2000/svg">
<g clip-path="url(#clip0_397_1849)">
<path d="M10.3076 63.8632C10.3028 57.8764 10.2738 51.8895 10.306 45.9043C10.3189 43.4254 12.161 41.1832 14.5876 40.4846C18.9513 39.2287 23.1636 39.5098 27.2326 41.6616C28.4596 42.3093 29.7381 42.8895 31.0505 43.3235C32.0472 43.6539 33.1276 43.8035 34.1791 43.8528C35.9665 43.935 37.7602 43.8693 39.5508 43.8791C40.9195 43.8874 41.6151 44.6337 41.5877 46.0326C41.5346 48.6726 40.1546 50.5301 37.8617 51.0068C37.4527 51.0923 37.0212 51.0923 36.6009 51.0939C33.1599 51.1005 29.7188 51.0775 26.2778 51.1202C25.7738 51.1268 25.2038 51.3257 24.7867 51.6167C24.1684 52.0506 24.0347 52.7706 24.2602 53.4939C24.4953 54.2435 25.0315 54.6906 25.806 54.763C26.3261 54.8106 26.851 54.7876 27.3743 54.7876C30.4128 54.7893 33.4513 54.763 36.4898 54.7991C38.0775 54.8189 39.3737 54.2665 40.4831 53.1208C42.9709 50.5531 45.4651 47.9904 47.9996 45.4704C51.2893 42.2008 56.5805 42.163 59.9249 45.3372C60.9506 46.312 60.9828 47.3723 59.9974 48.3783C55.7448 52.7148 51.489 57.0479 47.2348 61.3843C45.974 62.6715 44.4797 63.4901 42.7068 63.763C42.6118 63.7778 42.5217 63.8304 42.4299 63.8665C31.7235 63.8632 21.0156 63.8632 10.3076 63.8632Z" fill="#A08ED6"/>
<path d="M2.09534 63.8638C1.05675 63.4166 0.70733 62.6161 0.716991 61.4786C0.757247 56.9728 0.733093 52.4671 0.734703 47.9613C0.734703 46.3799 1.38523 45.7093 2.92138 45.706C4.08718 45.7027 5.25298 45.7092 6.41878 45.7142C6.47514 45.7142 6.5331 45.7438 6.68446 45.7849C6.68446 51.7997 6.68446 57.8309 6.68446 63.8638C5.15476 63.8638 3.62505 63.8638 2.09534 63.8638Z" fill="#A08ED6"/>
<path d="M54.4659 20.2115C54.4273 30.9112 45.9688 39.5414 35.5603 39.5052C25.2002 39.469 16.7836 30.7518 16.8303 20.1014C16.8754 9.45424 25.3693 0.80766 35.7294 0.863551C46.0767 0.919441 54.5046 9.62191 54.4659 20.2115ZM31.6556 31.5425C32.488 31.5572 33.0677 31.1299 33.459 30.1797C34.8438 26.8246 36.2221 23.4646 37.6053 20.1079C38.8082 17.1852 40.0207 14.2641 41.2154 11.3381C41.7033 10.1446 41.2058 8.99561 40.0947 8.67506C39.1672 8.40711 38.2929 8.90191 37.8581 9.95561C36.2093 13.9518 34.5636 17.9512 32.9164 21.949C31.9615 24.2685 30.997 26.5846 30.0566 28.9107C29.5301 30.2192 30.3368 31.5178 31.6556 31.5425ZM30.1613 17.2493C31.4189 17.2477 32.5235 16.1562 32.5025 14.9348C32.4784 13.6033 31.4414 12.5315 30.1742 12.5331C28.9166 12.5331 27.8152 13.6246 27.8361 14.8477C27.8571 16.1775 28.8956 17.2493 30.1613 17.2493ZM43.1976 25.7331C43.1831 24.3901 42.1606 23.3249 40.8886 23.3249C39.6262 23.3266 38.5505 24.3967 38.5618 25.6427C38.5747 26.9726 39.6133 28.0559 40.8725 28.0559C42.1284 28.0559 43.2105 26.9742 43.1976 25.7331Z" fill="#A08ED6"/>
</g>
<defs>
<clipPath id="clip0_397_1849">
<rect width="60" height="63" fill="white" transform="translate(0.716797 0.863281)"/>
</clipPath>
</defs>
</svg>
