<svg width="26" height="30" viewBox="0 0 26 30" fill="none" xmlns="http://www.w3.org/2000/svg">
    <g clip-path="url(#clip0_364_134)">
        <path
            d="M22.2202 29.4999C16.5205 29.4999 10.8207 29.4999 5.12098 29.4999C5.07753 29.4826 5.03577 29.4563 4.99061 29.4481C3.69115 29.2197 2.76405 28.5223 2.20677 27.3747C1.70659 26.3446 1.94347 25.2472 1.88127 24.1439C2.03465 24.1439 2.14968 24.1448 2.26557 24.1439C2.90209 24.1374 3.53947 24.1538 4.17344 24.1177C5.21131 24.0593 6.04722 23.1631 6.05149 22.1429C6.05575 21.1177 5.20534 20.2108 4.15299 20.1566C3.50879 20.1237 2.86119 20.141 2.21529 20.1352C2.11134 20.1344 2.00823 20.1352 1.89831 20.1352C1.89831 19.0755 1.89831 18.0586 1.89831 17.0046C2.0142 17.0046 2.11901 17.0055 2.22382 17.0046C2.86034 16.9997 3.49772 17.0153 4.13254 16.9833C5.04088 16.9381 5.80778 16.2842 5.9978 15.4373C6.19293 14.5649 5.7737 13.6802 4.97186 13.2497C4.59949 13.0501 4.19985 12.9951 3.78403 12.9967C3.16028 12.9984 2.53569 12.9967 1.90598 12.9967C1.90598 11.9387 1.90598 10.916 1.90598 9.86615C2.03039 9.86615 2.13605 9.86697 2.24171 9.86615C2.86801 9.86204 3.49601 9.87929 4.12061 9.84726C5.20364 9.7914 6.05319 8.90258 6.05063 7.86179C6.04893 6.83003 5.21301 5.94286 4.14532 5.88289C3.50113 5.84675 2.85352 5.86564 2.20763 5.85825C2.10452 5.85743 2.00227 5.84839 1.88553 5.84264C1.88553 5.25365 1.88297 4.69752 1.88638 4.1414C1.90087 2.05982 3.50453 0.504792 5.66037 0.502328C11.0065 0.498221 16.3518 0.499864 21.6979 0.504792C21.9987 0.504792 22.3072 0.530258 22.5994 0.595974C24.3607 0.995204 25.4864 2.38758 25.4957 4.17754C25.5043 5.75392 25.4974 7.32948 25.4974 8.90586C25.4974 14.5214 25.4974 20.1369 25.4974 25.7515C25.4974 27.176 24.9095 28.3022 23.6151 29.0168C23.1942 29.251 22.688 29.343 22.2202 29.4999ZM19.934 21.0043C19.934 20.5131 19.9374 20.035 19.9332 19.5569C19.9161 17.334 18.2102 15.6895 15.901 15.6747C14.893 15.6681 13.8849 15.6698 12.8777 15.6747C10.744 15.6854 9.11652 17.0523 8.866 19.0953C8.78931 19.7228 8.85407 20.3661 8.85407 21.0043C12.548 21.0043 16.224 21.0043 19.934 21.0043ZM14.3408 14.5205C16.2708 14.5698 17.8958 13.0493 17.9452 11.1493C17.9938 9.27059 16.4327 7.68928 14.4831 7.64164C12.5326 7.59481 10.8727 9.0833 10.8207 10.9267C10.7645 12.908 12.2932 14.4688 14.3408 14.5205Z"
            fill="#0770E3" />
        <path
            d="M2.81519 6.74407C3.19608 6.74407 3.57868 6.7301 3.95872 6.74736C4.56201 6.77364 4.99914 7.13262 5.10566 7.66164C5.20109 8.13644 4.93864 8.65643 4.47424 8.85522C4.30041 8.92997 4.09846 8.97269 3.90844 8.97598C3.17563 8.98994 2.44197 8.99158 1.70915 8.97844C1.12887 8.96776 0.698553 8.65971 0.551139 8.18655C0.412245 7.74132 0.557956 7.23202 0.96782 6.98558C1.19533 6.84839 1.48931 6.78268 1.76113 6.75228C2.10879 6.71368 2.46412 6.74325 2.81604 6.74325C2.81519 6.74325 2.81519 6.74407 2.81519 6.74407Z"
            fill="#0770E3" />
        <path
            d="M2.81008 23.2485C2.39937 23.2485 1.98695 23.274 1.57964 23.2428C0.972938 23.1959 0.569038 22.7934 0.506835 22.2283C0.454004 21.7502 0.770988 21.263 1.25669 21.102C1.4024 21.0536 1.56174 21.0256 1.71512 21.024C2.44794 21.0158 3.1816 21.0141 3.91441 21.0232C4.42738 21.0298 4.82361 21.2433 5.02897 21.7107C5.21388 22.1297 5.13549 22.524 4.83384 22.8715C4.59099 23.1516 4.26122 23.2534 3.89482 23.2584C3.53352 23.2633 3.17138 23.2592 2.80923 23.2592C2.81008 23.2551 2.81008 23.2518 2.81008 23.2485Z"
            fill="#0770E3" />
        <path
            d="M2.80837 16.1134C2.40788 16.1134 2.00568 16.1347 1.60689 16.1085C1.02661 16.0699 0.621857 15.7125 0.523865 15.2007C0.430985 14.7103 0.681505 14.2084 1.14931 14.008C1.32314 13.9332 1.52509 13.8905 1.71511 13.8872C2.44792 13.8733 3.18159 13.8749 3.9144 13.8839C4.42737 13.8905 4.8236 14.1057 5.02811 14.5723C5.21216 14.9913 5.13377 15.3856 4.83212 15.7331C4.58842 16.0132 4.25865 16.1142 3.89225 16.1191C3.53095 16.1241 3.16881 16.12 2.80666 16.12C2.80837 16.1175 2.80837 16.1159 2.80837 16.1134Z"
            fill="#0770E3" />
    </g>
    <defs>
        <clipPath id="clip0_364_134">
            <rect width="25" height="29" fill="white" transform="translate(0.5 0.5)" />
        </clipPath>
    </defs>
</svg>