<svg width="18" height="19" viewBox="0 0 18 19" fill="none" xmlns="http://www.w3.org/2000/svg">
<path d="M3.54919 4.13187C3.61114 3.65473 3.62128 3.2052 3.73335 2.78383C4.08137 1.47916 5.26737 0.551361 6.61724 0.543475C9.39977 0.527138 12.1829 0.523195 14.9654 0.544038C16.6357 0.556431 17.9749 1.90222 17.985 3.57587C18.0036 6.64713 18.0042 9.71839 17.9844 12.7896C17.9737 14.4605 16.6306 15.7792 14.9586 15.8215C14.7632 15.8265 14.5672 15.822 14.3634 15.822C14.2688 16.3662 14.0874 16.8563 13.7586 17.2822C13.1616 18.0551 12.3794 18.5091 11.3978 18.5147C8.60122 18.5311 5.80405 18.5378 3.00744 18.5142C1.37318 18.4995 0.0300627 17.1543 0.016547 15.5195C-0.005979 12.7226 -0.00654216 9.92513 0.0171102 7.12821C0.031189 5.48329 1.41316 4.15384 3.05982 4.13243C3.23383 4.12962 3.40784 4.13187 3.54919 4.13187ZM5.41998 4.13074C5.50783 4.13074 5.59062 4.13074 5.67284 4.13074C7.52054 4.13074 9.36824 4.12849 11.2159 4.13356C11.453 4.13412 11.6952 4.15159 11.9266 4.20116C13.3903 4.51606 14.3938 5.75594 14.3966 7.2527C14.4011 9.42377 14.3977 11.5954 14.3977 13.7665C14.3977 13.8481 14.3977 13.9298 14.3977 14.0307C14.5064 14.0307 14.5898 14.0307 14.6726 14.0307C15.6913 14.0312 16.2004 13.522 16.2004 12.5029C16.2004 11.3222 16.2004 10.142 16.2004 8.96128C16.2004 7.21158 16.2032 5.46189 16.1993 3.71219C16.1976 2.90438 15.6575 2.3326 14.868 2.33035C12.1558 2.32246 9.44426 2.32641 6.73212 2.32866C6.36608 2.32922 6.04733 2.4571 5.78322 2.71792C5.38507 3.11112 5.37662 3.60178 5.41998 4.13074Z" fill="#666666"/>
</svg>
