<svg width="60" height="60" viewBox="0 0 60 60" fill="none" xmlns="http://www.w3.org/2000/svg">
    <g clip-path="url(#clip0_397_1549)">
        <path
            d="M17.5615 59.8632C17.2721 59.7678 16.9781 59.6862 16.6949 59.5754C14.8231 58.8412 13.7656 56.9341 14.1181 54.9392C14.4537 53.0337 16.1592 51.5899 18.1572 51.5745C20.7279 51.5545 23.3 51.5683 25.8722 51.5683C26.08 51.5683 26.2894 51.5683 26.5664 51.5683C26.5664 49.5689 26.5664 47.6048 26.5664 45.6377C28.5568 45.6377 30.4778 45.6377 32.4635 45.6377C32.4635 47.5602 32.4635 49.5273 32.4635 51.5683C32.7314 51.5683 32.9361 51.5683 33.1408 51.5683C35.7499 51.5699 38.3606 51.5329 40.9697 51.5837C42.7476 51.6191 44.0529 52.5165 44.7118 54.1665C45.3675 55.8089 45.0366 57.3296 43.8251 58.6364C43.2017 59.3091 42.3736 59.6062 41.5269 59.8632C33.5395 59.8632 25.5505 59.8632 17.5615 59.8632Z"
            fill="#FF5A5F" />
        <path
            d="M0.0478516 15.8513C0.321848 14.6492 0.689741 13.4886 1.46401 12.4974C2.89864 10.658 4.77659 9.69444 7.10864 9.64211C7.9137 9.6221 8.71875 9.63749 9.53766 9.63749C9.36372 10.5456 9.1513 11.4153 9.04047 12.2973C8.93733 13.1131 8.90501 13.9412 8.90193 14.7646C8.88654 18.0463 8.92348 21.3279 8.88808 24.6095C8.84959 28.1728 9.61155 31.5314 11.2694 34.6868C11.3048 34.753 11.3279 34.8254 11.3971 34.9916C11.1755 34.8992 11.0246 34.8515 10.8876 34.7761C4.58418 31.2451 1.00376 25.8902 0.149446 18.7128C0.130974 18.5634 0.0817163 18.4172 0.0478516 18.2695C0.0478516 17.4644 0.0478516 16.6579 0.0478516 15.8513Z"
            fill="#FF5A5F" />
        <path
            d="M48.573 19.8731C48.573 22.0219 48.7269 24.1845 48.5453 26.3194C47.8818 34.0832 43.9551 39.6799 36.785 42.6906C26.0791 47.1867 14.0248 41.1036 11.1094 29.8719C10.6999 28.2927 10.5275 26.6196 10.486 24.9834C10.3951 21.4154 10.429 17.8429 10.4644 14.2734C10.5275 7.80869 14.7868 2.53839 21.0533 1.17618C21.983 0.974539 22.9543 0.896038 23.9071 0.888342C27.6692 0.856019 31.4328 0.865254 35.1949 0.877568C42.0432 0.899117 47.6463 5.76768 48.496 12.5695C48.7377 14.5012 48.6007 16.4791 48.633 18.4355C48.6407 18.9157 48.6345 19.396 48.6345 19.8747C48.613 19.8731 48.593 19.8731 48.573 19.8731ZM37.039 20.5489C36.9389 19.8239 36.5402 19.3021 35.8598 19.1836C34.8408 19.005 33.808 18.9003 32.792 18.7095C32.5396 18.6618 32.2348 18.4555 32.1132 18.2354C31.6422 17.3811 31.2265 16.493 30.8063 15.611C30.5539 15.0831 30.169 14.7321 29.5718 14.7244C28.9499 14.7167 28.5466 15.0708 28.2834 15.6203C27.8786 16.4668 27.4368 17.2965 27.0473 18.1507C26.8765 18.5263 26.6563 18.6987 26.2377 18.7433C25.3048 18.8403 24.3782 19.0019 23.4469 19.1297C22.8419 19.2128 22.3909 19.4991 22.2139 20.0979C22.0431 20.6735 22.2678 21.1384 22.6926 21.5401C23.3899 22.1989 24.0888 22.8592 24.743 23.5596C24.9185 23.7474 25.0401 24.0952 25.0093 24.3477C24.8923 25.2974 24.7184 26.2424 24.5321 27.1829C24.412 27.7863 24.5198 28.2958 25.0247 28.6683C25.5126 29.0284 26.0283 28.973 26.5424 28.7021C27.4245 28.2373 28.2972 27.757 29.1962 27.3245C29.3948 27.2291 29.718 27.2306 29.9151 27.3261C30.8125 27.7601 31.6837 28.245 32.5657 28.7067C33.0783 28.9746 33.5971 29.0192 34.0835 28.659C34.5684 28.2988 34.6777 27.8001 34.5699 27.2229C34.3914 26.2625 34.2082 25.3004 34.082 24.3323C34.0512 24.0952 34.1589 23.7628 34.3236 23.5888C34.9948 22.8777 35.7305 22.2281 36.4063 21.5201C36.6649 21.243 36.8296 20.8736 37.039 20.5489Z"
            fill="#FF5A5F" />
        <path
            d="M47.7285 35.0317C48.198 33.9004 48.666 32.8783 49.0477 31.824C49.8004 29.7506 50.1729 27.6003 50.1775 25.3946C50.1868 21.6312 50.2268 17.8663 50.156 14.1044C50.1314 12.7945 49.8158 11.4908 49.6296 10.184C49.6049 10.0162 49.5572 9.85309 49.5156 9.66223C51.5629 9.62067 53.5963 9.46059 55.4281 10.5688C58.1404 12.2081 59.2548 14.6662 59.0162 17.7662C58.439 25.27 54.9032 30.9297 48.3796 34.7039C48.1918 34.8147 47.9902 34.9024 47.7285 35.0317Z"
            fill="#FF5A5F" />
    </g>
    <defs>
        <clipPath id="clip0_397_1549">
            <rect width="59" height="59" fill="white" transform="translate(0.0478516 0.863281)" />
        </clipPath>
    </defs>
</svg>