<svg width="54" height="54" viewBox="0 0 54 54" fill="none" xmlns="http://www.w3.org/2000/svg">
    <g clip-path="url(#clip0_427_97)">
        <path
            d="M0 7.47249C2.05005 7.18196 4.09745 6.88366 6.14882 6.60999C6.50811 6.56201 6.68907 6.3934 6.84494 6.09509C7.73259 4.4129 8.63741 2.73979 9.58582 0.970703C9.71395 1.18989 9.80906 1.34034 9.89227 1.49728C10.7271 3.05236 11.5513 4.61264 12.406 6.15735C12.5103 6.34541 12.7652 6.53736 12.9753 6.56979C14.6925 6.83437 16.4096 7.10933 18.1374 7.27794C18.8005 7.34279 19.4926 7.15213 20.1689 7.06264C21.2996 6.91349 22.4277 6.74099 23.5597 6.60351C23.8926 6.5633 24.0762 6.42193 24.2281 6.13141C25.0312 4.59967 25.8554 3.0783 26.6744 1.55305C26.7629 1.38833 26.858 1.22621 26.9967 0.977188C27.1209 1.19378 27.2133 1.34683 27.2979 1.50376C28.1327 3.05885 28.9569 4.61912 29.8129 6.16253C29.9159 6.3493 30.1748 6.53607 30.3875 6.56849C32.1046 6.83308 33.8232 7.10285 35.5496 7.27794C36.1783 7.34149 36.8348 7.15473 37.4768 7.07042C38.5903 6.92516 39.7012 6.75785 40.8174 6.62685C41.2361 6.57757 41.4884 6.41934 41.6878 6.02894C42.4685 4.50499 43.2941 3.00438 44.1051 1.49469C44.1843 1.34553 44.2755 1.20286 44.397 0.995346C44.5199 1.20027 44.6202 1.35202 44.7048 1.51155C45.4986 2.99011 46.3136 4.4583 47.0692 5.95631C47.3043 6.42063 47.6121 6.58276 48.1061 6.64631C49.8986 6.87328 51.6871 7.14176 53.4769 7.39597C53.6143 7.41542 53.7504 7.45174 53.9485 7.49324C53.8006 7.64888 53.6896 7.77339 53.5707 7.89012C52.2353 9.1897 50.8906 10.4802 49.571 11.7953C49.4217 11.9445 49.324 12.2467 49.3583 12.4529C49.6714 14.3582 50.0188 16.2583 50.3556 18.1596C50.3702 18.2414 50.3768 18.3244 50.3952 18.467C50.1773 18.3685 50.0056 18.2971 49.8405 18.2141C48.1695 17.3724 46.4973 16.5358 44.8356 15.6772C44.5185 15.5138 44.2715 15.5229 43.9598 15.6837C42.1422 16.6175 40.3141 17.5306 38.3908 18.502C38.5599 17.5449 38.7131 16.6759 38.8664 15.8082C39.0672 14.6708 39.2745 13.5333 39.4621 12.3945C39.4859 12.2467 39.4661 12.0262 39.3723 11.9367C38.1637 10.785 36.9392 9.65142 35.7015 8.49711C34.4664 9.64883 33.2512 10.772 32.0558 11.9147C31.9501 12.0145 31.9184 12.2545 31.9461 12.4127C32.2737 14.3335 32.6185 16.2505 32.958 18.17C32.9725 18.2517 32.9751 18.3347 32.991 18.4878C32.5207 18.2517 32.102 18.0429 31.6846 17.8315C30.295 17.1311 28.8988 16.4437 27.5198 15.7226C27.1579 15.5333 26.8791 15.5151 26.5053 15.7109C24.878 16.5605 23.2321 17.3737 21.5929 18.1986C21.4225 18.2842 21.2494 18.362 20.9945 18.4839C21.194 17.3542 21.3815 16.2959 21.5678 15.2375C21.7355 14.2868 21.9139 13.3375 22.0631 12.3842C22.0869 12.2272 22.0367 11.9964 21.9284 11.8939C20.7448 10.7642 19.5415 9.65272 18.3025 8.49581C17.6354 9.11836 16.9789 9.73054 16.3225 10.3427C15.8126 10.8174 15.312 11.3038 14.7889 11.7629C14.5564 11.9665 14.4771 12.1559 14.5366 12.475C14.8906 14.3556 15.2142 16.2427 15.5471 18.1272C15.5642 18.2232 15.5695 18.3218 15.5867 18.4852C14.7704 18.074 14.0069 17.6914 13.2447 17.3075C12.1682 16.7641 11.0864 16.2284 10.0178 15.6694C9.7232 15.5151 9.48676 15.5125 9.18823 15.6668C7.52521 16.5241 5.85294 17.3607 4.18199 18.2024C4.01292 18.288 3.83856 18.3646 3.59023 18.4813C3.82271 17.1649 4.0433 15.9159 4.26521 14.6682C4.39994 13.9042 4.54788 13.1416 4.66148 12.3751C4.68526 12.2182 4.63242 11.9899 4.52411 11.8835C3.083 10.4672 1.63 9.06259 0.178322 7.65796C0.134733 7.61516 0.0594408 7.60219 0 7.57625C0 7.54123 0 7.50751 0 7.47249Z"
            fill="#0770E3" />
        <path
            d="M14.3438 53.9708C14.4111 52.2341 14.3187 50.4728 14.5762 48.7634C15.1152 45.1863 17.0278 42.3602 20.1069 40.3991C24.8621 37.372 30.5077 37.6469 34.909 41.1293C38.058 43.6208 39.5876 46.9489 39.6523 50.919C39.6682 51.9358 39.655 52.9539 39.655 53.9708C31.2183 53.9708 22.7804 53.9708 14.3438 53.9708Z"
            fill="#0770E3" />
        <path
            d="M0 48.3784C0.294562 47.4822 0.48081 46.5315 0.9035 45.6975C3.12923 41.2969 9.09577 40.0764 12.9541 43.1918C13.0202 43.2462 13.0823 43.3059 13.077 43.3007C12.6094 44.5575 12.1048 45.752 11.7217 46.9828C11.2343 48.5457 11.1445 50.1682 11.1788 51.7972C11.1934 52.5223 11.1815 53.2473 11.1815 53.9723C7.46709 53.9723 3.75138 53.9723 0.00264181 53.9723C0 52.1072 0 50.2422 0 48.3784Z"
            fill="#0770E3" />
        <path
            d="M42.8199 53.9706C42.7882 51.9564 42.9414 49.9344 42.5187 47.937C42.1806 46.3404 41.6166 44.8282 40.8267 43.3613C42.8318 41.7413 45.0773 41.0851 47.6148 41.6207C51.46 42.4326 53.9895 45.548 54.0001 49.4169C54.004 50.9357 54.0014 52.4531 54.0014 53.9719C50.2725 53.9706 46.5462 53.9706 42.8199 53.9706Z"
            fill="#0770E3" />
        <path
            d="M33.3254 29.0098C33.3267 32.4351 30.4762 35.2288 26.9877 35.2236C23.5005 35.2185 20.6605 32.4131 20.6724 28.9877C20.6843 25.5844 23.5163 22.8076 26.9837 22.7998C30.4735 22.792 33.3254 25.5844 33.3254 29.0098Z"
            fill="#0770E3" />
        <path
            d="M12.7571 33.6533C12.7769 36.1786 10.6436 38.2978 8.04804 38.329C5.46171 38.3601 3.26636 36.2162 3.27296 33.6663C3.27957 31.1294 5.4234 29.0231 8.00842 29.0166C10.5855 29.0088 12.7373 31.11 12.7571 33.6533Z"
            fill="#0770E3" />
        <path
            d="M45.9052 38.3274C43.2858 38.2509 41.179 36.12 41.2411 33.609C41.3058 31.0215 43.5236 28.9204 46.0862 29.019C48.7201 29.1188 50.8097 31.2576 50.7226 33.762C50.6341 36.3404 48.4598 38.4013 45.9052 38.3274Z"
            fill="#0770E3" />
    </g>
    <defs>
        <clipPath id="clip0_427_97">
            <rect width="54" height="53" fill="white" transform="translate(0 0.970703)" />
        </clipPath>
    </defs>
</svg>