<svg width="33" height="25" viewBox="0 0 33 25" fill="none" xmlns="http://www.w3.org/2000/svg">
    <g clip-path="url(#clip0_95_618)">
        <path
            d="M32 4.83349C32 10.612 32 16.3906 32 22.1692C31.9848 22.1939 31.9624 22.2169 31.9563 22.244C31.582 23.9947 30.3226 24.9989 28.4948 24.9995C26.1234 25.0007 23.7527 24.9995 21.3813 24.9995C21.2745 24.9995 21.1678 24.9995 21.0416 24.9995C21.0416 24.855 21.0416 24.7483 21.0416 24.6416C21.0416 23.3249 21.0428 22.0082 21.041 20.6915C21.0404 20.0942 20.6703 19.692 20.1304 19.6932C19.5911 19.6944 19.2259 20.0971 19.2253 20.6962C19.2241 22.0229 19.2247 23.3496 19.2247 24.6758C19.2247 24.7789 19.2247 24.8827 19.2247 24.9989C19.0797 24.9989 18.9796 24.9989 18.8795 24.9989C14.0864 24.9989 9.29389 24.9995 4.50079 24.9983C2.4285 24.9977 1.00106 23.6091 1.00045 21.5931C0.999848 16.199 0.999848 10.8037 1.00045 5.40899C1.00106 3.39239 2.42789 2.00376 4.50019 2.00317C9.29329 2.002 14.0858 2.00259 18.8789 2.00259C18.9863 2.00259 19.0936 2.00259 19.2247 2.00259C19.2247 2.14233 19.2247 2.24847 19.2247 2.35461C19.2247 3.69075 19.2259 5.02748 19.2241 6.36363C19.2235 6.76754 19.4006 7.06944 19.7779 7.23395C20.3888 7.49988 21.0361 7.05646 21.0391 6.36893C21.0452 5.02277 21.041 3.6766 21.041 2.33043C21.041 2.22665 21.041 2.12287 21.041 2.02263C21.1113 2.01202 21.1405 2.00435 21.1696 2.00435C23.712 2.00435 26.2551 1.98961 28.7975 2.01438C29.8343 2.0244 30.6708 2.49022 31.3163 3.28271C31.6894 3.74087 31.8568 4.28099 32 4.83349ZM11.783 11.444C11.7393 11.503 11.7211 11.536 11.695 11.562C10.6898 12.542 9.68579 13.5243 8.67269 14.4967C8.59322 14.5733 8.44399 14.6128 8.3263 14.6146C7.5595 14.6252 6.7927 14.6152 6.0259 14.6217C5.47567 14.6264 5.08499 15.0226 5.10441 15.5397C5.12321 16.0433 5.52238 16.3847 6.10476 16.3877C6.73689 16.3912 7.36901 16.3882 8.02661 16.3882C8.02661 17.0386 8.02358 17.656 8.02722 18.2728C8.03025 18.8471 8.40455 19.2368 8.94143 19.2345C9.47771 19.2321 9.83987 18.8441 9.8423 18.2633C9.84473 17.5457 9.83381 16.8287 9.85079 16.1117C9.85383 15.9743 9.9242 15.8057 10.0231 15.7078C10.9773 14.7614 11.9437 13.8262 12.9083 12.8893C12.9611 12.838 13.0242 12.7955 13.0933 12.7401C13.1054 12.7961 13.1133 12.8244 13.1176 12.8533C13.3536 14.397 13.5853 15.9413 13.828 17.4844C13.9141 18.0304 14.3539 18.35 14.8726 18.2739C15.3779 18.1996 15.691 17.7462 15.6103 17.2031C15.3203 15.2602 15.0315 13.3174 14.7337 11.3756C14.7064 11.1987 14.7488 11.0861 14.8768 10.9641C15.4465 10.4216 16.0095 9.87145 16.5694 9.31895C16.9067 8.9858 16.9722 8.58424 16.7641 8.2163C16.4735 7.70213 15.7771 7.60779 15.3191 8.03941C14.7319 8.5925 14.1659 9.168 13.5768 9.71932C13.4864 9.80364 13.3129 9.8626 13.1898 9.84609C11.1733 9.57073 9.15922 9.28003 7.14395 8.99523C6.63436 8.92329 6.17271 9.23993 6.09142 9.7093C6.00588 10.2022 6.33165 10.6504 6.857 10.7335C7.52371 10.8397 8.19283 10.9293 8.86075 11.0254C9.82471 11.1628 10.7881 11.3013 11.783 11.444ZM25.5514 16.1547C26.1356 16.1547 26.7198 16.1565 27.3034 16.1542C27.8924 16.1518 28.3001 15.7921 28.3049 15.2773C28.3098 14.762 27.8997 14.3876 27.3185 14.3864C26.1604 14.3834 25.0024 14.3834 23.8443 14.3864C23.2625 14.3876 22.853 14.762 22.8579 15.2768C22.8627 15.7903 23.2722 16.1512 23.8588 16.1536C24.4236 16.1565 24.9878 16.1547 25.5514 16.1547ZM25.5823 19.6926C26.1562 19.6926 26.7301 19.6944 27.304 19.692C27.8924 19.6897 28.3007 19.3294 28.3049 18.8147C28.3092 18.2999 27.8997 17.9261 27.3179 17.9249C26.1598 17.9219 25.0017 17.9219 23.8437 17.9249C23.2625 17.9261 22.853 18.3011 22.8585 18.8164C22.8633 19.3194 23.2686 19.6879 23.8303 19.692C24.4145 19.6956 24.9987 19.6926 25.5823 19.6926ZM25.5768 9.07837C26.1708 9.07837 26.7653 9.08309 27.3592 9.07719C27.9003 9.07188 28.2976 8.69982 28.3049 8.20628C28.3122 7.70154 27.9082 7.31414 27.3531 7.31178C26.175 7.30707 24.9969 7.30766 23.8188 7.31178C23.2619 7.31355 22.856 7.69388 22.8579 8.19744C22.8597 8.701 23.2649 9.07424 23.8242 9.07837C24.4091 9.0825 24.9933 9.07896 25.5768 9.07837ZM25.6138 10.8479C25.0199 10.8479 24.4254 10.845 23.8315 10.8485C23.2698 10.852 22.8639 11.2206 22.8585 11.7224C22.853 12.2265 23.2576 12.6121 23.8127 12.6145C24.9908 12.6192 26.1689 12.6192 27.347 12.6145C27.9051 12.6121 28.308 12.2312 28.3049 11.7259C28.3019 11.2217 27.8973 10.852 27.3355 10.8479C26.7616 10.845 26.1877 10.8479 25.6138 10.8479ZM19.2253 16.1253C19.2253 16.4289 19.2186 16.7332 19.2271 17.0363C19.241 17.5375 19.6317 17.9184 20.1255 17.9225C20.6181 17.9266 21.027 17.5481 21.0373 17.051C21.0501 16.4537 21.0501 15.8552 21.0373 15.2579C21.027 14.7602 20.6181 14.3823 20.1249 14.3864C19.6311 14.3905 19.2404 14.7708 19.2265 15.2726C19.2186 15.5563 19.2253 15.8411 19.2253 16.1253ZM21.0397 10.8503C21.0397 10.5466 21.0501 10.2423 21.0373 9.93926C21.0179 9.45575 20.6242 9.08545 20.1431 9.07955C19.6499 9.07365 19.2386 9.45162 19.2283 9.9481C19.2156 10.5454 19.2162 11.1439 19.2277 11.7412C19.2374 12.2389 19.6439 12.618 20.1371 12.6157C20.6303 12.6133 21.0228 12.2336 21.0385 11.7324C21.0476 11.4387 21.0404 11.1445 21.0397 10.8503Z"
            fill="#0770E3" />
    </g>
    <defs>
        <clipPath id="clip0_95_618">
            <rect width="33" height="25" fill="white" />
        </clipPath>
    </defs>
</svg>