<svg width="25" height="18" viewBox="0 0 25 18" fill="none" xmlns="http://www.w3.org/2000/svg">
<g clip-path="url(#clip0_469_471)">
<path d="M5.74167 17.7453V9.03304L2.86589 6.56117L0.287109 5.18945V16.2078C0.287109 17.0585 1.0207 17.7453 1.92352 17.7453H5.74167Z" fill="#4285F4"/>
<path d="M18.833 17.7452H22.6512C23.5567 17.7452 24.2876 17.0559 24.2876 16.2077V5.18945L21.3667 6.76059L18.833 9.03295V17.7452Z" fill="#34A853"/>
<path d="M5.74168 9.03333L5.35037 5.62919L5.74168 2.37109L12.2871 6.98347L18.8326 2.37109L19.2703 5.45329L18.8326 9.03333L12.2871 13.6457L5.74168 9.03333Z" fill="#EA4335"/>
<path d="M18.833 2.37088V9.03312L24.2876 5.18953V3.13958C24.2876 1.23831 21.9776 0.154447 20.3604 1.29468L18.833 2.37088Z" fill="#FBBC04"/>
<path d="M0.287109 5.18957L2.79577 6.95739L5.74167 9.03316V2.37092L4.2143 1.29472C2.5943 0.1544 0.287109 1.23835 0.287109 3.13953V5.18957Z" fill="#C5221F"/>
</g>
<defs>
<clipPath id="clip0_469_471">
<rect width="24" height="17" fill="white" transform="translate(0.287109 0.829102)"/>
</clipPath>
</defs>
</svg>
