<svg width="23" height="23" viewBox="0 0 23 23" fill="none" xmlns="http://www.w3.org/2000/svg">
<path d="M22.3513 11.979C22.3513 11.2239 22.2889 10.4646 22.1556 9.72168H11.4655V13.9996H17.5872C17.3332 15.3794 16.517 16.5999 15.3218 17.3755V20.1513H18.974C21.1187 18.2164 22.3513 15.359 22.3513 11.979Z" fill="#4285F4"/>
<path d="M11.4645 22.8313C14.5212 22.8313 17.099 21.8475 18.9771 20.1494L15.3249 17.3736C14.3088 18.0512 12.997 18.435 11.4687 18.435C8.51194 18.435 6.00497 16.4797 5.10545 13.8508H1.33665V16.7123C3.26061 20.4637 7.17933 22.8313 11.4645 22.8313Z" fill="#34A853"/>
<path d="M5.10183 13.8513C4.62708 12.4716 4.62708 10.9776 5.10183 9.59783V6.73633H1.33719C-0.270275 9.87541 -0.270275 13.5737 1.33719 16.7128L5.10183 13.8513Z" fill="#FBBC04"/>
<path d="M11.4645 5.0094C13.0803 4.98491 14.642 5.58089 15.8122 6.67487L19.0479 3.50313C16.999 1.61723 14.2797 0.580397 11.4645 0.613053C7.17933 0.613053 3.26061 2.98063 1.33665 6.7361L5.10129 9.59761C5.99664 6.9647 8.50778 5.0094 11.4645 5.0094Z" fill="#FE2C25"/>
</svg>
