<svg width="34" height="35" viewBox="0 0 34 35" fill="none" xmlns="http://www.w3.org/2000/svg">
    <g clip-path="url(#clip0_50_5049)">
        <path
            d="M19.6906 30.5474C16.2159 30.5474 12.7257 30.5474 9.25097 30.5474C9.20423 30.5318 9.17307 30.5006 9.12632 30.5006C6.10351 30.0799 4 27.6648 4 24.6264C4 20.0298 4 15.4177 4 10.8212C4 10.3693 4.04674 9.90184 4.14023 9.46556C4.74791 6.78554 7.00723 4.9625 9.74958 4.90017C9.9054 4.90017 10.0301 4.88459 10.108 4.69761C10.7468 3.31086 11.8375 2.59411 13.3801 2.56294C14.1124 2.54736 14.8292 2.54736 15.5459 2.54736C17.1196 2.56294 18.2415 3.27969 18.8959 4.69761C18.9583 4.85343 19.0362 4.88459 19.1764 4.90017C19.5348 4.91576 19.8932 4.93134 20.236 4.99366C23.0562 5.53902 24.9883 7.90741 24.9883 10.7744C24.9883 11.834 24.9883 12.9091 24.9883 13.9686C24.9883 14.0777 24.9883 14.2023 24.9883 14.3114C22.9783 14.81 21.5136 15.9631 20.7501 17.864C19.9711 19.7805 20.2204 21.6192 21.389 23.3487C21.3267 23.4266 21.2643 23.4734 21.2176 23.5357C20.3139 24.6108 20.0801 25.8262 20.5632 27.135C20.8592 27.9452 21.4046 28.5685 22.059 29.1294C22.1992 29.2385 22.3395 29.3476 22.542 29.5346C21.9499 29.7995 21.4201 30.0643 20.8748 30.2669C20.5008 30.4071 20.0957 30.4695 19.6906 30.5474ZM11.1208 15.3865C11.6973 15.3865 12.2894 15.1684 12.7257 14.7321C13.6138 13.8596 14.5019 12.9714 15.3745 12.0833C15.6238 11.8184 15.7329 11.4912 15.6861 11.1328C15.6082 10.6809 15.3434 10.3381 14.8759 10.1979C14.4396 10.0577 14.0345 10.1511 13.6917 10.4784C12.8815 11.2886 12.0868 12.0833 11.2766 12.9091C11.1208 13.0805 11.0117 13.0649 10.8559 12.9091C10.3884 12.4261 9.92098 11.9586 9.43795 11.5067C8.98609 11.0393 8.26934 11.0705 7.83306 11.5379C7.39677 11.9742 7.38119 12.6754 7.81747 13.1272C8.34725 13.6726 8.87702 14.2023 9.42237 14.7321C9.88982 15.184 10.4508 15.371 11.1208 15.3865ZM11.074 22.3826C11.6973 22.3671 12.2738 22.1801 12.7257 21.7282C13.6138 20.8557 14.4864 19.9831 15.3589 19.1105C15.6238 18.8456 15.7329 18.5184 15.6706 18.1601C15.6082 17.6926 15.3434 17.3498 14.8915 17.194C14.4396 17.0538 14.0189 17.1473 13.6917 17.49C12.8971 18.2847 12.0868 19.0794 11.2922 19.8896C11.1208 20.061 11.0117 20.061 10.8559 19.8896C10.404 19.4222 9.93656 18.9547 9.46912 18.5028C9.00167 18.051 8.3005 18.0821 7.84864 18.534C7.41235 18.9859 7.38119 19.6715 7.81747 20.1389C8.34725 20.6998 8.90818 21.2452 9.45353 21.775C9.9054 22.1801 10.4663 22.3671 11.074 22.3826Z"
            fill="#0770E3" />
        <path
            d="M27.0763 30.5474C26.3752 30.2981 26.1103 29.7839 26.157 29.0516C26.1726 28.7867 26.157 28.5063 26.157 28.2258C25.8142 28.1946 25.5026 28.1946 25.191 28.1323C24.1782 27.9297 23.3991 27.3844 22.8693 26.5118C22.511 25.9353 22.6668 25.2341 23.2121 24.8913C23.7575 24.5485 24.4431 24.6888 24.817 25.2497C25.0975 25.686 25.5026 25.8886 26.0168 25.873C26.827 25.8574 27.6373 25.873 28.4475 25.873C29.1643 25.873 29.6785 25.3588 29.6629 24.7044C29.6629 24.2369 29.3668 23.8941 28.8682 23.8006C27.7152 23.5981 26.5466 23.4267 25.3935 23.2085C24.0691 22.9592 23.1654 22.1957 22.7914 20.8869C22.433 19.578 22.7914 18.4406 23.7575 17.4901C24.4119 16.8824 25.2066 16.5708 26.157 16.5396C26.157 16.1657 26.157 15.7917 26.157 15.4178C26.1726 14.8101 26.531 14.3426 27.0919 14.2336C27.8087 14.0933 28.4631 14.6075 28.4943 15.3243C28.5098 15.7138 28.4943 16.1034 28.4943 16.5241C30.0836 16.5241 31.2989 17.1473 32.0001 18.612C32.0001 18.7834 32.0001 18.9392 32.0001 19.1106C31.4859 20.2636 30.5199 20.3727 29.7564 19.3599C29.5538 19.095 29.3045 18.908 28.9773 18.908C27.9801 18.8925 26.9984 18.8769 26.0012 18.908C25.4559 18.9236 25.0196 19.4534 25.004 19.9987C24.9884 20.5129 25.3156 20.8713 25.9077 20.9648C26.9517 21.1362 28.0112 21.3076 29.0552 21.479C30.3173 21.6815 31.2522 22.3048 31.7508 23.5046C31.8599 23.7539 31.9066 24.0344 31.9845 24.3148C31.9845 24.5953 31.9845 24.8602 31.9845 25.1406C31.9689 25.1874 31.9378 25.2341 31.9378 25.2965C31.6417 26.7767 30.7536 27.7116 29.3201 28.1167C29.0552 28.1946 28.7903 28.2102 28.4943 28.2414C28.4943 28.5218 28.4787 28.8179 28.4943 29.1139C28.541 29.8307 28.245 30.3137 27.5594 30.563C27.4036 30.5474 27.2322 30.5474 27.0763 30.5474Z"
            fill="#0770E3" />
    </g>
    <defs>
        <clipPath id="clip0_50_5049">
            <rect width="28" height="28" fill="white" transform="translate(4 2.54736)" />
        </clipPath>
    </defs>
</svg>