<svg width="44" height="55" viewBox="0 0 44 55" fill="none" xmlns="http://www.w3.org/2000/svg">
<path d="M29.3333 0.0551758C29.3333 0.319587 29.3333 0.523905 29.3333 0.728223C29.3333 3.7329 29.3333 6.72555 29.3333 9.73023C29.3333 13.0354 31.6962 15.355 35.0629 15.367C37.8175 15.367 40.5598 15.367 43.3144 15.367C43.5225 15.367 43.7307 15.367 44 15.367C44 15.6074 44 15.8117 44 16.004C44 26.2199 44 36.4358 44 46.6637C44 50.9423 40.8047 54.0672 36.4341 54.0672C26.8114 54.0672 17.1886 54.0672 7.56594 54.0672C3.19533 54.0552 0 50.9183 0 46.6396C0 33.5873 0 20.5471 0 7.49475C0 3.16802 3.18308 0.0551758 7.59043 0.0551758C14.6177 0.0551758 21.645 0.0551758 28.6722 0.0551758C28.8681 0.0551758 29.0518 0.0551758 29.3333 0.0551758ZM15.6216 16.1482C15.5849 16.04 15.5726 15.9679 15.5481 15.8958C15.2421 14.9704 14.6055 14.4536 13.7362 14.4536C12.8792 14.4656 12.2304 15.0064 11.9366 15.9199C11.8753 16.0881 11.6427 16.2684 11.4591 16.3285C9.43906 16.9775 8.14135 18.8765 8.27602 21.0158C8.39844 23.095 9.94101 24.8497 12.0467 25.1742C12.8548 25.2944 13.6873 25.2343 14.5075 25.2584C15.2298 25.2704 15.5971 25.5829 15.6093 26.1958C15.6216 26.8208 15.2298 27.1694 14.4953 27.1694C13.0874 27.1694 11.6672 27.1694 10.2593 27.1694C9.09627 27.1694 8.27602 27.9265 8.28826 28.9722C8.3005 30.0178 9.12076 30.7509 10.296 30.7629C10.847 30.7629 11.3856 30.7629 11.9121 30.7629C11.9733 30.9673 12.0223 31.1115 12.0712 31.2557C12.3528 32.0009 13.0506 32.4696 13.8342 32.4576C14.6177 32.4456 15.3278 31.9408 15.5237 31.1716C15.6216 30.787 15.8175 30.6428 16.1725 30.5346C18.1436 29.9096 19.429 27.9626 19.2821 25.8593C19.1352 23.8041 17.6294 22.0734 15.5971 21.7489C14.7524 21.6167 13.8831 21.6768 13.0262 21.6528C12.3283 21.6408 11.9488 21.3042 11.961 20.6913C11.961 20.0783 12.3406 19.7418 13.0506 19.7418C14.4585 19.7418 15.8787 19.7418 17.2866 19.7418C18.4619 19.7418 19.2821 18.9966 19.2944 17.963C19.3066 16.9054 18.4619 16.1482 17.2621 16.1482C16.6989 16.1482 16.1848 16.1482 15.6216 16.1482ZM22.0245 34.2604C21.5103 34.2604 20.9961 34.2604 20.4819 34.2604C17.0662 34.2604 13.6505 34.2604 10.2348 34.2604C9.32888 34.2604 8.66778 34.681 8.3862 35.4142C7.89649 36.6521 8.82693 37.854 10.2716 37.854C17.4335 37.854 24.5954 37.854 31.7451 37.854C32.4674 37.854 33.202 37.866 33.9243 37.854C34.7201 37.842 35.3812 37.3732 35.6383 36.6761C36.0913 35.4743 35.1976 34.2604 33.8264 34.2604C29.8965 34.2484 25.9544 34.2604 22.0245 34.2604ZM22.0612 41.4596C20.4574 41.4596 18.8536 41.4596 17.2499 41.4596C14.8625 41.4596 12.4752 41.4476 10.0879 41.4596C9.12076 41.4596 8.34947 42.1567 8.26377 43.0701C8.16583 43.9595 8.76572 44.7888 9.65943 44.9931C9.91653 45.0532 10.1859 45.0532 10.4552 45.0532C18.1436 45.0532 25.8442 45.0532 33.5326 45.0532C33.704 45.0532 33.8753 45.0652 34.0467 45.0412C34.818 44.957 35.3689 44.5604 35.626 43.8393C36.0668 42.6374 35.1608 41.4476 33.7896 41.4476C29.8843 41.4476 25.9666 41.4596 22.0612 41.4596ZM28.4151 30.6548C30.1658 30.6548 31.9288 30.6548 33.6795 30.6548C34.9037 30.6548 35.7362 29.9337 35.7362 28.864C35.7485 27.8063 34.9037 27.0492 33.704 27.0492C30.1781 27.0492 26.64 27.0492 23.1141 27.0492C21.9021 27.0492 21.0696 27.7943 21.0818 28.864C21.094 29.9216 21.9265 30.6428 23.1386 30.6548C24.9015 30.6548 26.6644 30.6548 28.4151 30.6548ZM31.1085 23.4556C32.0022 23.4556 32.9082 23.4676 33.8019 23.4556C34.9282 23.4436 35.7362 22.6864 35.7485 21.6648C35.7607 20.6432 34.9405 19.862 33.8264 19.85C32.0512 19.8379 30.276 19.8379 28.5008 19.85C27.3868 19.85 26.5787 20.6312 26.5787 21.6648C26.591 22.6864 27.399 23.4436 28.5253 23.4556C29.3945 23.4676 30.2515 23.4556 31.1085 23.4556Z" fill="#3A6AAB"/>
</svg>
