<svg width="54" height="54" viewBox="0 0 54 54" fill="none" xmlns="http://www.w3.org/2000/svg">
<path d="M27.015 3.01229e-05C41.965 0.0220549 54.0426 12.131 54.0017 27.0575C53.9608 41.9745 41.8391 54.0504 26.9584 54C12.0258 53.9497 -0.0392295 41.8534 9.58616e-05 26.9709C0.0394212 12.0366 12.117 -0.0219946 27.015 3.01229e-05ZM23.8501 27.0024C23.8501 25.629 23.8501 24.2572 23.8501 22.8838C23.8501 20.922 23.8611 18.9602 23.8438 17C23.8344 15.8453 23.018 15.054 21.9185 15.0791C20.8032 15.1043 20.0828 15.9381 20.0828 17.2265C20.0796 23.738 20.0812 30.251 20.0828 36.7625C20.0828 36.9576 20.0906 37.1558 20.1237 37.3477C20.2967 38.3278 21.0989 38.965 22.0868 38.9178C23.1313 38.869 23.8438 38.062 23.847 36.8899C23.8533 33.5941 23.8486 30.2982 23.8501 27.0024ZM30.1532 26.9772C30.1532 30.3313 30.1438 33.6853 30.1579 37.0394C30.1626 38.1029 30.9381 38.8848 31.948 38.9178C32.9752 38.9508 33.779 38.2492 33.9033 37.1967C33.9237 37.0221 33.919 36.8443 33.919 36.6681C33.919 30.2149 33.9206 23.7616 33.9174 17.3083C33.9174 17.0928 33.9127 16.8757 33.8765 16.6649C33.7035 15.6533 32.8887 15.0178 31.8678 15.0838C30.8422 15.1499 30.1548 15.9381 30.1532 17.0912C30.1469 20.3871 30.1516 23.6829 30.1532 26.9772Z" fill="#A08ED6"/>
</svg>
