<svg width="11" height="12" viewBox="0 0 11 12" fill="none" xmlns="http://www.w3.org/2000/svg">
<g clip-path="url(#clip0_581_1222)">
<path d="M5.5 0.124023C2.46245 0.124023 0 2.58648 0 5.62402C0 8.66174 2.46245 11.124 5.5 11.124C8.53772 11.124 11 8.66174 11 5.62402C11 2.58648 8.53772 0.124023 5.5 0.124023ZM5.5 10.4474C2.84642 10.4474 0.6875 8.2776 0.6875 5.624C0.6875 2.97042 2.84642 0.811502 5.5 0.811502C8.15358 0.811502 10.3125 2.97043 10.3125 5.624C10.3125 8.27757 8.15358 10.4474 5.5 10.4474ZM7.90625 5.28027H5.84375V3.21777C5.84375 3.02802 5.68975 2.87402 5.5 2.87402C5.31025 2.87402 5.15625 3.02802 5.15625 3.21777V5.28027H3.09375C2.904 5.28027 2.75 5.43427 2.75 5.62402C2.75 5.81377 2.904 5.96777 3.09375 5.96777H5.15625V8.03027C5.15625 8.22002 5.31025 8.37402 5.5 8.37402C5.68975 8.37402 5.84375 8.22002 5.84375 8.03027V5.96777H7.90625C8.096 5.96777 8.25 5.81377 8.25 5.62402C8.25 5.43427 8.096 5.28027 7.90625 5.28027Z" fill="black"/>
</g>
<defs>
<clipPath id="clip0_581_1222">
<rect width="11" height="11" fill="white" transform="translate(0 0.124023)"/>
</clipPath>
</defs>
</svg>
