<svg width="60" height="58" viewBox="0 0 60 58" fill="none" xmlns="http://www.w3.org/2000/svg">
    <g clip-path="url(#clip0_397_1829)">
        <path
            d="M0.547852 50.5165C1.06344 49.6168 1.99149 49.3268 2.91955 49.1053C5.3051 48.5357 7.70296 48.5402 10.0731 49.196C10.6133 49.3462 11.1489 49.6034 11.6076 49.9172C12.3217 50.4049 12.3063 51.0444 11.6153 51.5693C10.8072 52.1835 9.83456 52.4139 8.84802 52.5656C6.64562 52.9047 4.46015 52.8779 2.31931 52.1939C1.60057 51.9649 0.932617 51.6511 0.549391 50.9626C0.547852 50.8139 0.547852 50.6652 0.547852 50.5165Z"
            fill="#58BBFF" />
        <path
            d="M0.547438 53.6333C1.31851 53.892 2.07573 54.2132 2.86527 54.3991C5.89107 55.1114 8.863 54.9894 11.7395 53.7388C11.838 53.6957 11.9442 53.666 12.1212 53.6035C12.1212 54.3917 12.1951 55.1337 12.0873 55.849C12.0396 56.1687 11.6779 56.5107 11.3686 56.7144C10.399 57.3524 9.26931 57.5799 8.12732 57.7494C7.9411 57.7777 7.75795 57.8238 7.57326 57.8624C6.72832 57.8624 5.88337 57.8624 5.03842 57.8624C4.87528 57.8238 4.71522 57.7777 4.55054 57.7494C3.07458 57.507 1.61863 57.223 0.545898 56.0809C0.547438 55.266 0.547438 54.4496 0.547438 53.6333Z"
            fill="#58BBFF" />
        <path
            d="M33.0637 12.9686C32.4234 13.5471 31.8478 14.0631 31.2799 14.585C30.7489 15.0713 30.6781 15.6587 31.0844 16.1063C31.5138 16.5777 32.1433 16.5762 32.7051 16.0765C33.707 15.1843 34.6951 14.2772 35.7001 13.3879C35.8617 13.2452 36.0756 13.1589 36.3696 12.9864C36.3696 14.0571 36.368 14.9657 36.3696 15.8728C36.3727 16.6922 36.7313 17.1308 37.3992 17.1398C38.0918 17.1487 38.4581 16.707 38.4612 15.8505C38.4642 14.9612 38.4612 14.072 38.4612 13.0177C38.7397 13.1649 38.9567 13.2333 39.1091 13.3686C40.1434 14.2817 41.1638 15.2096 42.1903 16.133C42.5859 16.4884 43.0337 16.5806 43.5062 16.307C43.9325 16.0602 44.1034 15.6587 43.9633 15.2066C43.8864 14.9583 43.6894 14.7233 43.4924 14.533C42.9506 14.0125 42.3796 13.5188 41.7794 12.976C42.2904 12.7961 42.7367 12.6013 43.2046 12.4942C43.3877 12.4526 43.6401 12.576 43.8248 12.6816C47.3339 14.6817 50.2304 17.336 52.5959 20.5198C56.639 25.9594 58.923 32.0429 59.4863 38.7124C59.6895 41.1214 59.3955 43.4947 58.3012 45.7134C56.6898 48.9774 53.8303 50.6504 50.3073 51.382C49.1546 51.6214 47.951 51.73 46.769 51.7374C40.7421 51.7716 34.7135 51.7538 28.685 51.7538C28.4588 51.7538 28.2341 51.7538 27.9417 51.7538C27.9417 51.4861 27.9417 51.269 27.9417 51.0534C27.9417 47.6956 27.9186 44.3393 27.954 40.9816C27.9663 39.7503 27.4476 38.8402 26.4519 38.1443C25.0913 37.1911 23.5276 36.7539 21.8855 36.623C20.7681 36.5338 19.6353 36.6052 18.4456 36.6052C18.4456 36.284 18.4456 36.0669 18.4456 35.8483C18.4456 31.1373 18.4164 26.4249 18.4626 21.7154C18.4764 20.2834 17.83 19.3138 16.648 18.5941C15.2521 17.7435 13.6899 17.3955 12.0708 17.2394C11.7676 17.2096 11.4645 17.1903 11.1182 17.1621C11.1182 14.7322 11.1182 12.3336 11.1182 9.87107C14.9535 11.4741 18.7765 11.4979 22.6642 9.83984C22.6642 10.2086 22.6642 10.5328 22.6642 10.857C22.6642 12.6742 22.675 14.4928 22.6519 16.31C22.6488 16.5583 22.5272 16.8423 22.3703 17.0446C21.8531 17.7123 21.2837 18.3413 20.7558 19.0015C20.2587 19.6246 20.3002 20.2373 20.8312 20.6105C21.3606 20.9838 21.9501 20.8395 22.4503 20.1986C24.7512 17.2513 27.4707 14.7501 30.7474 12.8243C31.2276 12.5418 31.6416 12.3976 32.1649 12.6875C32.405 12.8169 32.7005 12.8571 33.0637 12.9686ZM38.4566 23.2322C38.4566 22.8634 38.4704 22.5496 38.4535 22.2374C38.4227 21.6515 38.0056 21.25 37.4377 21.2381C36.8452 21.2262 36.4019 21.6366 36.3727 22.2448C36.3573 22.5719 36.3696 22.8991 36.3696 23.2143C33.7624 23.6114 32.3049 24.9691 32.1556 27.1164C32.0925 28.0116 32.3403 28.8458 32.8605 29.5908C33.6901 30.776 34.8952 31.3366 36.3203 31.4273C36.3203 32.8073 36.3203 34.1293 36.3203 35.4527C35.0598 35.3516 34.4565 34.7509 34.2549 33.4363C34.1518 32.7671 33.7178 32.3865 33.1129 32.4355C32.4927 32.4861 32.1064 32.9768 32.151 33.6609C32.2726 35.5182 33.6131 37.0201 35.5077 37.4156C35.7817 37.4722 36.0602 37.5049 36.3711 37.5539C36.3711 37.8989 36.3588 38.2127 36.3742 38.525C36.405 39.1421 36.8344 39.5392 37.4392 39.5273C38.0148 39.5154 38.4242 39.1243 38.455 38.5324C38.4719 38.2053 38.4581 37.8751 38.4581 37.5599C41.1314 37.1257 42.5982 35.7278 42.6782 33.5582C42.7121 32.6229 42.4273 31.7664 41.8425 31.0109C41.0068 29.9343 39.854 29.4361 38.4627 29.341C38.4627 28.6331 38.4627 27.9684 38.4627 27.3022C38.4627 26.6465 38.4627 25.9907 38.4627 25.3334C39.7278 25.3958 40.3912 26.0397 40.5681 27.2874C40.6666 27.9848 41.1253 28.4056 41.7209 28.3461C42.3565 28.2837 42.7582 27.7632 42.6644 27.0539C42.6089 26.6346 42.5305 26.2033 42.3627 25.8167C41.6516 24.1809 40.3157 23.3794 38.4566 23.2322ZM57.3824 41.0768C57.3824 40.9102 57.3886 40.7437 57.3809 40.5771C57.3563 40.0076 56.9869 39.609 56.4451 39.56C55.8895 39.5094 55.4016 39.8752 55.3031 40.4373C55.2677 40.6366 55.2893 40.8448 55.2693 41.047C54.983 44.0404 53.5794 46.1922 50.6644 47.0681C49.544 47.4041 48.345 47.5127 47.1738 47.6807C46.4412 47.7863 46.018 48.1462 46.0503 48.7588C46.0826 49.3581 46.5536 49.7522 47.2877 49.7165C47.9757 49.6838 48.6652 49.6139 49.3454 49.5098C54.1258 48.7767 57.1639 45.5736 57.3824 41.0768Z"
            fill="#58BBFF" />
        <path
            d="M4.81348 24.111C8.6519 25.7244 12.4611 25.7289 16.3041 24.1035C16.3041 28.3907 16.3041 32.6451 16.3041 36.846C15.5054 37.2103 14.6989 37.5152 13.9586 37.9271C12.7196 38.6156 12.0763 39.6298 12.1225 41.0826C12.1887 43.1214 12.1394 45.1631 12.1394 47.2033C12.1394 47.4026 12.1394 47.6018 12.1394 47.9186C9.78003 46.7869 7.36217 46.488 4.81348 46.7498C4.81348 39.1866 4.81348 31.6726 4.81348 24.111Z"
            fill="#58BBFF" />
        <path
            d="M14.2468 43.4219C18.1098 45.0651 21.9159 45.0636 25.7867 43.4427C25.799 43.6539 25.819 43.8278 25.819 44.0003C25.8205 47.1335 25.8082 50.2682 25.8313 53.4014C25.8359 53.9992 25.5835 54.3814 25.0941 54.6803C24.1322 55.2662 23.061 55.5368 21.9544 55.69C20.0691 55.9532 18.2037 55.867 16.3799 55.3019C15.9982 55.1844 15.6289 55.0238 15.2703 54.8498C14.5684 54.5093 14.2068 54.032 14.2222 53.1843C14.2806 50.1448 14.2452 47.1023 14.2452 44.0613C14.2468 43.865 14.2468 43.6672 14.2468 43.4219Z"
            fill="#58BBFF" />
        <path
            d="M40.5713 11.0239C41.0099 10.1198 41.4439 9.27811 41.8287 8.41711C42.1088 7.78958 42.3412 7.13974 42.5628 6.4899C42.8091 5.76868 42.5767 5.20509 41.9918 5.0088C41.3423 4.79169 40.796 5.11587 40.5451 5.90103C40.0157 7.5576 39.2646 9.11156 38.2904 10.5659C37.8286 11.2544 37.016 11.2618 36.5589 10.5837C35.5801 9.13238 34.8367 7.57396 34.2873 5.92482C34.1918 5.63931 34.0195 5.33446 33.7901 5.14412C33.4392 4.85563 32.9929 4.87645 32.6128 5.13371C32.2126 5.40287 32.0295 5.80437 32.2141 6.25346C32.8021 7.67805 33.4208 9.08926 34.0318 10.5034C34.0964 10.6536 34.1872 10.7934 34.3088 11.018C33.2192 11.0194 32.3342 10.6923 31.5585 10.0886C29.7747 8.69816 28.8421 6.82002 28.3219 4.71734C28.2064 4.25041 28.1433 3.77009 28.0541 3.29721C27.9756 2.87786 28.0494 2.44662 28.465 2.29791C28.8205 2.17151 29.3207 2.12095 29.6424 2.26966C30.455 2.64588 31.2615 2.91355 32.1726 2.90017C33.3761 2.88232 34.4196 2.49718 35.3261 1.74027C36.7267 0.572939 38.0272 0.571451 39.4354 1.73284C41.0668 3.07861 43.1046 3.27639 45.0576 2.28156C45.9518 1.82503 46.8476 2.26371 46.7367 3.15743C46.4228 5.68094 45.5748 7.98587 43.5986 9.78371C42.9399 10.383 42.1765 10.786 41.2885 10.954C41.0668 10.9957 40.8391 10.9986 40.5713 11.0239Z"
            fill="#58BBFF" />
        <path
            d="M51.1916 11.5014C52.8322 11.8911 54.3082 12.4085 55.5856 13.3365C56.0566 13.6785 56.4952 14.0815 56.8738 14.5172C57.2663 14.9678 57.157 15.5447 56.7061 15.9031C56.2859 16.2377 55.6903 16.2317 55.3009 15.8169C53.848 14.2688 51.9165 13.7171 49.8957 13.3409C49.8772 13.3379 49.8572 13.3365 49.8388 13.335C48.7214 13.3246 47.7749 12.9379 46.9346 12.2167C46.439 11.7929 45.8418 11.4777 45.3047 10.9914C45.4694 10.9914 45.634 10.978 45.7972 10.9929C46.9284 11.1029 48.0242 11.0018 49.0338 10.4546C50.0419 9.90733 50.8284 9.15786 50.7622 7.96376C50.6945 6.75479 49.9757 5.90718 48.8291 5.40901C48.726 5.3644 48.626 5.31682 48.509 5.26328C48.6337 4.61196 48.7537 3.97848 48.8907 3.26172C50.479 3.6885 51.6272 4.59411 52.3351 5.98748C53.3848 8.05447 52.8738 9.86718 51.1916 11.5014Z"
            fill="#58BBFF" />
        <path
            d="M20.76 38.4287C21.8035 38.6607 23.1348 38.9075 24.4337 39.2659C25.0663 39.4399 25.7666 39.7656 25.7866 40.5344C25.8066 41.3448 25.0771 41.6452 24.4368 41.8668C21.5187 42.878 18.5822 42.8661 15.6564 41.8831C15.3379 41.7761 15.0331 41.5902 14.7653 41.3879C14.0697 40.8615 14.0189 40.173 14.7746 39.7566C15.5887 39.3076 16.506 38.97 17.4218 38.7692C18.4006 38.5536 19.4333 38.5536 20.76 38.4287Z"
            fill="#58BBFF" />
        <path
            d="M10.6088 19.042C11.9555 19.2918 13.3114 19.5074 14.6457 19.8093C15.0921 19.9104 15.5261 20.1811 15.8955 20.4606C16.5095 20.9246 16.508 21.5447 15.8831 21.9997C15.4784 22.2942 15.0043 22.544 14.5226 22.6882C11.8693 23.4808 9.20207 23.466 6.54565 22.6838C6.18397 22.5767 5.83152 22.4072 5.50986 22.2139C4.52024 21.619 4.48946 20.764 5.5314 20.251C6.36865 19.8376 7.30902 19.5818 8.23246 19.3781C8.99122 19.2115 9.79153 19.2249 10.5734 19.158C10.5857 19.1193 10.598 19.0807 10.6088 19.042Z"
            fill="#58BBFF" />
        <path
            d="M16.8892 4.79297C18.2374 5.03833 19.5933 5.25247 20.9277 5.54988C21.3756 5.64951 21.8111 5.9142 22.1851 6.18931C22.8331 6.66516 22.8577 7.32095 22.1836 7.75665C21.5911 8.14031 20.9092 8.46151 20.2197 8.62509C17.8927 9.17976 15.5471 9.17678 13.2293 8.54479C12.7384 8.41095 12.2474 8.21169 11.8134 7.95443C10.8422 7.37597 10.8099 6.5224 11.8165 6.02424C12.6706 5.60192 13.6279 5.34169 14.5698 5.13053C15.3086 4.96398 16.0904 4.98034 16.8538 4.91491C16.8661 4.87327 16.8769 4.83312 16.8892 4.79297Z"
            fill="#58BBFF" />
        <path
            d="M38.4873 31.4287C39.7724 31.5209 40.5835 32.3522 40.5589 33.4853C40.5343 34.5931 39.6662 35.4229 38.4873 35.4363C38.4873 34.1128 38.4873 32.7879 38.4873 31.4287Z"
            fill="#58BBFF" />
        <path
            d="M36.3395 29.3314C35.1313 29.3299 34.2356 28.4317 34.2664 27.2748C34.2956 26.1581 35.216 25.3 36.3395 25.3669C36.3395 26.6874 36.3395 28.0094 36.3395 29.3314Z"
            fill="#58BBFF" />
    </g>
    <defs>
        <clipPath id="clip0_397_1829">
            <rect width="59" height="57" fill="white" transform="translate(0.547852 0.863281)" />
        </clipPath>
    </defs>
</svg>