<svg width="36" height="36" viewBox="0 0 36 36" fill="none" xmlns="http://www.w3.org/2000/svg">
<path d="M17.9954 36.084C8.0736 36.0768 -0.00408738 27.9946 1.55168e-06 18.0784C0.00409049 8.15908 8.08894 0.0788669 18.0046 0.0839868C27.9284 0.0891067 36.0041 8.16932 36 18.0886C35.9959 28.0089 27.909 36.0912 17.9954 36.084ZM15.5461 22.1876C15.5461 23.7962 15.542 25.4059 15.5472 27.0146C15.5502 27.9782 16.1973 28.6704 17.1521 28.7154C17.7122 28.7421 18.2765 28.741 18.8377 28.7165C19.7812 28.6745 20.4488 27.9935 20.4508 27.0627C20.458 23.8065 20.458 20.5492 20.4508 17.293C20.4488 16.3263 19.7444 15.6433 18.7703 15.6321C18.2847 15.6259 17.7991 15.629 17.3146 15.631C16.2208 15.6351 15.5492 16.3058 15.5472 17.3995C15.5441 18.9948 15.5461 20.5912 15.5461 22.1876ZM20.8536 10.3197C20.8566 8.72841 19.5676 7.43615 17.9872 7.44741C16.415 7.45868 15.1495 8.73148 15.1464 10.3064C15.1434 11.8853 16.4038 13.1633 17.9739 13.1745C19.5666 13.1868 20.8505 11.913 20.8536 10.3197Z" fill="#FFAE08"/>
</svg>
