<svg width="25" height="25" viewBox="0 0 25 25" fill="none" xmlns="http://www.w3.org/2000/svg">
<path fill-rule="evenodd" clip-rule="evenodd" d="M12.9339 6.92627C8.84299 6.92627 5.34935 9.41427 3.9339 12.9263C5.34935 16.4383 8.84299 18.9263 12.9339 18.9263C17.0248 18.9263 20.5184 16.4383 21.9339 12.9263C20.5184 9.41427 17.0248 6.92627 12.9339 6.92627ZM12.9339 16.9263C10.6757 16.9263 8.84299 15.1343 8.84299 12.9263C8.84299 10.7183 10.6757 8.92627 12.9339 8.92627C15.1921 8.92627 17.0248 10.7183 17.0248 12.9263C17.0248 15.1343 15.1921 16.9263 12.9339 16.9263ZM12.9343 10.5259C11.5762 10.5259 10.4798 11.5979 10.4798 12.9259C10.4798 14.2539 11.5762 15.3259 12.9343 15.3259C14.2925 15.3259 15.3889 14.2539 15.3889 12.9259C15.3889 11.5979 14.2925 10.5259 12.9343 10.5259Z" fill="#222222"/>
<rect x="6.69196" y="6.04008" width="2.44703" height="18.4509" rx="1.22352" transform="rotate(-35.2228 6.69196 6.04008)" fill="#222222" stroke="white"/>
</svg>
