<svg width="61" height="61" viewBox="0 0 61 61" fill="none" xmlns="http://www.w3.org/2000/svg">
    <g clip-path="url(#clip0_397_1855)">
        <path
            d="M50.4611 7.74085C55.2531 7.42314 57.4557 9.06823 58.1321 12.4316C59.0272 16.8828 59.8315 21.3523 60.6677 25.8152C60.8427 26.7534 60.5432 27.5518 59.9594 28.3036C54.7012 35.062 49.4582 41.8303 44.2119 48.5969C41.518 52.0701 38.8225 55.5432 36.127 59.0147C34.897 60.5983 33.3153 60.7945 31.7 59.5686C25.3431 54.7431 18.9863 49.9193 12.6277 45.0955C11.0242 43.8796 10.8139 42.3177 12.0523 40.7208C19.979 30.4976 27.9158 20.2795 35.8308 10.0463C36.5577 9.10649 37.4596 8.73389 38.6273 8.65238C43.061 8.34466 47.493 7.97372 50.4611 7.74085ZM33.4684 47.1781C33.3742 46.0137 32.9536 45.0273 32.045 44.3154C30.502 43.1044 28.9506 41.8985 27.3539 40.7607C25.7604 39.6246 23.637 39.9573 22.3868 41.4627C22.0015 41.9268 21.6414 42.4125 21.2712 42.8899C20.1304 44.3536 20.1422 44.4751 21.6162 45.5962C24.1922 47.5557 26.77 49.5101 29.3494 51.463C29.9703 51.9337 30.5222 51.9803 30.9126 51.5029C31.6243 50.6346 32.3276 49.7513 32.9283 48.8082C33.2312 48.3391 33.2968 47.727 33.4684 47.1781ZM35.4455 42.4241C34.4982 41.7039 33.6064 41.0269 32.6978 40.3366C33.2749 39.5897 33.81 38.8994 34.3417 38.2074C34.6715 37.7783 34.7203 37.3342 34.3636 36.8983C33.9446 36.3877 33.2194 36.4293 32.7449 37.0115C32.1846 37.7001 31.6495 38.4087 31.0909 39.1256C30.1419 38.4037 29.2552 37.7284 28.3466 37.0364C29.2384 35.887 30.0864 34.8075 30.9176 33.7146C31.3467 33.1507 31.2979 32.5968 30.8234 32.2259C30.3455 31.8533 29.7768 31.9365 29.3444 32.4854C28.2877 33.8261 27.2411 35.1751 26.2046 36.5324C25.7705 37.1013 25.8261 37.6302 26.3847 38.0561C29.2401 40.2334 32.1022 42.4042 34.971 44.5632C35.5162 44.9741 36.0445 44.9042 36.4618 44.3753C37.5471 43.003 38.6105 41.6157 39.6773 40.2284C39.9751 39.8409 40.0037 39.425 39.7109 39.0175C39.2987 38.4436 38.5465 38.4536 38.0586 39.0657C37.1904 40.1553 36.3474 41.2647 35.4455 42.4241ZM46.1149 31.7568C46.1166 31.2511 45.8406 30.9418 45.3847 30.7804C41.8344 29.5212 38.2841 28.2654 34.7321 27.0095C34.2475 26.8382 33.8083 26.9047 33.4903 27.3239C33.1706 27.7464 33.2514 28.1755 33.5425 28.5914C35.671 31.6254 37.7944 34.6628 39.9263 37.6951C40.3301 38.269 40.8938 38.407 41.3851 38.091C41.8983 37.76 41.9774 37.1661 41.5702 36.564C41.1731 35.9785 40.7726 35.3946 40.3486 34.8258C40.1568 34.5679 40.1417 34.3833 40.3553 34.1222C40.8988 33.4635 41.4221 32.7865 41.9252 32.0961C42.1254 31.8217 42.3156 31.7917 42.6117 31.9049C43.3167 32.171 44.0251 32.4288 44.7419 32.6584C45.4738 32.8929 46.1082 32.4621 46.1149 31.7568ZM46.8754 27.6848C46.6264 27.5002 46.411 27.3439 46.1973 27.1825C43.8518 25.4043 41.5062 23.6229 39.159 21.8464C38.5381 21.3773 37.929 21.4072 37.5555 21.9062C37.2021 22.377 37.3401 22.9608 37.9206 23.4066C38.7148 24.0171 39.5157 24.6209 40.315 25.2264C42.2954 26.7284 44.2724 28.2321 46.2562 29.7308C46.8721 30.1966 47.3735 30.2465 47.7655 29.7641C48.9333 28.3253 50.0673 26.8581 51.1762 25.3761C51.5043 24.9369 51.3764 24.4562 50.9541 24.0986C50.5536 23.7593 49.9883 23.8125 49.5945 24.21C49.4633 24.3431 49.3556 24.4978 49.2395 24.6458C48.4605 25.6439 47.6831 26.6452 46.8754 27.6848ZM53.1297 15.8316C53.1448 14.401 51.9502 13.2017 50.5115 13.2051C49.0965 13.2084 47.9136 14.3661 47.8934 15.7717C47.8732 17.1955 49.0729 18.3965 50.5132 18.3948C51.9333 18.3932 53.1145 17.2355 53.1297 15.8316Z"
            fill="#50C878" />
        <path
            d="M49.491 5.81587C47.7949 5.9506 46.2335 6.07702 44.6704 6.19845C42.3904 6.37476 40.1088 6.5278 37.8306 6.72408C36.3448 6.85216 35.2007 7.58904 34.2988 8.75673C28.9043 15.728 23.4914 22.6859 18.1088 29.6655C17.6831 30.2161 17.254 30.424 16.5523 30.4173C12.3341 30.3824 8.11408 30.4024 3.89411 30.3991C1.806 30.3974 0.719035 29.3212 0.719035 27.2536C0.717353 19.3442 0.717353 11.4331 0.719035 3.52372C0.719035 1.47277 1.83124 0.371604 3.90589 0.369941C16.9208 0.369941 29.9341 0.373267 42.949 0.363287C44.0293 0.361624 44.8891 0.719252 45.6042 1.53098C46.8426 2.93821 48.1231 4.31217 49.491 5.81587ZM21.6759 7.78033C21.3999 7.49921 21.1778 7.12495 20.8497 6.97691C20.3533 6.75402 19.9377 7.01517 19.6197 7.4543C16.0375 12.3962 12.4468 17.3315 8.86284 22.2701C8.41695 22.8839 8.46407 23.4411 8.96212 23.8071C9.46353 24.1747 10.0323 24.0532 10.4714 23.4494C14.0638 18.5142 17.6494 13.5772 21.2317 8.63531C21.3848 8.42572 21.4756 8.16956 21.6759 7.78033ZM10.6851 7.65724C9.24479 7.65391 8.07875 8.78667 8.06361 10.2006C8.04846 11.6261 9.25321 12.8137 10.7002 12.8021C12.122 12.7904 13.2931 11.6211 13.2898 10.2172C13.2864 8.80497 12.122 7.66056 10.6851 7.65724ZM16.8132 20.5901C16.8249 22.0173 17.9758 23.1467 19.4161 23.145C20.8665 23.145 22.046 21.954 22.0191 20.5185C21.9922 19.1013 20.8211 17.9869 19.3758 18.0035C17.9287 18.0185 16.8014 19.1579 16.8132 20.5901Z"
            fill="#50C878" />
        <path
            d="M30.0043 49.4482C27.6302 47.6485 25.288 45.872 22.9004 44.0605C23.2689 43.5881 23.5903 43.1357 23.9554 42.7165C24.5914 41.9863 25.4748 41.8532 26.2606 42.4287C27.7783 43.5382 29.2775 44.676 30.7582 45.8354C31.4564 46.3826 31.5725 47.2808 31.0846 48.0211C30.7632 48.5034 30.3846 48.9492 30.0043 49.4482Z"
            fill="#50C878" />
        <path
            d="M40.2077 31.0615C39.7584 31.6387 39.3563 32.1527 38.9003 32.7398C38.2474 31.81 37.6434 30.9517 37.041 30.0917C37.0612 30.0518 37.0814 30.0119 37.1016 29.9736C38.1112 30.3263 39.1224 30.6806 40.2077 31.0615Z"
            fill="#50C878" />
    </g>
    <defs>
        <clipPath id="clip0_397_1855">
            <rect width="60" height="60" fill="white" transform="translate(0.716797 0.363281)" />
        </clipPath>
    </defs>
</svg>