<svg width="54" height="55" viewBox="0 0 54 55" fill="none" xmlns="http://www.w3.org/2000/svg">
<path d="M53.9997 5.9614C53.9997 17.0356 53.9997 28.1084 53.9997 39.1825C53.9645 39.2783 53.9165 39.3699 53.8982 39.4685C53.5038 41.5185 52.4077 43.0754 50.6184 44.1448C49.535 44.7929 48.3473 45.0564 47.0949 45.0606C45.8861 45.0648 44.6773 45.062 43.4093 45.062C43.4586 45.2945 43.4896 45.4621 43.5319 45.6284C43.9799 47.4332 44.4547 49.2324 44.8632 51.0457C44.9703 51.5205 44.9745 52.0686 44.8492 52.5364C44.5942 53.4846 43.6643 54.0791 42.6838 54.0524C41.7074 54.0256 40.8593 53.3944 40.6015 52.411C40.0027 50.12 39.4293 47.8221 38.87 45.5213C38.7826 45.1592 38.6389 45.0549 38.2712 45.0549C30.7507 45.0662 23.2317 45.0648 15.7112 45.0564C15.3745 45.0564 15.2294 45.1451 15.1449 45.4931C14.6137 47.6925 14.053 49.8848 13.505 52.0813C13.1429 53.5296 12.0045 54.3102 10.7253 53.9819C9.41082 53.6452 8.77261 52.4575 9.13328 51.0175C9.52917 49.4353 9.92787 47.8531 10.3224 46.2694C10.4167 45.8876 10.5013 45.5044 10.6041 45.0606C9.26994 45.0606 8.02592 45.0761 6.78049 45.0578C3.02026 45.0014 0.0179868 42.0765 0.0123513 38.3963C-0.00596378 27.8364 -0.00173722 17.2765 0.0109425 6.71659C0.0137602 3.73107 2.07632 1.08651 4.95039 0.296103C5.26879 0.208749 5.59001 0.135485 5.90982 0.0551758C19.9716 0.0551758 34.032 0.0551758 48.0938 0.0551758C48.191 0.0889901 48.2854 0.135485 48.3854 0.153801C50.4423 0.528576 52.0428 1.60077 53.0557 3.42111C53.4883 4.20165 53.6911 5.11041 53.9997 5.9614ZM27.037 20.3043C22.6611 20.3043 18.2852 20.3043 13.9079 20.3043C13.7318 20.3043 13.5557 20.2987 13.381 20.3085C12.3483 20.3663 11.4494 21.1609 11.2931 22.15C11.1169 23.2673 11.703 24.3155 12.7526 24.6551C13.1274 24.7762 13.5458 24.8058 13.9445 24.8058C22.6442 24.8143 31.3439 24.8115 40.0436 24.8115C40.2197 24.8115 40.4113 24.8523 40.5676 24.7974C41.0537 24.6255 41.5933 24.5029 41.992 24.2014C42.7246 23.6477 42.9275 22.6206 42.6049 21.7597C42.2695 20.865 41.451 20.3057 40.4296 20.3043C35.9649 20.3015 31.5003 20.3043 27.037 20.3043ZM27.0018 11.3139C24.8223 11.3139 22.6442 11.3125 20.4647 11.3139C18.1105 11.3153 15.7549 11.3012 13.4007 11.3266C12.3046 11.3393 11.4029 12.1931 11.2846 13.2385C11.1536 14.3938 11.7946 15.4097 12.8851 15.7027C13.2175 15.7915 13.5796 15.7915 13.929 15.7915C22.6456 15.7957 31.3622 15.7957 40.0788 15.7943C40.307 15.7943 40.5367 15.7971 40.7635 15.776C41.8004 15.6816 42.657 14.8024 42.7317 13.7641C42.8331 12.3354 41.8511 11.3181 40.3422 11.3153C35.8931 11.3097 31.4467 11.3139 27.0018 11.3139ZM17.9696 33.8032C19.4447 33.8032 20.9183 33.8089 22.3934 33.8018C23.7431 33.7948 24.7504 32.8325 24.7561 31.5616C24.7617 30.3006 23.7586 29.3088 22.4089 29.3003C19.4771 29.2848 16.5453 29.2862 13.6134 29.3003C12.2215 29.3074 11.248 30.2823 11.2677 31.5983C11.286 32.879 12.275 33.7976 13.6515 33.8032C15.0899 33.8075 16.5298 33.8032 17.9696 33.8032Z" fill="#A47F7B"/>
</svg>
