<svg width="53" height="54" viewBox="0 0 53 54" fill="none" xmlns="http://www.w3.org/2000/svg">
<path d="M26.4645 0.000142256C40.993 -0.0478684 52.9645 12.0628 53.0117 26.8741C53.047 41.7334 41.4408 53.7841 26.8887 54.0001C12.1364 54.2162 0.117727 42.2495 -0.000103093 27.2822C-0.117933 12.1708 11.7004 0.0481529 26.4645 0.000142256ZM30.5533 13.2271C27.6193 12.747 24.8385 12.771 22.0695 13.2991C17.1088 14.2353 12.808 16.5038 9.19065 20.0926C8.68398 20.5847 8.69576 20.8608 9.19065 21.3649C9.76802 21.965 10.3572 22.5532 10.9463 23.1533C11.8654 24.0895 11.9007 24.0895 12.8787 23.1533C16.2487 19.9726 20.2196 18.1602 24.7914 17.7761C25.8518 17.6921 26.9123 17.7641 27.9963 17.7641C28.4205 15.9997 29.2453 14.5234 30.5533 13.2271ZM36.5155 27.4742C40.887 27.4502 44.198 24.0655 44.1744 19.6845C44.1391 15.4836 40.6984 12.0508 36.539 12.0628C32.3914 12.0868 29.0097 15.6156 29.0332 19.9246C29.0332 24.0775 32.4385 27.4983 36.5155 27.4742ZM26.818 26.8981C23.6602 26.8981 20.8323 28.0744 18.8999 30.0308C18.4521 30.4869 18.4403 30.763 18.8763 31.2191C19.5833 31.9512 20.302 32.6834 21.0208 33.4036C21.4803 33.8717 21.716 33.8717 22.1991 33.4516C24.8503 31.1231 28.1142 31.1351 30.8125 33.4636C31.272 33.8717 31.5077 33.8597 31.9437 33.4156C32.6388 32.7194 33.334 32.0113 34.0175 31.3151C34.583 30.739 34.5713 30.4749 33.9939 29.9228C31.873 27.9303 29.3632 26.9581 26.818 26.8981ZM29.2925 24.8697C28.3263 23.4293 27.8078 21.761 27.7489 19.9726C22.8825 19.5525 17.6509 21.3769 13.9392 25.1577C13.5857 25.5178 13.6093 25.8779 13.9628 26.238C14.6108 26.8981 15.2589 27.5583 15.9187 28.2184C16.6729 28.9866 16.7789 28.9866 17.5802 28.2424C19.8425 26.1299 22.5055 24.9177 25.569 24.7496C26.8063 24.6896 28.0435 24.8217 29.2925 24.8697ZM30.2469 38.0726C30.2469 35.8881 28.5973 34.2077 26.4645 34.2318C24.3436 34.2558 22.7411 35.9001 22.7411 38.0726C22.7411 40.2571 24.3672 41.9495 26.4881 41.9495C28.6208 41.9495 30.2587 40.2571 30.2469 38.0726Z" fill="#000080"/>
</svg>
