<svg width="23" height="19" viewBox="0 0 23 19" fill="none" xmlns="http://www.w3.org/2000/svg">
<g clip-path="url(#clip0_297_477)">
<path d="M23 14.5343C22.9184 14.7468 22.8662 14.9722 22.751 15.1702C22.3136 15.9216 21.5942 16.3196 20.6215 16.3533C20.1073 16.3709 19.5912 16.3564 19.0476 16.3564C19.0476 16.276 19.0476 16.2076 19.0476 16.1387C19.0476 15.195 19.0494 14.2513 19.047 13.3077C19.0434 11.6867 17.6273 10.4631 15.7492 10.4616C12.92 10.4595 10.0909 10.46 7.26168 10.4616C5.37097 10.4626 3.95848 11.6856 3.95608 13.3201C3.95488 14.3218 3.95608 15.3236 3.95608 16.3455C3.88708 16.3496 3.82347 16.3579 3.75987 16.3569C3.18444 16.347 2.603 16.3781 2.03477 16.316C0.892896 16.1905 0.0252427 15.3199 0.00844172 14.3208C-0.00715923 13.3968 0.00364143 12.4723 0.00364143 11.5478C0.00364143 10.061 0.00304139 8.5742 0.00364143 7.08741C0.00424147 5.76801 1.0387 4.87563 2.5688 4.87563C8.52656 4.87511 14.4843 4.87511 20.4421 4.87563C21.776 4.87563 22.6922 5.52082 22.967 6.64951C22.9712 6.66713 22.9886 6.68216 23 6.69823C23 9.3106 23 11.9224 23 14.5343ZM5.39317 8.60685C5.39737 8.08966 4.91194 7.66782 4.3143 7.66834C3.72687 7.66886 3.24264 8.08396 3.23904 8.59078C3.23484 9.10642 3.72207 9.53032 4.3185 9.52929C4.90654 9.52877 5.38897 9.11471 5.39317 8.60685Z" fill="#666666"/>
<path d="M11.5023 18.5296C10.1102 18.5296 8.71811 18.5296 7.32663 18.5296C6.54478 18.5296 6.11275 18.1601 6.11275 17.4916C6.11215 16.1147 6.11215 14.7383 6.11275 13.3614C6.11275 12.7007 6.54598 12.3234 7.30383 12.3234C10.103 12.3229 12.9016 12.3229 15.7007 12.3234C16.461 12.3234 16.8918 12.6991 16.8924 13.3614C16.893 14.7383 16.893 16.1147 16.8924 17.4916C16.8924 18.1601 16.4598 18.5302 15.6791 18.5302C14.2859 18.5302 12.8944 18.5296 11.5023 18.5296Z" fill="#666666"/>
<path d="M11.505 3.63393C9.19308 3.63393 6.88114 3.63393 4.5698 3.63393C4.09517 3.63393 3.95476 3.5137 3.95656 3.10275C3.95836 2.74725 3.92716 2.38863 3.97516 2.0378C4.09697 1.15267 4.92022 0.534428 5.95408 0.532355C7.9294 0.527691 9.90412 0.5308 11.8794 0.5308C13.5703 0.5308 15.2612 0.530282 16.9522 0.5308C18.211 0.531319 19.0451 1.25269 19.0475 2.34044C19.0481 2.61199 19.0487 2.88302 19.0475 3.15457C19.0457 3.49763 18.8879 3.63341 18.4858 3.63341C16.1589 3.63444 13.832 3.63393 11.505 3.63393Z" fill="#666666"/>
</g>
<defs>
<clipPath id="clip0_297_477">
<rect width="23" height="18" fill="white" transform="translate(0 0.529785)"/>
</clipPath>
</defs>
</svg>
