<svg width="45" height="55" viewBox="0 0 45 55" fill="none" xmlns="http://www.w3.org/2000/svg">
<g clip-path="url(#clip0_302_601)">
<path d="M3.37373 54.0554C2.99731 53.9215 2.60123 53.8257 2.24588 53.6468C0.84275 52.9425 0.0239044 51.7901 0.0182862 50.2165C-0.00980453 41.8528 0.00283631 33.4905 0.00283631 25.1268C0.00283631 25.0606 0.0168817 24.9944 0.0295225 24.8774C0.130649 24.931 0.20509 24.962 0.269699 25.0085C1.43547 25.8438 2.73747 26.2115 4.16448 26.2101C16.3755 26.2045 28.588 26.2073 40.7991 26.2073C41.5364 26.2073 41.5364 26.2073 41.5364 26.9596C41.5364 29.0332 41.5364 31.1055 41.5364 33.1792C41.5364 33.3679 41.5364 33.5553 41.5364 33.8004C40.5055 33.8004 39.5293 33.799 38.5532 33.8004C35.3902 33.8075 32.8325 35.9488 32.2595 39.0691C31.5783 42.7812 34.4955 46.3777 38.2667 46.4566C39.3327 46.4791 40.3988 46.4594 41.5013 46.4594C41.5154 46.6524 41.535 46.8046 41.535 46.9553C41.5364 49.1346 41.5392 51.3125 41.5322 53.4919C41.5322 53.6792 41.4746 53.8666 41.4437 54.054C28.7551 54.0554 16.0637 54.0554 3.37373 54.0554ZM12.4597 47.1807C10.3402 47.1807 8.22079 47.1779 6.10134 47.1849C5.86117 47.1863 5.60413 47.2032 5.38503 47.2892C4.87097 47.4906 4.62096 48.0217 4.7277 48.5838C4.83585 49.1586 5.31059 49.5164 6.00724 49.5178C10.2981 49.522 14.5904 49.5206 18.8812 49.5192C19.7254 49.5192 20.2647 49.0515 20.2619 48.3387C20.2605 47.6244 19.7352 47.1821 18.87 47.1807C16.7337 47.1779 14.5974 47.1807 12.4597 47.1807Z" fill="#54B0F4"/>
<path d="M19.6692 22.4599C13.5033 22.4725 8.50591 17.4842 8.48203 11.2899C8.45675 5.11821 13.4667 0.0594047 19.6088 0.0551785C25.8126 0.0509522 30.8212 5.052 30.824 11.2547C30.8268 17.4405 25.8421 22.4472 19.6692 22.4599ZM21.4164 12.4296C21.224 12.6789 21.1116 12.8297 20.9965 12.9762C19.7127 14.6005 18.4135 16.2135 17.1579 17.8603C16.9331 18.1547 16.7843 18.5858 16.7843 18.9535C16.7843 19.417 17.1256 19.7565 17.5933 19.8776C18.1467 20.0213 18.575 19.81 18.9248 19.3662C20.8223 16.9517 22.724 14.5413 24.6356 12.1366C24.9685 11.7168 25.13 11.2815 24.8955 10.7757C24.6525 10.2517 24.2044 10.0756 23.6482 10.0784C21.9305 10.0868 20.2141 10.0826 18.4964 10.0798C18.3307 10.0798 18.1635 10.0657 17.9093 10.053C18.6537 9.10918 19.3461 8.23294 20.0372 7.3567C20.776 6.41989 21.5316 5.49575 22.2507 4.54344C22.8336 3.77426 22.4754 2.77687 21.5793 2.61769C21.0302 2.52048 20.6524 2.80646 20.3279 3.22063C18.4725 5.57887 16.6143 7.93429 14.7463 10.2827C14.3839 10.7377 14.1451 11.2012 14.4288 11.7745C14.7126 12.3493 15.2322 12.4352 15.8067 12.4324C17.4542 12.4225 19.1003 12.4282 20.7479 12.4282C20.9333 12.4296 21.1173 12.4296 21.4164 12.4296Z" fill="#54B0F4"/>
<path d="M45.0002 36.1471C45.0002 38.8209 45.0002 41.4454 45.0002 44.1277C44.5957 44.1277 44.215 44.1277 43.8344 44.1277C42.0661 44.1277 40.2978 44.1431 38.5309 44.122C36.8061 44.1009 35.3791 43.0965 34.7934 41.544C34.2147 40.0113 34.6094 38.318 35.8089 37.2051C36.5027 36.5599 37.3314 36.1725 38.2682 36.1584C40.4902 36.1232 42.7122 36.1471 45.0002 36.1471ZM39.7795 38.9674C39.118 38.9632 38.6081 39.4563 38.5969 40.1085C38.587 40.7833 39.1081 41.3059 39.7865 41.2975C40.4438 41.289 40.9425 40.7847 40.9397 40.1282C40.9382 39.4675 40.441 38.9702 39.7795 38.9674Z" fill="#54B0F4"/>
<path d="M14.4148 23.86C10.8543 23.86 7.35137 23.9023 3.84845 23.8445C1.64613 23.8079 -0.0154368 21.9977 0.0140585 19.8381C0.0435538 17.6813 1.75147 15.9992 3.97345 15.957C4.84848 15.9401 5.72491 15.9401 6.59994 15.9668C6.76286 15.9725 7.01006 16.1063 7.06624 16.2429C8.50028 19.6958 10.9091 22.1878 14.3137 23.7135C14.3403 23.7262 14.3516 23.767 14.4148 23.86Z" fill="#54B0F4"/>
<path d="M24.9614 23.8209C26.4544 23.0742 27.8239 22.1811 29.0191 21.0259C30.3872 19.7045 31.4392 18.1648 32.1484 16.401C32.2931 16.0432 32.4715 15.9375 32.8367 15.9474C33.7637 15.9713 34.6921 15.9601 35.6205 15.953C35.9056 15.9502 36.0826 16.0037 36.0812 16.3531C36.0727 18.8269 36.0769 21.302 36.0769 23.8209C32.3521 23.8209 28.6568 23.8209 24.9614 23.8209Z" fill="#54B0F4"/>
<path d="M39.7795 38.9673C40.4424 38.9715 40.9382 39.4674 40.941 40.1267C40.9425 40.7846 40.4452 41.2889 39.7879 41.296C39.1109 41.3044 38.5884 40.7818 38.5983 40.107C38.6067 39.4561 39.118 38.9631 39.7795 38.9673Z" fill="white"/>
</g>
<defs>
<clipPath id="clip0_302_601">
<rect width="45" height="54" fill="white" transform="translate(0 0.0551758)"/>
</clipPath>
</defs>
</svg>
