<svg width="49" height="54" viewBox="0 0 49 54" fill="none" xmlns="http://www.w3.org/2000/svg">
<path d="M3.27259 54.0001C2.32932 53.6196 1.94658 52.9095 1.9873 51.8611C2.0348 50.6536 1.99815 49.4432 1.99815 48.1258C2.15424 48.2765 2.24246 48.3597 2.32932 48.4456C3.94442 50.0449 5.52966 51.6766 7.18412 53.2307C8.2129 54.1973 8.83858 54.1381 9.89858 53.2025C11.9806 51.3652 13.8943 49.3559 15.5949 47.1338C15.8202 46.8393 16.0509 46.7407 16.4051 46.7421C21.3984 46.7534 26.3916 46.7632 31.3862 46.7449C35.5638 46.7308 38.9514 43.8381 39.782 39.6208C40.7701 34.6004 37.2101 29.6251 32.2888 29.2108C30.9424 29.0981 29.5825 29.1672 28.2307 29.1178C25.8365 29.0305 23.7491 27.172 23.2808 24.7428C22.6199 21.3132 24.9652 18.2542 28.4166 18.0837C29.4644 18.0315 30.5149 18.0639 31.564 18.0794C31.7065 18.0808 31.9087 18.1654 31.982 18.2809C33.5333 20.7242 35.5705 22.7109 37.5874 24.716C38.076 25.2021 38.5836 25.6699 39.117 26.1011C40.044 26.8479 40.7728 26.862 41.6116 26.032C43.3 24.3609 44.9368 22.6334 46.594 20.9271C46.6971 20.8214 46.7935 20.7059 46.9889 20.4875C46.9889 20.8172 46.9889 21.0187 46.9889 21.2202C46.9889 31.4301 46.9794 41.64 47.0025 51.8513C47.0052 52.894 46.6822 53.614 45.7403 54.0015C31.583 54.0001 17.4285 54.0001 3.27259 54.0001Z" fill="#F88D02"/>
<path d="M29.7413 3.97065C28.27 7.69896 28.6853 11.2864 30.1918 14.9569C29.3164 14.9569 28.5252 14.9048 27.7434 14.9654C23.8835 15.2641 20.7985 18.3443 20.1782 22.4756C19.6163 26.2292 21.8273 30.1858 25.2882 31.6399C26.4038 32.1092 27.5561 32.3078 28.7559 32.3036C29.8715 32.2994 30.9967 32.2613 32.1042 32.3755C34.8879 32.6601 36.9888 35.2372 36.8884 38.1483C36.788 41.0636 34.5146 43.521 31.7269 43.5576C27.2412 43.6182 22.7542 43.5801 18.2686 43.5815C18.2048 43.5815 18.141 43.5618 18.0257 43.5435C18.2401 43.1152 18.4437 42.7164 18.6378 42.3148C19.7344 40.0477 20.394 37.6763 20.1701 35.109C19.7873 30.7043 17.6416 27.4847 13.8956 25.4867C10.0669 23.445 6.23949 23.6366 2.51662 25.8953C2.37411 25.9812 2.23024 26.0672 1.99951 26.2053C1.99951 25.9418 1.99951 25.7572 1.99951 25.5712C1.99951 19.0685 1.99951 12.5658 1.99951 6.06166C1.99951 4.5554 2.5709 3.96924 4.03671 3.96924C12.3823 3.96924 20.7293 3.96924 29.0749 3.96924C29.2716 3.97065 29.4698 3.97065 29.7413 3.97065Z" fill="#F88D02"/>
<path d="M40.4117 23.093C37.2235 20.251 34.5118 17.2371 32.8763 13.3467C31.9751 11.2007 31.5205 8.97445 32.1122 6.62981C33.1098 2.67182 36.6766 -0.0941239 40.6668 0.00450881C44.5526 0.100323 48.0339 3.08326 48.8265 7.02152C49.2323 9.03504 48.8971 10.9654 48.1153 12.8268C47.0539 15.3532 45.4741 17.5175 43.7016 19.5366C42.6443 20.7413 41.5287 21.8897 40.4117 23.093ZM40.4809 3.6666C37.6931 3.6356 35.4062 5.94502 35.3791 8.81664C35.3519 11.7094 37.6266 14.1005 40.4117 14.109C43.1587 14.1174 45.4198 11.7982 45.4524 8.94063C45.4863 6.04224 43.2741 3.6976 40.4809 3.6666Z" fill="#F88D02"/>
<path d="M8.56019 50.3468C5.14405 47.2539 2.19751 43.992 0.674699 39.6184C-0.348651 36.6805 -0.310648 33.792 1.49854 31.1726C3.61038 28.1136 6.52707 26.7327 10.1115 27.4626C13.6064 28.1741 16.0344 30.306 16.9207 34.009C17.4134 36.069 17.1528 38.0881 16.3154 40.027C15.2215 42.5562 13.6457 44.7487 11.8705 46.789C10.82 47.9993 9.69212 49.1364 8.56019 50.3468ZM8.62805 41.3543C11.4049 41.3388 13.6498 38.9843 13.6349 36.1028C13.6186 33.2354 11.3289 30.8922 8.56019 30.9119C5.78602 30.9316 3.54659 33.289 3.56288 36.1733C3.57781 39.0618 5.83352 41.3698 8.62805 41.3543Z" fill="#F88D02"/>
<path d="M42.4015 8.85156C42.411 10.0098 41.5234 10.9468 40.4199 10.9454C39.3477 10.944 38.4438 10.0168 38.4289 8.9037C38.414 7.76097 39.3097 6.82818 40.4213 6.82959C41.5288 6.82818 42.3934 7.71306 42.4015 8.85156Z" fill="#F88D02"/>
<path d="M8.60898 38.1905C7.50826 38.1976 6.62742 37.3113 6.61249 36.1798C6.59756 35.0216 7.47162 34.0832 8.5764 34.0733C9.67576 34.0635 10.5878 35.0061 10.5837 36.146C10.5797 37.2704 9.69611 38.1835 8.60898 38.1905Z" fill="#F88D02"/>
</svg>
