<svg width="24" height="32" viewBox="0 0 24 32" fill="none" xmlns="http://www.w3.org/2000/svg">
<g clip-path="url(#clip0_58_5180)">
<path d="M2.56836 21.3189C2.74714 19.6073 2.97147 17.9357 3.08063 16.2573C3.1597 15.0484 3.10211 13.8293 3.07203 12.6153C3.05656 11.981 3.06945 11.3587 3.27745 10.7525C3.82152 9.16464 5.03256 8.46033 6.62265 8.258C6.76017 8.24007 6.89941 8.23581 7.07819 8.223C7.07819 13.341 7.07819 18.4454 7.07819 23.5787C10.3856 23.5787 13.6543 23.5787 16.9617 23.5787C16.9617 18.4667 16.9617 13.3512 16.9617 8.19824C17.8736 8.22812 18.6936 8.42191 19.4267 8.90426C20.4358 9.5693 20.8741 10.5639 20.9867 11.7155C21.0254 12.1142 20.9334 12.5231 20.9437 12.9261C20.985 14.5456 21.0031 16.1668 21.1079 17.7829C21.1835 18.9499 21.383 20.1084 21.5265 21.2677C19.9613 21.5734 18.7486 22.3929 17.9123 23.7478C17.8323 23.8767 17.7799 24.0397 17.7679 24.1908C17.6389 25.8496 17.5212 27.5101 17.3991 29.1688C17.351 29.8262 17.3003 30.4835 17.2487 31.1623C13.7866 31.1623 10.322 31.1623 6.82464 31.1623C6.78252 30.6304 6.73525 30.0925 6.69915 29.5539C6.58054 27.7875 6.4645 26.0203 6.34933 24.254C6.333 24.003 6.27197 23.7896 6.06999 23.6052C5.87488 23.4268 5.72962 23.1937 5.55944 22.988C4.77471 22.0378 3.84129 21.3488 2.56836 21.3189Z" fill="#0770E3"/>
<path d="M8.01503 8.18434C8.52386 8.18434 9.00346 8.18434 9.49854 8.18434C9.49854 7.70541 9.49854 7.25209 9.49854 6.75523C9.2192 6.75523 8.95447 6.75779 8.68974 6.75437C7.60333 6.74071 6.89509 5.92542 7.02574 4.85913C7.15552 3.80138 7.27671 2.74192 7.39189 1.68247C7.48901 0.782654 8.1345 0.185055 9.0473 0.184202C11.0448 0.180787 13.0423 0.180787 15.0389 0.184202C15.9337 0.185909 16.5809 0.780947 16.6789 1.66283C16.7966 2.72229 16.9187 3.78089 17.0467 4.8395C17.1774 5.91773 16.4992 6.71339 15.4008 6.75266C15.1343 6.76206 14.8679 6.75437 14.5593 6.75437C14.5593 7.01902 14.5593 7.25038 14.5593 7.48173C14.5593 7.7037 14.5593 7.92652 14.5593 8.18519C15.0699 8.18519 15.5572 8.18519 16.0652 8.18519C16.0652 10.3826 16.0652 12.5434 16.0652 14.7349C13.393 14.7349 10.7173 14.7349 8.01589 14.7349C8.01503 12.5673 8.01503 10.3997 8.01503 8.18434ZM10.432 6.76632C10.432 7.24099 10.432 7.70797 10.432 8.17666C11.5158 8.17666 12.5747 8.17666 13.6405 8.17666C13.6405 7.69858 13.6405 7.23757 13.6405 6.76632C12.5627 6.76632 11.5115 6.76632 10.432 6.76632Z" fill="#0770E3"/>
<path d="M16.0706 22.7005C13.376 22.7005 10.7064 22.7005 8.00928 22.7005C8.00928 20.3673 8.00928 18.0367 8.00928 15.6753C10.6849 15.6753 13.3709 15.6753 16.0706 15.6753C16.0706 18.0128 16.0706 20.3366 16.0706 22.7005Z" fill="#0770E3"/>
<path d="M5.8431 31.1442C3.77512 31.3141 1.5808 30.4493 0.581197 28.1357C0.0964348 27.0139 -0.167434 25.8307 0.118782 24.6116C0.410155 23.3703 1.17941 22.5234 2.46438 22.2605C2.78239 22.1956 3.17261 22.2963 3.48461 22.4269C4.34326 22.7846 4.84521 23.541 5.39014 24.2394C5.43655 24.2991 5.43483 24.4024 5.44171 24.4861C5.57665 26.3036 5.71417 28.1221 5.8388 29.9405C5.8663 30.3409 5.8431 30.7447 5.8431 31.1442Z" fill="#0770E3"/>
<path d="M18.1553 31.1757C18.2086 30.3348 18.2558 29.5281 18.3117 28.723C18.408 27.3306 18.5034 25.9373 18.6168 24.5458C18.6332 24.346 18.7054 24.1266 18.8188 23.9627C19.3895 23.1355 20.1682 22.5703 21.136 22.2818C21.3183 22.2271 21.546 22.2237 21.7265 22.28C23.0484 22.6915 23.8375 23.6059 23.9655 24.959C24.1529 26.9413 23.5951 28.7034 22.0334 30.0386C20.9427 30.9708 19.619 31.2261 18.1553 31.1757Z" fill="#0770E3"/>
</g>
<defs>
<clipPath id="clip0_58_5180">
<rect width="24" height="31" fill="white" transform="translate(0 0.181641)"/>
</clipPath>
</defs>
</svg>
