<svg width="16" height="19" viewBox="0 0 16 19" fill="none" xmlns="http://www.w3.org/2000/svg">
<path fill-rule="evenodd" clip-rule="evenodd" d="M9.65291 3.15341C9.65291 1.46674 11.0279 0.0981557 12.7219 0.0981557C13.1241 0.097071 13.5226 0.17525 13.8946 0.328227C14.2666 0.481203 14.6048 0.705978 14.8899 0.989708C15.175 1.27344 15.4014 1.61056 15.5561 1.98182C15.7109 2.35308 15.791 2.75119 15.7918 3.15341C15.7918 4.84099 14.4168 6.20957 12.7219 6.20957C12.3155 6.20987 11.913 6.12948 11.5379 5.97307C11.1628 5.81666 10.8224 5.58734 10.5366 5.29841L6.28783 8.19141C6.40594 8.78083 6.34791 9.39199 6.121 9.94866L10.7795 13.0103C11.3283 12.5631 12.0149 12.3193 12.7228 12.3201C13.125 12.3191 13.5235 12.3974 13.8955 12.5505C14.2674 12.7036 14.6055 12.9285 14.8906 13.2123C15.1756 13.4961 15.4019 13.8333 15.5565 14.2046C15.7111 14.5759 15.7911 14.974 15.7918 15.3762C15.7918 17.0629 14.4168 18.4315 12.7219 18.4315C12.3198 18.4325 11.9214 18.3542 11.5495 18.2012C11.1776 18.0481 10.8395 17.8233 10.5545 17.5396C10.2695 17.2559 10.0432 16.9188 9.88851 16.5476C9.73381 16.1764 9.65375 15.7784 9.65291 15.3762C9.6522 14.9478 9.7425 14.5241 9.91783 14.1332L5.296 11.0982C4.73612 11.5845 4.01913 11.8519 3.2775 11.8507C2.87528 11.8517 2.47681 11.7734 2.10486 11.6203C1.73292 11.4672 1.39478 11.2424 1.10977 10.9585C0.824766 10.6747 0.598475 10.3375 0.44383 9.96623C0.289185 9.59493 0.209217 9.19679 0.208496 8.79457C0.209338 8.39243 0.289394 7.9944 0.444093 7.6232C0.598792 7.252 0.825102 6.91492 1.1101 6.6312C1.39509 6.34748 1.73319 6.12269 2.10508 5.96966C2.47696 5.81663 2.87536 5.73836 3.2775 5.73932C4.25283 5.73932 5.12 6.19124 5.68191 6.89524L9.8005 4.09116C9.70226 3.78829 9.65245 3.47181 9.65291 3.15341Z" fill="#666666"/>
</svg>
