<svg width="30" height="30" viewBox="0 0 30 30" fill="none" xmlns="http://www.w3.org/2000/svg">
    <path
        d="M30 14.0665C30 14.6917 30 15.3162 30 15.9414C29.9828 16.0267 29.9569 16.1112 29.9499 16.1973C29.6814 19.4729 28.48 22.3636 26.3229 24.8387C23.9959 27.5072 21.0764 29.1575 17.5848 29.7757C17.0392 29.872 16.4874 29.9283 15.938 30.0034C15.3126 30.0034 14.688 30.0034 14.0626 30.0034C13.6196 29.9455 13.1742 29.8978 12.7328 29.8297C9.46344 29.3234 6.62693 27.9227 4.33752 25.5422C0.611855 21.6664 -0.711696 17.0377 0.359042 11.7744C1.71468 5.10965 7.8362 0.10147 14.641 0.00521937C17.7202 -0.0386022 20.5778 0.715754 23.1513 2.41462C26.7706 4.80368 28.9848 8.14585 29.7714 12.4185C29.8716 12.9631 29.9249 13.5163 30 14.0665ZM16.8944 11.3292C16.9735 11.3988 17.0377 11.4583 17.105 11.5123C18.2094 12.4044 19.4366 12.636 20.7484 12.082C22.0563 11.5295 22.8007 10.4966 22.8931 9.08332C22.9885 7.61765 22.3491 6.47281 21.0607 5.77088C19.792 5.07913 18.5052 5.16677 17.3382 6.02051C16.1422 6.89538 15.6953 8.11299 15.9607 9.57319C15.9959 9.76569 15.9567 9.84707 15.7979 9.93863C14.3796 10.7587 12.9653 11.5851 11.5525 12.4153C11.4069 12.5006 11.3145 12.5069 11.1752 12.3848C10.333 11.6469 9.35386 11.3628 8.24399 11.5444C6.32872 11.8582 5.02708 13.7488 5.3973 15.6785C5.76674 17.6027 7.72349 18.8782 9.61998 18.4337C10.2814 18.2788 10.8496 17.9548 11.3364 17.4892C11.3967 17.5174 11.4421 17.5346 11.4836 17.5589C12.9332 18.4032 14.3804 19.2499 15.8323 20.0896C15.9779 20.1741 15.9967 20.2547 15.963 20.4167C15.4613 22.8503 17.5081 25.007 19.9462 24.6228C21.4012 24.3935 22.5862 23.2479 22.8492 21.8151C23.124 20.3181 22.4289 18.8297 21.1101 18.0902C19.8045 17.3586 18.1961 17.5276 17.0791 18.5253C16.9484 18.6419 16.86 18.663 16.7042 18.5715C15.2758 17.7303 13.8434 16.8961 12.4088 16.065C12.2796 15.9899 12.26 15.9195 12.2694 15.7669C12.2992 15.2747 12.3109 14.7778 12.2796 14.2864C12.2679 14.1025 12.278 14.0125 12.4424 13.9201C13.1468 13.5218 13.8434 13.1094 14.5424 12.7009C15.3251 12.2447 16.107 11.7885 16.8944 11.3292Z"
        fill="#0770E3" />
</svg>