<svg width="61" height="60" viewBox="0 0 61 60" fill="none" xmlns="http://www.w3.org/2000/svg">
    <g clip-path="url(#clip0_397_1843)">
        <path
            d="M30.1256 0.863281C30.5169 0.863281 30.9067 0.863281 31.298 0.863281C32.7725 1.43133 33.3486 2.51047 33.2108 4.0345C33.156 4.63949 33.2014 5.25372 33.2014 5.82485C44.0678 7.30885 52.0368 12.6891 56.1473 22.7046C60.2563 32.7155 58.3278 42.0306 51.5985 50.4712C51.5954 50.4666 51.6017 50.4882 51.6142 50.4959C51.7801 50.5975 51.9492 50.6914 52.112 50.7961C54.5836 52.3924 55.7904 54.6415 55.6856 57.5526C55.648 58.5717 54.9561 59.4307 53.9794 59.7401C52.3906 60.2435 50.8268 59.1598 50.7235 57.4849C50.628 55.9316 49.8986 54.8817 48.5759 54.5292C48.0359 54.3845 47.5287 54.1628 46.8963 54.6108C40.0637 59.4553 32.5095 60.9455 24.301 59.0997C20.7008 58.29 17.4293 56.7398 14.4568 54.5815C14.2705 54.446 14.0091 54.2952 13.8056 54.3214C11.7253 54.5969 10.8519 55.5344 10.6922 57.6049C10.5936 58.8888 9.49788 59.8756 8.18615 59.8633C6.90103 59.851 5.82097 58.8626 5.738 57.608C5.63156 56.0286 6.00254 54.5615 6.84781 53.213C7.59133 52.0261 8.62131 51.1409 9.84069 50.4943C3.09732 42.0321 1.16259 32.7232 5.27467 22.7077C9.38831 12.6891 17.362 7.32117 28.2237 5.82793C28.2237 5.02589 28.2268 4.18536 28.2237 3.34483C28.2206 2.56589 28.5149 1.91471 29.1347 1.43595C29.4321 1.20195 29.7937 1.05109 30.1256 0.863281ZM28.2268 24.2087C28.2253 24.2087 28.2237 24.2087 28.2222 24.2087C28.2222 26.2053 28.23 28.2004 28.2175 30.197C28.2128 30.9005 28.3849 31.5348 28.8952 32.0382C31.4279 34.5413 33.9622 37.0444 36.5136 39.529C37.1757 40.174 38.0163 40.3372 38.9038 40.0863C40.7697 39.5598 41.3144 37.3384 39.9088 35.936C37.8128 33.8439 35.6824 31.7857 33.5912 29.6905C33.3767 29.475 33.2202 29.1025 33.2171 28.8008C33.192 25.3463 33.203 21.8918 33.1967 18.4358C33.1967 18.0925 33.192 17.7369 33.1044 17.409C32.7944 16.2483 31.6424 15.494 30.4402 15.6233C29.2114 15.7557 28.2488 16.7486 28.2331 17.9894C28.2081 20.063 28.2268 22.1366 28.2268 24.2087Z"
            fill="#3A6AAB" />
        <path
            d="M50.5145 0.863281C51.1532 1.01261 51.7996 1.13884 52.4305 1.31741C57.0575 2.62592 60.3509 6.70694 60.7063 11.4222C60.8722 13.6205 59.0001 14.8366 57.333 14.2193C56.1903 13.796 55.7521 12.8923 55.6769 11.7393C55.5329 9.55795 54.4873 7.88152 52.6167 6.71156C51.4975 6.01266 50.2594 5.74788 48.9351 5.77867C46.8799 5.82485 45.601 3.82667 46.5637 2.12099C46.9268 1.47905 47.5373 1.16347 48.1697 0.86636C48.9523 0.863281 49.7334 0.863281 50.5145 0.863281Z"
            fill="#3A6AAB" />
        <path
            d="M13.2534 0.863281C13.3332 0.907925 13.4099 0.961804 13.496 0.995672C14.7389 1.49752 15.3728 2.61053 15.1177 3.84977C14.8782 5.01203 13.8091 5.81253 12.4879 5.77867C10.2449 5.72325 8.4197 6.54838 7.04066 8.28331C6.21261 9.32396 5.80719 10.5247 5.72423 11.8471C5.62405 13.4712 4.52677 14.4703 3.00059 14.3563C1.99253 14.2809 1.30849 13.739 0.899938 12.8415C0.848283 12.7246 0.779409 12.6153 0.716797 12.5013C0.716797 12.0026 0.716797 11.5022 0.716797 11.0035C0.751234 10.8957 0.801324 10.791 0.820108 10.6802C1.58085 6.10502 4.17927 3.02002 8.60597 1.44211C9.34793 1.17732 10.1415 1.05263 10.9101 0.863281C11.6912 0.863281 12.4723 0.863281 13.2534 0.863281Z"
            fill="#3A6AAB" />
        <path
            d="M10.9101 0.863281C10.14 1.05263 9.34636 1.17732 8.60441 1.4421C4.17927 3.02002 1.58085 6.10502 0.820108 10.6802C0.801324 10.791 0.752799 10.8957 0.716797 11.0035C0.716797 7.63367 0.716797 4.26233 0.716797 0.863281C4.11509 0.863281 7.51338 0.863281 10.9101 0.863281Z"
            fill="white" />
    </g>
    <defs>
        <clipPath id="clip0_397_1843">
            <rect width="60" height="59" fill="white" transform="translate(0.716797 0.863281)" />
        </clipPath>
    </defs>
</svg>