<svg width="30" height="32" viewBox="0 0 30 32" fill="none" xmlns="http://www.w3.org/2000/svg">
    <path
        d="M3.52009 22.5603C3.52009 22.6089 3.52009 22.7254 3.52009 22.8517C3.52009 25.1145 3.52009 27.3675 3.52009 29.6303C3.52009 30.213 3.65424 30.7568 4.02795 31.2133C4.60288 31.9028 5.52278 32.165 6.37559 31.8737C7.21883 31.5823 7.80334 30.8054 7.81292 29.8925C7.83209 28.2901 7.82251 26.6877 7.82251 25.0853C7.82251 24.726 7.80334 24.357 7.83209 23.9976C7.86084 23.4635 8.33036 23.143 8.79989 23.3081C9.11611 23.4247 9.279 23.6966 9.279 24.1627C9.279 26.0856 9.26942 27.9988 9.28859 29.9217C9.30775 31.0579 10.2468 31.9611 11.3871 31.9902C12.4795 32.0193 13.4568 31.155 13.5527 30.0382C13.5623 29.9217 13.5048 29.7663 13.4185 29.6983C12.5274 28.9019 12.1249 27.9017 12.1345 26.7071C12.1345 23.1819 12.1345 19.6663 12.1441 16.141C12.1441 15.8497 12.1632 15.5486 12.2303 15.2573C12.5849 13.5675 13.9551 12.4215 15.6703 12.3632C15.9195 12.3535 16.1686 12.3632 16.4369 12.3632C16.4369 12.2467 16.4369 12.1884 16.4369 12.1302C16.3986 10.2947 14.8271 8.74085 12.8723 8.72142C10.0073 8.68258 7.13259 8.69229 4.26751 8.72142C2.32232 8.74085 0.731668 10.2364 0.702921 12.0913C0.65501 14.8882 0.674175 17.6754 0.693339 20.4724C0.693339 21.3464 1.26827 22.1427 2.10192 22.3952C2.52354 22.5312 2.99307 22.5118 3.52009 22.5603Z"
        fill="white" />
    <path
        d="M4.96733 3.62278C4.95775 5.63306 6.55798 7.2743 8.54149 7.2743C10.5154 7.2743 12.1061 5.67191 12.1252 3.67133C12.1444 1.66105 10.5633 0.0295165 8.57024 0.000381988C6.60589 -0.0287526 4.97691 1.61249 4.96733 3.62278Z"
        fill="white" />
    <path
        d="M15.757 29.8438C15.6612 30.9412 16.6385 31.9511 17.8172 31.9997C18.9958 32.0483 20.0211 31.0383 19.9923 29.8438C18.5837 29.8437 17.1752 29.8438 15.757 29.8438Z"
        fill="white" />
    <path
        d="M22.9244 29.8438C22.8957 31.0286 23.9305 32.0483 25.0996 31.9997C26.2782 31.9511 27.246 30.9412 27.1598 29.8438C25.7416 29.8437 24.333 29.8438 22.9244 29.8438Z"
        fill="white" />
    <path
        d="M3.52021 22.56C3.00277 22.5018 2.52366 22.5309 2.08288 22.3949C1.24923 22.1424 0.674296 21.3558 0.674296 20.4721C0.655132 17.6849 0.635967 14.8879 0.683878 12.1007C0.712625 10.2458 2.30327 8.75997 4.24846 8.73084C7.11354 8.7017 9.98821 8.7017 12.8533 8.73084C14.8081 8.75026 16.3795 10.3041 16.4179 12.1396C16.4179 12.1978 16.4179 12.2561 16.4179 12.3727C16.1496 12.3727 15.9004 12.3629 15.6513 12.3727C13.9361 12.4309 12.5658 13.5769 12.2113 15.2667C12.1538 15.5483 12.1346 15.8494 12.125 16.1504C12.1155 19.6757 12.125 23.1913 12.1155 26.7166C12.1155 27.9111 12.5083 28.9114 13.3995 29.7077C13.4857 29.7854 13.5432 29.9408 13.5336 30.0476C13.4378 31.1644 12.4604 32.0385 11.368 31.9996C10.2373 31.9705 9.29829 31.0673 9.27913 29.9311C9.25038 28.0082 9.26954 26.095 9.26954 24.1721C9.26954 23.706 9.10664 23.4341 8.79043 23.3175C8.3209 23.1524 7.86096 23.4729 7.83221 24.007C7.81305 24.3664 7.82263 24.7354 7.82263 25.0947C7.82263 26.6971 7.83221 28.2995 7.81305 29.9019C7.80346 30.8148 7.20937 31.5917 6.37571 31.8831C5.53248 32.1744 4.603 31.9122 4.02807 31.2227C3.64478 30.7663 3.52021 30.2321 3.52021 29.6397C3.52021 27.3769 3.52021 25.1239 3.52021 22.8611C3.52021 22.7348 3.52021 22.6086 3.52021 22.56Z"
        fill="#0770E3" />
    <path
        d="M24.6872 13.8201C25.5304 13.8201 26.3066 13.8201 27.0923 13.8201C28.4243 13.8298 29.3346 14.733 29.3441 16.0829C29.3537 19.6567 29.3537 23.2402 29.3441 26.8141C29.3441 28.1834 28.4338 29.0866 27.0732 29.0866C23.3265 29.0866 19.5895 29.0866 15.8428 29.0866C14.4917 29.0866 13.5814 28.1737 13.5814 26.8044C13.5718 23.2402 13.5718 19.6664 13.5814 16.1023C13.5814 14.733 14.4917 13.8201 15.8428 13.8104C16.6286 13.8104 17.4143 13.8104 18.2384 13.8104C18.2384 13.5676 18.2384 13.3539 18.2384 13.1306C18.2479 11.8778 19.1295 10.9552 20.3656 10.9066C21.1034 10.8775 21.8413 10.8775 22.5887 10.9066C23.8248 10.9552 24.6872 11.8875 24.7064 13.1403C24.6872 13.3636 24.6872 13.5773 24.6872 13.8201ZM16.4273 21.4533C16.4273 21.5893 16.4273 21.7252 16.4273 21.8612C16.4273 23.0169 16.4273 24.1823 16.4273 25.3379C16.4273 25.9012 16.7723 26.2314 17.261 26.1634C17.6538 26.1148 17.8742 25.8041 17.8742 25.2894C17.8742 22.7352 17.8742 20.1811 17.8742 17.627C17.8742 17.5299 17.8647 17.423 17.8455 17.3259C17.7593 16.918 17.4239 16.6947 17.0214 16.7529C16.6477 16.8112 16.4273 17.122 16.4273 17.6076C16.4273 18.8895 16.4273 20.1714 16.4273 21.4533ZM25.0417 21.4533C25.0417 21.6087 25.0417 21.7738 25.0417 21.9292C25.0417 23.0654 25.0417 24.2017 25.0417 25.3379C25.0417 25.9012 25.3867 26.2314 25.8754 26.1634C26.2683 26.1148 26.4886 25.8041 26.4886 25.2894C26.4886 22.7352 26.4886 20.1811 26.4886 17.627C26.4886 17.5299 26.4791 17.423 26.4599 17.3259C26.3737 16.9278 26.0383 16.6947 25.6358 16.7529C25.2621 16.8112 25.0417 17.122 25.0417 17.6173C25.0417 18.8895 25.0417 20.1714 25.0417 21.4533ZM23.2499 13.8104C23.2499 13.5384 23.269 13.2956 23.2499 13.0626C23.2115 12.645 22.9528 12.3925 22.5504 12.3828C21.8221 12.3731 21.0939 12.3731 20.3752 12.3828C19.9919 12.3925 19.7332 12.6158 19.6853 12.9946C19.6565 13.2568 19.6757 13.5287 19.6757 13.8104C20.8735 13.8104 22.0425 13.8104 23.2499 13.8104Z"
        fill="#0770E3" />
    <path
        d="M4.96733 3.62278C4.97691 1.61249 6.60589 -0.0287526 8.57024 0.000381988C10.5633 0.0295165 12.1444 1.66105 12.1252 3.67133C12.1061 5.67191 10.5058 7.2743 8.54149 7.2743C6.55798 7.2743 4.95775 5.63306 4.96733 3.62278Z"
        fill="#0770E3" />
    <path
        d="M15.757 29.8438C17.1656 29.8438 18.5837 29.8438 19.9923 29.8438C20.0211 31.0383 18.9862 32.0483 17.8172 31.9997C16.6385 31.9511 15.6612 30.9412 15.757 29.8438Z"
        fill="#0770E3" />
    <path
        d="M22.9244 29.8438C24.333 29.8438 25.7511 29.8438 27.1597 29.8438C27.246 30.9412 26.2781 31.9511 25.0995 31.9997C23.9209 32.0483 22.886 31.0383 22.9244 29.8438Z"
        fill="#0770E3" />
</svg>