<svg width="54" height="54" viewBox="0 0 54 54" fill="none" xmlns="http://www.w3.org/2000/svg">
<path d="M48.7197 54C34.2366 54 19.7549 54 5.27177 54C5.19431 53.9676 5.11825 53.9211 5.03656 53.9056C2.64501 53.428 1.06332 52.0263 0.274592 49.7257C0.163324 49.3989 0.0900844 49.0594 -0.00146484 48.7269C-0.00146484 39.9037 -0.00146484 31.0805 -0.00146484 22.2573C0.104169 22.2531 0.208394 22.2446 0.314028 22.2446C18.038 22.2446 35.7605 22.2446 53.4845 22.2446C53.638 22.2446 53.7901 22.2573 53.9732 22.2658C53.9802 22.3996 53.9901 22.501 53.9901 22.6025C53.9901 31.0861 54.0168 39.5712 53.9732 48.0549C53.9605 50.4456 52.7633 52.2334 50.6394 53.3378C50.0464 53.6464 49.3633 53.783 48.7197 54ZM26.6098 34.0432C26.5281 34.1742 26.4901 34.2531 26.4352 34.3179C24.4563 36.6001 22.4732 38.8809 20.4943 41.1646C20.2521 41.4435 19.983 41.49 19.6464 41.3547C19.045 41.1124 18.4337 40.8913 17.8309 40.6518C17.407 40.4841 17.0535 40.5419 16.7394 40.8927C16.4464 41.2195 16.1239 41.5196 15.8168 41.8323C15.2366 42.4212 15.2535 42.6494 15.938 43.0946C16.8211 43.6694 17.7408 44.1906 18.5859 44.8161C19.1253 45.2148 19.6239 45.7093 20.0225 46.2474C20.6577 47.1068 21.1901 48.0422 21.7732 48.9396C22.1605 49.5355 22.4126 49.5581 22.9309 49.0509C23.283 48.7072 23.6225 48.3508 23.9774 48.0098C24.2675 47.7323 24.3309 47.4266 24.1788 47.0547C23.9408 46.47 23.7521 45.8614 23.476 45.2965C23.2337 44.8006 23.3732 44.4992 23.7633 44.1667C25.5014 42.686 27.2211 41.1829 28.9478 39.6882C29.5295 39.1838 30.114 38.6823 30.7126 38.1667C30.8436 38.3484 30.9478 38.4879 31.0464 38.6316C32.476 40.7391 33.9042 42.8466 35.3323 44.9528C35.6183 45.374 35.9014 45.798 36.1957 46.2122C36.4661 46.594 36.7873 46.6194 37.1253 46.2996C37.4309 46.0094 37.7281 45.7107 38.0295 45.4149C38.7098 44.7457 38.7197 44.695 38.3422 43.8187C37.2042 41.1772 36.0746 38.5316 34.9225 35.8957C34.6985 35.3829 34.7183 34.9617 35.1098 34.5489C35.4366 34.2052 35.7253 33.8276 36.0464 33.4783C37.3394 32.0709 37.9704 30.3972 38.0492 28.5067C38.0943 27.4247 37.476 26.7851 36.3943 26.7696C34.8337 26.7471 33.4084 27.1965 32.1478 28.1023C31.5098 28.5616 30.9225 29.0998 30.3535 29.6464C29.8732 30.107 29.4225 30.1084 28.8323 29.8478C26.1704 28.6701 23.4887 27.5332 20.814 26.3808C20.4478 26.223 20.0746 26.0878 19.7337 26.4132C19.3028 26.826 18.8845 27.2543 18.469 27.6825C18.1591 28.0009 18.183 28.3052 18.5506 28.563C19.0112 28.8856 19.4746 29.2026 19.9394 29.5182C22.1506 31.0185 24.3591 32.5161 26.6098 34.0432Z" fill="#FF5A5F"/>
<path d="M0 20.6754C0 17.9692 0 15.2615 0 12.5552C0.0338028 12.4383 0.0788732 12.3242 0.1 12.2058C0.601408 9.48547 2.82113 7.45824 5.58028 7.26101C6.57747 7.18916 7.58169 7.22297 8.5831 7.21452C8.71549 7.21311 8.84789 7.24551 8.98873 7.26382C9 7.42443 9.01408 7.54558 9.01549 7.66674C9.0169 9.19526 8.99859 10.7252 9.02254 12.2537C9.05493 14.312 10.4859 15.7038 12.5423 15.7109C13.562 15.7137 14.5803 15.7151 15.6 15.7109C17.6521 15.7024 19.0845 14.2852 19.0986 12.2368C19.1085 10.7604 19.1 9.28402 19.1014 7.80902C19.1014 7.62447 19.1169 7.43992 19.1268 7.2441C19.2873 7.23142 19.3901 7.21452 19.4944 7.21452C24.4676 7.21311 29.4408 7.21734 34.4141 7.20606C34.8014 7.20466 34.8817 7.34976 34.8775 7.69914C34.8634 9.24598 34.8507 10.7928 34.8789 12.3383C34.9141 14.3007 36.3535 15.6982 38.3155 15.7109C39.3521 15.7179 40.3887 15.7151 41.4254 15.7123C43.5099 15.7052 44.9282 14.2979 44.9451 12.2072C44.9563 10.7492 44.9465 9.28965 44.9479 7.83156C44.9479 7.6442 44.9634 7.45824 44.9732 7.22579C46.0338 7.22579 47.0507 7.17789 48.062 7.23424C51.6099 7.43429 53.9887 9.98136 53.9916 13.5371C53.993 15.7165 53.9916 17.8959 53.9916 20.0739C53.9916 20.2598 53.9916 20.4458 53.9916 20.6684C53.6944 20.6684 53.469 20.6684 53.2437 20.6684C35.7239 20.6684 18.2042 20.6684 0.683099 20.6684C0.456338 20.667 0.228169 20.6726 0 20.6754Z" fill="#FF5A5F"/>
<path d="M36.4534 7.07052C36.4534 5.38562 36.4478 3.70072 36.4548 2.0144C36.459 0.691559 37.1506 0.00689074 38.4717 0.00407318C39.49 0.00125562 40.5083 -0.00297073 41.5266 0.00548196C42.6154 0.0153434 43.3773 0.711282 43.3844 1.80168C43.4069 5.31236 43.4069 8.82304 43.3844 12.3337C43.3773 13.4241 42.6154 14.1215 41.528 14.1313C40.4576 14.1412 39.3858 14.1412 38.3154 14.1313C37.2041 14.1215 36.4689 13.4016 36.459 12.2816C36.4421 10.546 36.4534 8.80896 36.4534 7.07052Z" fill="#FF5A5F"/>
<path d="M17.5271 7.09452C17.5285 8.78084 17.5327 10.4671 17.5257 12.1549C17.5214 13.4383 16.8172 14.1328 15.5313 14.1356C14.513 14.1384 13.4933 14.1427 12.475 14.1342C11.3806 14.1243 10.6172 13.4312 10.6102 12.3422C10.5876 8.82873 10.5876 5.31523 10.6102 1.80173C10.6172 0.711336 11.3778 0.0168066 12.4721 0.00694518C13.544 -0.00150751 14.6158 -0.00432507 15.6876 0.00694518C16.7721 0.0182154 17.5144 0.742329 17.5242 1.82286C17.5383 3.58102 17.5271 5.33777 17.5271 7.09452Z" fill="#FF5A5F"/>
</svg>
