<svg width="19" height="13" viewBox="0 0 19 13" fill="none" xmlns="http://www.w3.org/2000/svg">
<path fill-rule="evenodd" clip-rule="evenodd" d="M9.7334 0.787598C5.64249 0.787598 2.14885 3.2756 0.733398 6.7876C2.14885 10.2996 5.64249 12.7876 9.7334 12.7876C13.8243 12.7876 17.3179 10.2996 18.7334 6.7876C17.3179 3.2756 13.8243 0.787598 9.7334 0.787598ZM9.7334 10.7876C7.47522 10.7876 5.64249 8.9956 5.64249 6.7876C5.64249 4.5796 7.47522 2.7876 9.7334 2.7876C11.9916 2.7876 13.8243 4.5796 13.8243 6.7876C13.8243 8.9956 11.9916 10.7876 9.7334 10.7876ZM9.73384 4.38721C8.37566 4.38721 7.2793 5.45921 7.2793 6.78721C7.2793 8.11521 8.37566 9.18721 9.73384 9.18721C11.092 9.18721 12.1884 8.11521 12.1884 6.78721C12.1884 5.45921 11.092 4.38721 9.73384 4.38721Z" fill="#222222"/>
</svg>
